<?xml version="1.0" encoding="utf-8"?><!DOCTYPE svg PUBLIC "-//W3C//DTD SVG 1.1//EN" "http://www.w3.org/Graphics/SVG/1.1/DTD/svg11.dtd"><svg width="580" height="372" viewBox="0 0 580 372" xmlns="http://www.w3.org/2000/svg" xmlns:xlink="http://www.w3.org/1999/xlink"><svg id="logo" viewBox="-417 625.6 230 143.9" width="230" height="143.9"><style>.ast0{fill:none}.ast1{enable-background:new}.ast2{fill:#958d7f}.ast3{fill:#8f7c5c}</style><g id="aXMLID_16_"><path id="aXMLID_138_" class="ast0" d="M-309.6 681.7H-188v86.8h-121.6z"/><g class="ast1"><path class="ast2" d="M-308 705.5v-2.1c.4 0 .7-.1 1-.1.3 0 .5-.2.7-.3.2-.2.3-.5.4-.8.1-.4.2-.9.2-1.5v-12.1-.9-.8-.7c0-.2 0-.4.1-.5l-2.4.1v-2.4h9.1v2.1c-.4 0-.7.1-1 .1-.3.1-.5.2-.7.3-.2.2-.3.4-.4.8s-.2.9-.2 1.5v14.4c0 .2 0 .4-.1.5h4.2c1.2 0 2.2-.4 2.9-1.3.7-.9 1.1-2.2 1.1-3.9h2.1l-.2 7.6H-308zM-282.8 700.4V702.5c0 .3 0 .5-.1.7l2.1-.1v2.4h-8.3v-2.1c.4 0 .8-.1 1-.2s.4-.3.6-.6.2-.5.2-.9v-6.5-1.3c0-.5 0-1 .1-1.5l-2.2.1v-2.4c.7 0 1.4 0 1.9-.1s1-.1 1.4-.2c.4-.1.7-.2 1-.3.2-.1.4-.2.5-.3h1.7v11.2zm.4-16.4c0 .4-.1.7-.2 1-.1.3-.3.6-.5.8-.2.2-.4.4-.7.6-.3.1-.6.2-1 .2s-.7-.1-1-.2-.6-.3-.8-.6c-.2-.2-.4-.5-.5-.8-.1-.3-.2-.6-.2-1s.1-.7.2-1c.1-.3.3-.6.5-.8.2-.2.5-.4.8-.6.3-.1.6-.2.9-.2.3 0 .7.1 1 .2s.5.3.8.6.4.5.5.8c.2.3.2.6.2 1zM-272.4 692.2V702.5s0 .5-.1.8l2.2-.1v2.4h-8.5v-2.1c.4 0 .8-.1 1-.2s.4-.3.6-.6.2-.5.2-.9v-9.6h-2.3v-2.6h2.3v-.9c0-1.3.1-2.4.4-3.3.3-.9.7-1.6 1.2-2.2.5-.6 1.2-1 2-1.3.8-.3 1.6-.4 2.6-.4.7 0 1.4.1 1.9.2s.9.4 1.3.6c.3.3.5.6.7.9s.2.7.2 1c0 .3 0 .6-.1.8s-.2.5-.4.7c-.2.2-.4.4-.6.5-.3.1-.6.2-.9.2-.6 0-1-.2-1.4-.5-.3-.3-.5-.8-.5-1.3 0-.2 0-.4.1-.6-.1-.1-.2-.2-.4-.2h-.3c-.3 0-.5.1-.6.2-.2.1-.3.3-.4.5-.1.2-.2.4-.2.6 0 .2-.1.5-.1.7v3.9h3.5v2.4l-3.4.1zM-252.6 697l-10.4.2c0 .9.1 1.7.2 2.4.2.7.4 1.4.8 1.9s.8.9 1.4 1.3 1.3.5 2.1.5c.3 0 .7 0 1.1-.1.4-.1.8-.2 1.2-.4.4-.2.8-.4 1.2-.7s.8-.7 1.2-1.1l1.4 1.3c-.6.8-1.2 1.5-1.8 2s-1.3.9-1.9 1.2c-.6.3-1.3.5-1.9.6-.6.1-1.2.1-1.7.1-1.2 0-2.2-.2-3.2-.6-1-.4-1.8-1-2.5-1.7s-1.2-1.6-1.6-2.6c-.4-1-.6-2.2-.6-3.5 0-1.1.2-2.2.6-3.2s.9-1.9 1.6-2.7c.7-.8 1.5-1.4 2.5-1.9s2.1-.7 3.3-.7c.6 0 1.2.1 1.8.2.6.1 1.1.3 1.7.5.5.2 1 .6 1.5 1s.9.9 1.2 1.5c.3.6.6 1.3.8 2-.1.6 0 1.5 0 2.5zm-7-5.6c-.5 0-.9.1-1.2.3-.4.2-.7.4-1 .7-.3.3-.5.7-.7 1.1-.2.4-.3.9-.4 1.4h5.8c0-.6-.1-1.2-.2-1.7s-.3-.8-.5-1.1c-.2-.3-.5-.5-.8-.6-.3 0-.6-.1-1-.1z"/></g><g class="ast1"><path class="ast2" d="M-299.8 733.1c.6 0 1.1-.1 1.6-.2.5-.2.9-.4 1.2-.6.3-.3.6-.6.8-1s.3-.7.3-1.2c0-.6-.2-1-.5-1.4s-.7-.8-1.2-1.1c-.5-.3-1-.6-1.6-.8s-1.2-.5-1.8-.7c-1-.4-2-.9-2.8-1.3-.9-.5-1.6-1-2.3-1.6-.6-.6-1.1-1.3-1.5-2.1-.4-.8-.5-1.7-.5-2.8 0-.4.1-.9.2-1.4.1-.5.3-.9.5-1.4.2-.4.5-.9.9-1.3s.8-.8 1.4-1.1c.6-.3 1.2-.5 1.9-.7.7-.2 1.6-.3 2.5-.3.4 0 .9 0 1.3.1.5.1.9.2 1.4.3.5.1.9.3 1.4.5.4.2.8.4 1.2.7l-.1-1.3h2.4v7.4h-2.1c-.3-1.8-.9-3.1-1.8-4-.9-.9-2.2-1.3-3.6-1.3-.5 0-.9.1-1.3.2s-.8.3-1.1.6c-.3.2-.6.5-.7.9s-.3.7-.3 1.1c0 .5.1.9.3 1.3s.5.8.9 1.1 1 .7 1.6 1 1.4.7 2.3 1c.5.2 1.1.5 1.6.7.6.3 1.1.5 1.7.9s1 .7 1.5 1.1c.5.4.9.8 1.3 1.3s.6 1 .9 1.6c.2.6.3 1.2.3 1.9 0 .9-.2 1.8-.6 2.6-.4.8-.9 1.5-1.6 2-.7.6-1.6 1-2.6 1.3-1 .3-2.1.5-3.3.5-.4 0-.8 0-1.3-.1s-.9-.2-1.4-.3c-.5-.1-.9-.3-1.4-.5-.5-.2-.9-.4-1.3-.7l.1 1.3h-2.4v-7.4h2.1c.1.9.4 1.7.7 2.3.4.7.8 1.2 1.3 1.7s1.1.8 1.7 1c.4.1 1.1.2 1.8.2zM-279.7 723.2c0-.2 0-.4.1-.7.1-.3.2-.5.3-.7-.1-.2-.3-.4-.4-.5s-.4-.2-.6-.3c-.2-.1-.4-.1-.6-.2h-.5c-.5 0-1 .1-1.5.4s-.8.6-1.2 1.1c-.3.5-.6 1.1-.8 1.8s-.3 1.5-.3 2.4c0 .8.1 1.6.2 2.3.1.7.4 1.4.7 2s.8 1 1.3 1.4 1.2.5 2.1.5c.4 0 .8-.1 1.3-.2.4-.1.8-.3 1.2-.5.4-.2.8-.5 1.1-.8s.7-.6 1-1l1.5 1.4c-.6.8-1.2 1.4-1.8 1.9-.6.5-1.2.9-1.8 1.2-.6.3-1.2.5-1.8.6-.6.1-1.2.2-1.8.2-1.1 0-2.1-.2-3-.5-.9-.4-1.8-.9-2.5-1.6-.7-.7-1.3-1.5-1.7-2.5-.4-1-.6-2.1-.6-3.4 0-1.2.2-2.3.6-3.4.4-1.1 1-2 1.7-2.8.7-.8 1.6-1.4 2.6-1.9s2.1-.7 3.4-.7c1 0 1.9.1 2.6.4.8.2 1.4.6 1.9 1s.9.9 1.2 1.4c.3.5.4 1.1.4 1.6 0 .3 0 .6-.1.9-.1.3-.2.5-.4.8-.2.2-.4.4-.7.5-.3.1-.6.2-.9.2-.4 0-.7-.1-1-.2-.3-.1-.5-.3-.6-.5-.2-.2-.3-.4-.3-.7s-.3-.6-.3-.9zM-266.7 729.8V731.9c0 .3 0 .5-.1.7l2.1-.1v2.4h-8.3v-2.1c.4 0 .8-.1 1-.2s.4-.3.6-.6.2-.5.2-.9v-6.5-1.3c0-.5 0-1 .1-1.5l-2.2.1v-2.4c.7 0 1.4 0 1.9-.1s1-.1 1.4-.2c.4-.1.7-.2 1-.3.2-.1.4-.2.5-.3h1.7v11.2zm.5-16.4c0 .4-.1.7-.2 1-.1.3-.3.6-.5.8-.2.2-.4.4-.7.6-.3.1-.6.2-1 .2s-.7-.1-1-.2-.6-.3-.8-.6c-.2-.2-.4-.5-.5-.8-.1-.3-.2-.6-.2-1s.1-.7.2-1c.1-.3.3-.6.5-.8.2-.2.5-.4.8-.6.3-.1.6-.2.9-.2.3 0 .7.1 1 .2s.5.3.8.6.4.5.5.8c.2.3.2.6.2 1zM-247.9 726.4l-10.4.2c0 .9.1 1.7.2 2.4.2.7.4 1.4.8 1.9s.8.9 1.4 1.3 1.3.5 2.1.5c.3 0 .7 0 1.1-.1.4-.1.8-.2 1.2-.4.4-.2.8-.4 1.2-.7s.8-.7 1.2-1.1l1.4 1.3c-.6.8-1.2 1.5-1.8 2s-1.3.9-1.9 1.2c-.6.3-1.3.5-1.9.6-.6.1-1.2.1-1.7.1-1.2 0-2.2-.2-3.2-.6-1-.4-1.8-1-2.5-1.7s-1.2-1.6-1.6-2.6c-.4-1-.6-2.2-.6-3.5 0-1.1.2-2.2.6-3.2s.9-1.9 1.6-2.7c.7-.8 1.5-1.4 2.5-1.9s2.1-.7 3.3-.7c.6 0 1.2.1 1.8.2.6.1 1.1.3 1.7.5.5.2 1 .6 1.5 1s.9.9 1.2 1.5c.3.6.6 1.3.8 2-.1.6 0 1.5 0 2.5zm-7-5.6c-.5 0-.9.1-1.2.3-.4.2-.7.4-1 .7-.3.3-.5.7-.7 1.1-.2.4-.3.9-.4 1.4h5.8c0-.6-.1-1.2-.2-1.7s-.3-.8-.5-1.1c-.2-.3-.5-.5-.8-.6-.3 0-.6-.1-1-.1zM-229.3 729.8V731.9c0 .3 0 .5-.1.7l2.1-.1v2.4h-8.3v-2.1c.4 0 .8-.1 1-.2.3-.1.4-.3.6-.6.1-.2.2-.5.2-.9v-5.6c0-1.4-.2-2.4-.6-3.1-.4-.6-1.1-1-1.9-1-.5 0-1.1.1-1.6.3-.5.2-.9.5-1.3.8v9.3c0 .3 0 .5-.1.7l2.1-.1v2.4h-8.3v-2.1c.4 0 .8-.1 1-.2s.4-.3.6-.6.2-.5.2-.9v-6.5-1.3c0-.5 0-.9.1-1.4l-2.2.1v-2.4c.7 0 1.4 0 1.9-.1.6-.1 1-.1 1.4-.2.4-.1.7-.2 1-.3.2-.1.4-.2.5-.3h1.6l.1 1.6c.3-.2.7-.5 1.1-.7l1.2-.6c.4-.2.8-.3 1.2-.4s.8-.1 1.1-.1c1 0 1.8.1 2.5.4.7.3 1.2.7 1.7 1.3.4.6.7 1.3.9 2.2.2.9.3 1.9.3 3.2v4.3zM-215.8 723.2c0-.2 0-.4.1-.7.1-.3.2-.5.3-.7-.1-.2-.3-.4-.4-.5s-.4-.2-.6-.3c-.2-.1-.4-.1-.6-.2h-.5c-.5 0-1 .1-1.5.4s-.8.6-1.2 1.1c-.3.5-.6 1.1-.8 1.8s-.3 1.5-.3 2.4c0 .8.1 1.6.2 2.3.1.7.4 1.4.7 2s.8 1 1.3 1.4 1.2.5 2.1.5c.4 0 .8-.1 1.3-.2.4-.1.8-.3 1.2-.5.4-.2.8-.5 1.1-.8s.7-.6 1-1l1.5 1.4c-.6.8-1.2 1.4-1.8 1.9-.6.5-1.2.9-1.8 1.2-.6.3-1.2.5-1.8.6-.6.1-1.2.2-1.8.2-1.1 0-2.1-.2-3-.5-.9-.4-1.8-.9-2.5-1.6-.7-.7-1.3-1.5-1.7-2.5-.4-1-.6-2.1-.6-3.4 0-1.2.2-2.3.6-3.4.4-1.1 1-2 1.7-2.8.7-.8 1.6-1.4 2.6-1.9s2.1-.7 3.4-.7c1 0 1.9.1 2.6.4.8.2 1.4.6 1.9 1s.9.9 1.2 1.4c.3.5.4 1.1.4 1.6 0 .3 0 .6-.1.9-.1.3-.2.5-.4.8-.2.2-.4.4-.7.5-.3.1-.6.2-.9.2-.4 0-.7-.1-1-.2-.3-.1-.5-.3-.6-.5-.2-.2-.3-.4-.3-.7s-.3-.6-.3-.9zM-194.4 726.4l-10.4.2c0 .9.1 1.7.2 2.4.2.7.4 1.4.8 1.9s.8.9 1.4 1.3 1.3.5 2.1.5c.3 0 .7 0 1.1-.1.4-.1.8-.2 1.2-.4.4-.2.8-.4 1.2-.7s.8-.7 1.2-1.1l1.4 1.3c-.6.8-1.2 1.5-1.8 2s-1.3.9-1.9 1.2c-.6.3-1.3.5-1.9.6-.6.1-1.2.1-1.7.1-1.2 0-2.2-.2-3.2-.6-1-.4-1.8-1-2.5-1.7s-1.2-1.6-1.6-2.6c-.4-1-.6-2.2-.6-3.5 0-1.1.2-2.2.6-3.2s.9-1.9 1.6-2.7c.7-.8 1.5-1.4 2.5-1.9s2.1-.7 3.3-.7c.6 0 1.2.1 1.8.2.6.1 1.1.3 1.7.5.5.2 1 .6 1.5 1s.9.9 1.2 1.5c.3.6.6 1.3.8 2-.1.6 0 1.5 0 2.5zm-7-5.6c-.5 0-.9.1-1.2.3-.4.2-.7.4-1 .7-.3.3-.5.7-.7 1.1-.2.4-.3.9-.4 1.4h5.8c0-.6-.1-1.2-.2-1.7s-.3-.8-.5-1.1c-.2-.3-.5-.5-.8-.6-.3 0-.6-.1-1-.1z"/></g><g class="ast1"><path class="ast2" d="M-301.2 753.9v7.5c0 .2 0 .4-.1.5h4.2c.5 0 .9-.1 1.4-.2.5-.2.9-.4 1.2-.8.4-.4.7-.8.9-1.4.2-.6.3-1.3.3-2.2h2.1l-.2 7H-308v-2.1c.4 0 .7-.1 1-.1s.5-.2.7-.3c.2-.2.3-.4.4-.8.1-.4.2-.9.2-1.5v-12.1-.9-.8-.7c0-.2 0-.4.1-.5l-2.4.1v-2.4h15.8l.2 6.1h-2.1c0-.9-.1-1.5-.4-2.1-.2-.5-.5-1-.9-1.3s-.8-.5-1.2-.6c-.5-.1-.9-.1-1.3-.1h-1.1c-.3 0-.6 0-.9.1s-.5.2-.7.4-.3.5-.4.8c-.1.4-.1.9-.1 1.5v4.7h3.7l-.1-2.7h2.4v7.7h-2.1c0-.7-.1-1.2-.2-1.6-.2-.4-.4-.7-.7-.8-.3-.2-.6-.3-1-.3h-1.2l-.9-.1zM-273.9 740.4V761.3c0 .3 0 .5-.1.7l2.1-.1v2.4h-6l-.2-1.5c-.7.7-1.4 1.2-2.2 1.5-.7.3-1.5.4-2.3.4-.9 0-1.8-.2-2.6-.6s-1.5-.9-2-1.6-1-1.5-1.3-2.5c-.3-1-.5-2.1-.5-3.3 0-1.3.2-2.5.6-3.5.4-1.1.9-2 1.6-2.8.7-.8 1.5-1.4 2.5-1.8 1-.4 2-.7 3.2-.7.6 0 1.1.1 1.6.2s.9.2 1.3.4v-2.1-.6-.7-.8s0-.5.1-.7l-2.2.1v-2.4c.7 0 1.4 0 1.9-.1.6-.1 1-.1 1.4-.2.4-.1.7-.2 1-.3.2-.1.4-.2.5-.3h1.6zm-7 21.5c.5 0 1-.1 1.5-.4.5-.3.8-.6 1.1-1.1v-9.5c-.2-.2-.5-.3-.9-.4-.4-.1-.8-.2-1.3-.2-.7 0-1.3.2-1.8.5s-.9.8-1.2 1.4c-.3.6-.5 1.2-.6 1.9-.1.7-.2 1.4-.2 2.2 0 .7.1 1.4.2 2 .1.7.3 1.3.6 1.8s.6 1 1.1 1.3c.3.4.8.5 1.5.5zM-263.5 759.2V761.3c0 .3 0 .5-.1.7l2.1-.1v2.4h-8.3v-2.1c.4 0 .8-.1 1-.2s.4-.3.6-.6.2-.5.2-.9V754v-1.3c0-.5 0-1 .1-1.5l-2.2.1v-2.4c.7 0 1.4 0 1.9-.1s1-.1 1.4-.2c.4-.1.7-.2 1-.3.2-.1.4-.2.5-.3h1.7v11.2zm.5-16.4c0 .4-.1.7-.2 1-.1.3-.3.6-.5.8-.2.2-.4.4-.7.6-.3.1-.6.2-1 .2s-.7-.1-1-.2-.6-.3-.8-.6c-.2-.2-.4-.5-.5-.8-.1-.3-.2-.6-.2-1s.1-.7.2-1c.1-.3.3-.6.5-.8.2-.2.5-.4.8-.6.3-.1.6-.2.9-.2.3 0 .7.1 1 .2s.5.3.8.6.4.5.5.8c.1.3.2.6.2 1zM-260.4 748.5c.5 0 1.1-.1 1.5-.4s.9-.6 1.3-1 .7-.8 1-1.3.5-.9.6-1.3h2.3v4h4v2.4l-4 .1v7.8c0 .4 0 .7.1 1.1s.1.7.3 1 .3.5.6.7.6.3 1 .3c.1 0 .3 0 .5-.1.2 0 .4-.1.7-.3s.5-.3.8-.6c.3-.3.6-.6.9-1l1.5 1.4c-.6.8-1.2 1.5-1.7 2-.6.5-1.1.8-1.7 1-.5.2-1 .3-1.4.4s-.8.1-1.1.1c-.4 0-.7 0-1.1-.1-.4-.1-.7-.2-1.1-.3-.4-.2-.7-.4-1-.7-.3-.3-.6-.7-.9-1.1-.3-.5-.5-1-.6-1.6-.1-.6-.2-1.4-.2-2.3v-7.6h-2.2v-2.6zM-238.9 748c1.1 0 2.2.2 3.2.6 1 .4 1.8.9 2.5 1.6.7.7 1.3 1.6 1.7 2.6.4 1 .6 2.1.6 3.4 0 1.3-.2 2.5-.6 3.6-.4 1.1-.9 2-1.6 2.8-.7.8-1.5 1.3-2.5 1.7-1 .4-2 .6-3.2.6-1.1 0-2.2-.2-3.2-.6-1-.4-1.8-.9-2.6-1.6-.7-.7-1.3-1.5-1.7-2.5-.4-1-.6-2.1-.6-3.4 0-1.3.2-2.5.6-3.6.4-1.1 1-2 1.7-2.8.7-.8 1.6-1.4 2.5-1.8 1.1-.4 2.1-.6 3.2-.6zm-.1 2.2c-.6 0-1.1.2-1.5.5-.4.3-.7.8-1 1.3-.3.5-.4 1.1-.5 1.8-.1.7-.2 1.4-.2 2 0 .8.1 1.6.2 2.4.1.8.3 1.5.6 2.1s.6 1.1 1.1 1.5c.4.4 1 .6 1.6.6.6 0 1.1-.2 1.5-.5.4-.3.7-.8.9-1.3.2-.5.4-1.1.5-1.8s.1-1.3.1-2c0-.8-.1-1.6-.2-2.4-.1-.8-.3-1.5-.6-2.2-.3-.6-.6-1.2-1-1.6-.3-.2-.8-.4-1.5-.4zM-217.7 748c.4 0 .7.1 1.1.2.3.1.6.3.9.5s.5.5.6.8c.1.3.2.7.2 1.2 0 .2 0 .5-.1.8-.1.3-.2.5-.4.7-.2.2-.4.4-.7.5s-.6.2-1 .2c-.2 0-.4 0-.7-.1l-.6-.3c-.2-.1-.4-.3-.5-.6-.1-.2-.2-.5-.3-.9-.3 0-.6.1-1 .3-.3.2-.6.5-.9.8-.3.3-.5.7-.7 1-.2.4-.4.7-.5 1v7.3c0 .3 0 .5-.1.7l2.1-.1v2.4h-8.3v-2.1c.4 0 .8-.1 1-.2s.4-.3.6-.6.2-.5.2-.9v-6.5-1.3c0-.5 0-.9.1-1.4l-2.2.1v-2.4c.7 0 1.4 0 1.9-.1s1-.1 1.4-.2c.4-.1.7-.2 1-.3.2-.1.4-.2.5-.3h1.6l.1 2.7c.2-.3.5-.6.7-.9s.6-.7 1-1c.4-.3.8-.5 1.3-.7.7-.2 1.2-.3 1.7-.3zM-211.4 759.1c0 .5.2.9.5 1.4.3.4.6.8 1.1 1.1.4.3.9.6 1.5.7.6.2 1.2.3 1.9.3.3 0 .5 0 .8-.1.3-.1.5-.2.7-.3s.4-.3.5-.5c.1-.2.2-.4.2-.7 0-.3-.1-.6-.2-.8s-.4-.4-.7-.6c-.3-.2-.7-.4-1.2-.5-.5-.2-1-.4-1.6-.6-.7-.3-1.3-.5-2-.8-.7-.3-1.3-.6-1.8-1s-1-.9-1.3-1.4c-.3-.6-.5-1.3-.5-2.1 0-.6.1-1.2.3-1.8.2-.6.6-1.2 1.1-1.6.5-.5 1.1-.9 1.9-1.2s1.6-.5 2.7-.5c.3 0 .6 0 .9.1.3 0 .7.1 1 .2s.7.2 1 .3c.3.1.6.3.9.5v-.9h2.4v5.6h-2c-.1-.5-.3-1-.5-1.5s-.6-.8-1-1.1c-.4-.3-.8-.5-1.3-.7-.5-.2-1-.2-1.6-.2-.3 0-.5 0-.8.1-.3.1-.5.2-.7.3s-.4.3-.5.5c-.1.2-.2.5-.2.8 0 .4.1.7.3.9s.5.5.8.6c.4.2.8.3 1.2.5.5.1 1 .3 1.5.5.8.3 1.5.6 2.2.9.7.3 1.3.7 1.8 1.2.5.4.9.9 1.2 1.5s.4 1.2.4 2-.2 1.5-.5 2.2c-.3.6-.8 1.1-1.3 1.5-.5.4-1.1.7-1.8.9-.7.2-1.4.3-2.1.3-.5 0-.9 0-1.4-.1s-.9-.1-1.3-.3-.8-.2-1.1-.4c-.3-.2-.6-.3-.9-.5l.1 1h-2.4l-.1-5.4h1.9z"/></g><path id="aXMLID_41_" class="ast3" d="M-263.6 660.9c-1.4-.7-2.8-1.6-4.4-2.5 1-.8 2-1.7 2.8-2.5.4-.4 1.4-.7.6-1.7-.8-1-1.4-.6-2 .1-2.3 2.8-4.9 3.1-8.2 2.1-.6-.1-1.1-.4-1.7-.4-2.1 0-1.6-.8-1-2.1 1.7-3.1 3.5-6.1 6.6-8.1.6-.4 1-.8.3-1.6-.6-.7-1-.6-1.7-.1-1.1.8-2 2.1-3.4 2.5-.3-.8-.4-1.6-.8-2.4-.3-.6-.1-1.8-1.6-1.3-1.3.4-.7 1.4-.4 2 1.3 2.4 1 4.5-.7 6.5-.7.8-1.1 1.7-1.6 2.7-.3.6-.7 1-1.3 1-3.1.6-6.4 1.1-9.5 1.7-.4.1-1.3.3-1-.6.7-3.4.6-6.9 2.1-10 1.8-3.8 3.8-7.6 7.6-10 .7-.4 1-.8.3-1.7-.7-.7-1-.4-1.6 0-1 .8-2.1 1.7-3.3 2.7-.4-1-.7-1.7-1-2.5-.3-.7-.1-1.7-1.6-1.3-1.4.4-.4 1.3-.3 2 .3 1.4 1.6 2.7.6 4.4-1 1.6-2 3.3-3 5.1-2.5-2.5-4.8-5.1-5.7-8.6-.1-.8-.6-1.3-1.4-1-.4.1-1 .1-.7.8.1.4.3.8.4 1.3.8 2.5.8 2.5-1.8 2.8-.6 0-1.1 0-1.1.8s.4 1.1 1.1 1c3.3-.8 4.8 1.6 6.5 3.7.7 1 1.3 1.8 1 3-.6 2.7-1 5.2-1.4 7.9-.1.7-.4 1.1-1 1.4-4.2 2.4-8.5 4.9-13 7.5-.6-3.1-.8-6.1-1.7-8.9-1.6-5.7-.1-11 1.4-16.3 1.3-4.1 3.8-8.1 7.8-10.6.6-.4 1.3-.7.4-1.7-.7-.8-1.1-.7-1.7 0-1 .8-2.1 1.7-3.3 2.5-.4-1-.7-1.7-1-2.5-.3-.7-.3-1.7-1.6-1.3-1.4.6-.4 1.4-.3 2 .1 1.3 1.6 2.5.7 4-1 1.8-2.1 3.5-3.3 5.5-2.4-2.5-4.7-5.1-5.5-8.5-.1-.7-.3-1.6-1.4-1.1-1.4.4-.6 1.3-.4 2 .3.8.8 1.7.7 2.8-.6 0-1 0-1.6.1-.7.1-1.8-.6-2 .7 0 1.6 1.3.8 2 1 1.4.1 2.5.1 3.8 1.3 2.5 2.5 3.4 5.2 2.4 8.6-.6 1.6-.7 3.3-1 4.9-4.5-2.3-8.6-4.7-11.6-8.8-1.1-1.7-1.7-3.4-2.4-5.2-.3-.7-.6-1-1.4-.7-.7.3-.8.6-.6 1.4.4 1.1 1 2.1 1 3.4h-1.8c-.6.1-1.6-.6-1.7.8-.1 1.4 1 .8 1.7 1 1.1.1 2.4-.6 3.4.7 1.1 1.3 2.1 2.7 3.4 4.1-2.8 1.1-5.4 2.4-8.3 2-.6 0-1.4-.4-1.4.8 0 1 .6 1.1 1.3 1 1.8-.1 3 0 1.8 2.3-.3.7-.1.8.6 1.1.7.3 1 0 1-.6.4-2.8 2.5-3.5 4.8-4.1 1.7-.6 9 3 9.8 4.7 0 .1.1.3.1.4.7 4 1.3 7.9 2.1 11.9.1.8 0 1.3-.6 1.8-4.4 5.1-8.6 10.3-13.1 15.7-2.5-4.2-4.8-8.5-7.2-12.6-1.6-2.4-2.8-4.8-3-7.8 0-.8-.3-1.6-.4-2.4-.6-3.1-1.7-6.4-1.4-9.5.6-5.8 1.4-11.7 5.1-16.7 1.4-1.8 3.1-3.3 4.7-4.7.6-.4 1.3-.8.4-1.7-.7-.8-1.1-.6-1.8 0s-1.4 1.1-2.1 1.7c-.7.7-1.4 1-1.6-.4 0-.4-.3-.8-.4-1.3-.4-.6-.1-1.8-1.6-1.3-1.3.6-.7 1.4-.3 2 1.4 2.3.8 4.4-.7 6.4-.6.7-.8 1.4-1.3 2.1-.6 1.1-.8.8-1.6.1-2-2.4-4-4.7-4.7-7.8-.1-.7-.4-1.3-1.4-.8-1 .3-.8.8-.6 1.6.4 1 .7 2 1.1 3.1h-2.7c-.8 0-1 .3-1 1.1 0 .7.3 1 1 .8h1.6c1.8 0 6.2 3.7 6.1 5.4-.3 3.1-1 6.2-1.6 9.5-6.2-3-11.6-6.5-13.7-13.3-.3-.7-.3-2-1.7-1.4-1.4.6-.4 1.6-.1 2.3.8 2.1.8 2.1-1.7 2.3-.6 0-1.3-.1-1.3.8 0 1 .6 1.1 1.3 1 4-.7 5.1 2.4 7.1 4.8-3 1.1-5.7 2.4-8.6 2-.7-.1-1.1 0-1.1 1 0 .8.7.8 1.3.8.8 0 1.7-.3 2.7.1-.3.6-.4 1.1-.6 1.7-.3.6-.3 1.1.6 1.4.7.3 1-.1 1.1-.7.4-3.3 3.1-3.4 5.4-4.2 1.4-.6 8.6 3.5 9 4.8v.7c.7 3.5 1.3 7.2 2 10.7.3 1.3-.3 1.3-1.1 1.1-5.4-1.1-11-1.6-15.8-4.8-4.4-2.8-7.8-6.2-9.5-11.2-.1-.6-.1-1.4-.8-1.4-1-.1-.7-.3-.4-1 1.1-2.4 3.3-3.8 5.2-5.5.6-.6.8-1 .3-1.7-.6-.8-1.1-.4-1.7 0-1.1.8-2 2-3.3 2.5-.3-.8-.6-1.7-1-2.5-.3-.6 0-1.6-1.4-1.1s-.6 1.1-.6 1.8c.3 1.4 1.7 2.5.8 4.2-1 1.8-2.1 3.7-3.3 5.5-2.5-2.7-4.8-5.2-5.7-8.8-.1-.8-.4-1.1-1.4-.8-.8.3-.7.7-.6 1.4.3.6.4 1.3.7 1.8.6 1 .3 1.6-1 1.4h-1.4c-.7 0-1 .3-1 1.1 0 .7.4.8 1 .8h.7c2.7.1 6.1 2.5 6.9 4.9.1.3.1.7 0 1.1-.4 3-1 5.8-1.6 8.9-4-2.3-7.9-4-10.6-7.6-1.4-2-2.7-4.1-3.4-6.5-.1-.6-.3-1.1-1.3-.7-.8.3-1.1.6-.6 1.4.1.3.1.6.3.8.8 1.7 1.1 3-1.6 2.5-.7-.1-1.4-.1-1.4 1 0 .8.7 1 1.3.8 3.4-.7 4.7 1.7 6.4 3.8.7.8.4 1.1-.6 1.4-2.3 1-4.5 1.6-6.9 1.3-.7 0-1.6-.3-1.6 1s.8 1 1.6 1h.4c1.3-.1 2.1 0 1.3 1.7-.3.4-.7 1.3.3 1.6 1 .4 1.1-.4 1.3-1 .4-1.6 1.3-2.4 2.8-3.1 2.5-1.1 4.7-1 6.8.7 1 .8 2.3 1.4 3.4 2.1.6.3 1.3.7 1.3 1.4.7 4 1.3 7.8 2 11.7.1.7 0 1-.7.8-3.7-.7-7.6-.7-10.9-2.1-4.2-1.8-8.5-4-11.5-7.9-1.4-2-2.7-4-3.4-6.2-.3-.7-.4-1.4-1.6-1-1.3.4-.4 1.1-.3 1.7.3 1 .8 1.8.8 3h-2.1s-1.6-.3-1.6 1c0 1.1.8.7 1.4.8 1.1.3 2.5-.6 3.5.7 1.1 1.3 2.1 2.7 3.3 4-3.4 1.7-4.2 1.8-8.2 2.1-.6 0-1.4-.3-1.4.8 0 1.3.8 1 1.6 1h2.1c.1.8-.3 1.4-.4 2.1-.3.7 0 1 .7 1.3.8.4.8-.4 1-.7.3-.4.4-1 .6-1.4.6-1.4 5.1-3.4 6.5-2.7 2.3 1.1 4.4 2.5 6.6 3.8-4.2 4.2-8.8 7.5-15 7.2-.6 0-1.4-.3-1.4.8 0 1.3.8 1 1.6 1 2-.3 2.7.3 1.7 2.3-.4.8 0 1 .6 1.3.8.4 1-.3 1-.7.6-3.5 3.5-3.4 6.1-4.4 0 2.3.3 4.4-.7 6.4-.3.6-1.4 1.7 0 2.3 1.6.7 1.1-1 1.6-1.6.4-.7.4-1.3 1.4-.6.4.3 1 1.6 1.7.4.8-1.1-.4-1.3-1-1.7-1-1-1.8-5.4-.7-6.1 2.8-2.3 5.1-6.1 9.8-4.2 1.6.6 3.3.8 4.8.8 2.4.1 3.8 1.3 4.9 3.4 2.4 4.5 4.9 8.8 7.5 13.1-2.7.6-5.1 1-7.5 1.4-2.8.6-5.8 1.7-8.6 1.3-6.5-.8-13.1-1.4-18.9-5.4-4.1-2.8-7.2-6.1-8.9-10.7-.3-.7 0-2-1.6-1.4-1.7.4-.6 1.6-.3 2.1.7 1.8 1.1 3.1-1.7 2.7-.6-.1-1.1 0-1.3.8 0 .8.4 1.1 1.1 1 3.4-.7 4.8 1.8 6.6 4 .6.7.4 1-.3 1.3-2.3.7-4.2 1.8-6.6 1.6-.7 0-2-.7-2 1 0 1.4 1.3.8 1.8.8 1.8-.1 2 .6 1.3 2 .1.1.1.6 1 .8.7.1.8-.1 1.1-.7.1-.6.4-1.1.7-1.7.7-1.4 5.2-3.3 6.5-2.5 2.1 1.1 4.2 2.5 6.5 3.8-4.2 4.4-8.8 7.5-15 7.2-.7 0-1.4 0-1.4 1s.8.8 1.4.8c1.7-.1 3 0 1.8 2.1-.3.4-.6 1 .3 1.3.7.1 1.1.1 1.3-.7 0-.4.3-.7.4-1 .4-1.3 3.7-3.3 4.9-3.1.8.1.6.7.6 1.1.1 2 0 3.8-.8 5.7-.3.6-.7 1.3.3 1.7 1 .4 1.1-.3 1.3-1 .1-.6.4-1.1.7-1.7.3.1.7.4 1 .6.6.3.8 1.3 1.7.4.8-1-.3-1.3-.7-1.7s-1.1-.7-1.3-1.6c0-2.4-.4-4.9 2.3-6.5 1.1-.6 2-1.6 3-2.4.6-.4 1.1-.7 1.8-.6 3.4.7 6.8 1.3 10.5 2-1 1.7-1.8 3.3-2.7 4.8-3 5.7-7.5 9.5-13.6 11.5-1.4.4-3 .4-4.4.6-.6 0-1.6-.4-1.7.8 0 1.6 1 .8 1.7 1s1.3 0 2.1 0c-.3.8-.4 1.6-.7 2.3-.3.7.3.8.7 1.1.7.3.8-.3.8-.6.4-3.5 3.5-3.5 5.9-4.5.3 3.5.3 4-.7 6.9-.1.6-1.1 1.3.1 1.8 1.3.6 1-.6 1.4-1.1.3-.4.1-1.3.8-1.6.3.3.7.6 1 .8.4.3.7.7 1.3.1.6-.6.3-1-.3-1.4-.4-.3-.7-.6-1-.8-1-1-1.1-5.1 0-6.1 1.6-1.4 3.3-2.7 4.9-4.1 2.3 4.7 3.5 9.3 1.3 14.3-.3.6-.4 1 .3 1.3.7.3 1 0 1.3-.7.3-.6.1-1.6 1-1.8.4.3.7.6 1 .8.4.4.8.4 1.3-.1.3-.4.3-.8-.3-1.1-2.4-1.3-1.7-3.5-1.7-5.8 1.6.6 3.1.8 4.4 1.8.7.6 1.4 2.1 2.4 1.1 1.3-1.4-1.1-1.4-1.3-2.4l.3-.3c.3-.6 1.7-.4 1.1-1.6-.7-1.1-1.3-.1-1.8.1-1.7.8-4.8-.4-5.5-2.1-2-4.9-2-4.9.7-9.6.7-1.1 1.4-2.3 2-3.5.4-.8 1-1.3 2-1.4 4.7-.7 9.3-1.7 13.9-2.5 1-.1 1.6.3 2.1.8 5.7 4.8 11.5 9.6 17.2 14.4 1 .8 1.4 1.7 1.4 3l.7 41.8h8.5v-.6c0-14 .1-27.9-.1-41.8 0-2.5.4-4.7 1.3-6.8 2.8-7.9 5.8-15.7 8.5-23.6.7-2.1 1.7-3.7 3.1-5.4 2.5-3 5.1-5.9 7.5-9 3.7-4.8 7.9-8.8 13.4-11.5 4.4-2.1 8.3-5.2 13.4-5.7 2.7-.1 5.4-1.4 7.9-1.1 5.1.6 10.3 1 14.6 4.4.6.4 1.1 1 1.8-.1 1.2.2 1.1-.4.1-.8zm-105.9-10.8c.6 1.6 1 2.7 1.4 3.8-1.1.3-2.1.3-3.1 0 0-1.2 1.1-2.1 1.7-3.8zm-2.7 8.7c.1-1-.1-2.5 1-2.7 1.6-.1 3.4-.7 4.7 1.1.8 1.3 1.8 2.3 3 3.5-3.1 1.3-5.9 2.5-9.3 1.7.2-1.1.5-2.4.6-3.6zm-.8 7.6c-.4-1.8.1-2.1 1.7-1.8h1.8c.1.8-.3 1.6-.6 2.1-.3.7 0 1 .6 1.3s1 .1 1.1-.6c.4-3.5 3.7-3.4 5.9-4.5.6-.3 1 0 1.4.3 2.1 1.3 4.2 2.5 6.4 3.7-4.5 4.9-9.8 7.9-16.8 7.1-.4-2.1-.8-4.9-1.5-7.6zm42 22.2c-3 8.1-5.9 16.1-8.8 24.2-.6 1.4-1 1.6-2.1.6-4.8-4.1-9.5-8.5-14.7-12.2-4.1-3-5.8-7.4-8.3-11.3-1.8-3-3.5-5.9-5.2-8.9-.8-1.3-.6-2.8-1-4.4-.1-.6.3-.7.8-.7h3c.4 1.3-1.7 2.7-.1 3.3 1.7.7 1.3-1.6 1.8-2.3.4-.6 4.1-2.5 4.8-2.4.7.1.4.7.4 1 0 2 .1 3.8-.7 5.7-.3.4-1 1.4.3 1.8 1.1.4 1.1-.7 1.4-1.3.3-.4.4-1 .6-1.6.4.3.8.6 1.1.8.4.4.8.8 1.4 0 .7-.8-.1-1-.4-1.4-2.4-2.3-2-5.4.1-7.9 3.3-4 7.1-2.8 11.2-2.4 4.1.4 6.5 2.3 8.2 5.9 1.7 3.6 4 7.1 5.9 10.5.5 1.2.7 1.9.3 3z"/></g></svg><svg id="logo-footer" viewBox="-205 329.6 204 134.4" width="204" height="134.4" x="230" y="144"><style>.bst0{fill:none}.bst1{enable-background:new}.bst2{fill:#a4a19e}</style><g id="bXMLID_16_"><path id="bXMLID_138_" class="bst0" d="M-108.8 380.4H-2v80.4h-106.8z"/><g class="bst1"><path class="bst2" d="M-107.4 402v-1.9c.3 0 .6 0 .9-.1s.5-.1.6-.3.3-.4.4-.7c.1-.3.1-.8.1-1.4v-11-.8-.7-.6-.5l-2.2.1V382h8.2v1.9c-.3 0-.6.1-.9.1-.3 0-.5.1-.6.3-.2.2-.3.4-.4.7s-.1.8-.1 1.4V400h3.8c1.1 0 2-.4 2.7-1.2.6-.8 1-2 1-3.5h1.9l-.2 6.9h-15.2zM-84.6 397.4v2.5l1.9-.1v2.2h-7.5v-1.9c.4 0 .7-.1.9-.2.2-.1.4-.3.5-.5s.2-.5.2-.8v-5.8-1.2s0-.9.1-1.3l-2 .1v-2.2c.7 0 1.2 0 1.8-.1s.9-.1 1.3-.2.6-.2.9-.3.4-.2.5-.3h1.6v10.1zm.4-14.8c0 .3-.1.6-.2.9s-.2.5-.4.7c-.2.2-.4.4-.7.5-.3.1-.6.2-.9.2-.3 0-.6-.1-.9-.2-.3-.1-.5-.3-.7-.5-.2-.2-.3-.5-.5-.7-.1-.3-.2-.6-.2-.9s.1-.6.2-.9.3-.5.5-.8c.2-.2.4-.4.7-.5.3-.1.5-.2.8-.2.3 0 .6.1.9.2.3.1.5.3.7.5.2.2.3.5.5.8s.2.5.2.9zM-75.2 390V399.9l2-.1v2.2h-7.6v-1.9c.4 0 .7-.1.9-.2.2-.1.4-.3.5-.5.1-.2.2-.5.2-.8V390h-2.1v-2.4h2.1v-.8c0-1.2.1-2.1.4-3 .3-.8.6-1.5 1.1-2 .5-.5 1.1-.9 1.8-1.1.7-.2 1.5-.4 2.3-.4.7 0 1.2.1 1.7.2s.8.3 1.1.6c.3.2.5.5.6.8s.2.6.2.9c0 .3 0 .5-.1.7-.1.2-.2.4-.4.6s-.4.3-.6.4c-.2.1-.5.2-.8.2-.5 0-.9-.2-1.2-.5s-.4-.7-.4-1.2c0-.2 0-.3.1-.6-.1-.1-.2-.2-.3-.2h-.3c-.2 0-.4.1-.6.2-.1.1-.3.3-.3.4s-.1.4-.2.6v4.1h3.2v2.2l-3.3.3zM-57.3 394.3l-9.4.2c0 .8.1 1.5.2 2.2.1.7.4 1.2.7 1.7.3.5.7.9 1.2 1.1.5.3 1.1.4 1.9.4.3 0 .6 0 1-.1s.7-.2 1.1-.4c.4-.2.7-.4 1.1-.7.4-.3.7-.6 1-1l1.3 1.2c-.5.7-1.1 1.3-1.6 1.8-.6.5-1.2.8-1.7 1.1-.6.3-1.2.4-1.7.5-.6.1-1.1.1-1.6.1-1.1 0-2-.2-2.9-.5-.9-.4-1.6-.9-2.2-1.5s-1.1-1.5-1.4-2.4-.5-2-.5-3.1c0-1 .2-2 .5-2.9.3-.9.8-1.7 1.4-2.4s1.4-1.3 2.3-1.7c.9-.4 1.9-.6 2.9-.6.5 0 1.1 0 1.6.1s1 .2 1.5.5c.5.2.9.5 1.3.9s.8.8 1.1 1.3c.3.5.5 1.1.7 1.8.2.7.2 1.5.2 2.4zm-6.3-5c-.4 0-.8.1-1.1.2-.3.2-.6.4-.9.7s-.4.6-.6 1c-.2.4-.3.8-.3 1.3h5.3c0-.6-.1-1.1-.2-1.5s-.3-.7-.5-1c-.2-.3-.5-.4-.7-.6-.3-.1-.7-.1-1-.1z"/></g><g class="bst1"><path class="bst2" d="M-99.9 427c.5 0 1-.1 1.4-.2s.8-.3 1.1-.6c.3-.2.5-.5.7-.9.2-.3.3-.7.3-1 0-.5-.1-.9-.4-1.3s-.6-.7-1.1-1c-.4-.3-.9-.5-1.5-.7s-1.1-.4-1.6-.6c-.9-.4-1.8-.8-2.6-1.2-.8-.4-1.5-.9-2.1-1.5s-1-1.2-1.4-1.9c-.3-.7-.5-1.5-.5-2.5 0-.4 0-.8.1-1.2s.3-.8.5-1.2.5-.8.8-1.2c.3-.4.8-.7 1.3-1 .5-.3 1.1-.5 1.7-.6s1.4-.2 2.3-.2c.4 0 .8 0 1.2.1.4.1.9.1 1.3.3.4.1.8.3 1.2.4.4.2.8.4 1.1.6l-.1-1.2h2.2v6.7h-1.9c-.3-1.6-.8-2.8-1.7-3.6-.9-.8-1.9-1.2-3.3-1.2-.4 0-.8.1-1.2.2s-.7.3-1 .5-.5.5-.7.8c-.2.3-.3.6-.3 1s.1.8.3 1.2c.2.4.5.7.9 1s.9.6 1.4.9c.6.3 1.3.6 2.1.9l1.5.6c.5.2 1 .5 1.5.8s.9.6 1.4.9c.4.3.8.7 1.1 1.2s.6.9.8 1.4c.2.5.3 1.1.3 1.7 0 .8-.2 1.6-.5 2.3-.3.7-.8 1.3-1.5 1.8s-1.4.9-2.3 1.2-1.9.4-3 .4c-.4 0-.8 0-1.2-.1-.4-.1-.8-.1-1.3-.3-.4-.1-.9-.3-1.3-.4s-.8-.4-1.2-.6l.1 1.2h-2.2v-6.7h1.9c.1.8.4 1.5.7 2.1.3.6.7 1.1 1.2 1.5s1 .7 1.6.9c.6.2 1.2.3 1.9.3zM-81.7 418.1c0-.2 0-.4.1-.6s.1-.4.3-.6c-.1-.2-.2-.3-.4-.5s-.3-.2-.5-.3c-.2-.1-.4-.1-.5-.2h-.5c-.5 0-.9.1-1.3.3-.4.2-.7.5-1 1-.3.4-.5 1-.7 1.6-.2.6-.2 1.4-.2 2.2 0 .7.1 1.4.2 2.1.1.7.4 1.3.7 1.8.3.5.7.9 1.2 1.2s1.1.5 1.9.5c.4 0 .8-.1 1.2-.2.4-.1.8-.3 1.1-.4.4-.2.7-.4 1-.7l.9-.9 1.3 1.3c-.5.7-1.1 1.3-1.6 1.8s-1.1.8-1.7 1.1c-.6.3-1.1.4-1.7.5-.5.1-1.1.1-1.6.1-1 0-1.9-.2-2.7-.5-.9-.3-1.6-.8-2.2-1.4-.6-.6-1.1-1.4-1.5-2.3-.4-.9-.6-1.9-.6-3.1 0-1.1.2-2.1.5-3.1s.9-1.8 1.5-2.5c.7-.7 1.4-1.3 2.3-1.7.9-.4 1.9-.6 3-.6.9 0 1.7.1 2.4.3.7.2 1.3.5 1.7.9.5.4.8.8 1 1.2.2.5.3 1 .3 1.5 0 .3 0 .6-.1.8s-.2.5-.4.7c-.2.2-.4.3-.6.5-.3.1-.5.2-.9.2s-.6-.1-.9-.2c-.2-.1-.4-.3-.6-.5s-.3-.4-.3-.6-.1-.5-.1-.7zM-70 424v2.5l1.9-.1v2.2h-7.5v-1.9c.4 0 .7-.1.9-.2.2-.1.4-.3.5-.5.1-.2.2-.5.2-.8v-5.8-1.2c0-.4 0-.9.1-1.3l-2 .1v-2.2c.7 0 1.2 0 1.8-.1s.9-.1 1.3-.2.6-.2.9-.3.4-.2.5-.3h1.6V424zm.5-14.8c0 .3-.1.6-.2.9s-.2.5-.4.7c-.2.2-.4.4-.7.5-.3.1-.6.2-.9.2-.3 0-.6-.1-.9-.2-.3-.1-.5-.3-.7-.5-.2-.2-.3-.5-.5-.7-.1-.3-.2-.6-.2-.9s.1-.6.2-.9c.1-.3.3-.5.5-.8.2-.2.4-.4.7-.5.3-.1.5-.2.8-.2.3 0 .6.1.9.2.3.1.5.3.7.5.2.2.3.5.5.8.1.2.2.5.2.9zM-53 420.9l-9.4.2c0 .8.1 1.5.2 2.2.1.7.4 1.2.7 1.7.3.5.7.9 1.2 1.1.5.3 1.1.4 1.9.4.3 0 .6 0 1-.1s.7-.2 1.1-.4c.4-.2.7-.4 1.1-.7.4-.3.7-.6 1-1l1.3 1.2c-.5.7-1.1 1.3-1.6 1.8-.6.5-1.2.8-1.7 1.1-.6.3-1.2.4-1.7.5-.6.1-1.1.1-1.6.1-1.1 0-2-.2-2.9-.5-.9-.4-1.6-.9-2.2-1.5s-1.1-1.5-1.4-2.4-.5-2-.5-3.1c0-1 .2-2 .5-2.9.3-.9.8-1.7 1.4-2.4s1.4-1.3 2.3-1.7c.9-.4 1.9-.6 2.9-.6.5 0 1.1 0 1.6.1s1 .2 1.5.5c.5.2.9.5 1.3.9s.8.8 1.1 1.3c.3.5.5 1.1.7 1.8.1.7.2 1.5.2 2.4zm-6.3-5c-.4 0-.8.1-1.1.2-.3.2-.6.4-.9.7s-.4.6-.6 1c-.2.4-.3.8-.3 1.3h5.3c0-.6-.1-1.1-.2-1.5s-.3-.7-.5-1c-.2-.3-.5-.4-.7-.6-.4-.1-.7-.1-1-.1zM-36.2 424v2.5l1.9-.1v2.2H-42v-1.9c.4 0 .7-.1.9-.2.2-.1.4-.3.5-.5.1-.2.2-.5.2-.8v-5.1c0-1.3-.2-2.2-.6-2.8-.4-.6-1-.9-1.7-.9-.5 0-1 .1-1.4.3-.5.2-.9.5-1.2.7V426.4l1.9-.1v2.2H-51v-1.9c.4 0 .7-.1.9-.2.2-.1.4-.3.5-.5.1-.2.2-.5.2-.8v-5.8-1.2c0-.4 0-.8.1-1.3l-2 .1v-2.2c.7 0 1.2 0 1.8-.1.5-.1.9-.1 1.3-.2s.6-.2.9-.3.4-.2.5-.3h1.4l.1 1.4c.3-.2.6-.4 1-.6.4-.2.7-.4 1.1-.5.4-.1.7-.3 1.1-.3s.7-.1 1-.1c.9 0 1.6.1 2.2.4.6.2 1.1.6 1.5 1.1.4.5.7 1.2.8 2 .2.8.3 1.8.3 2.9v3.9zM-24 418.1c0-.2 0-.4.1-.6s.1-.4.3-.6c-.1-.2-.2-.3-.4-.5s-.3-.2-.5-.3c-.2-.1-.4-.1-.5-.2h-.5c-.5 0-.9.1-1.3.3-.4.2-.7.5-1 1-.3.4-.5 1-.7 1.6-.2.6-.2 1.4-.2 2.2 0 .7.1 1.4.2 2.1.1.7.4 1.3.7 1.8.3.5.7.9 1.2 1.2s1.1.5 1.9.5c.4 0 .8-.1 1.2-.2.4-.1.8-.3 1.1-.4.4-.2.7-.4 1-.7l.9-.9 1.3 1.3c-.5.7-1.1 1.3-1.6 1.8s-1.1.8-1.7 1.1c-.6.3-1.1.4-1.7.5-.5.1-1.1.1-1.6.1-1 0-1.9-.2-2.7-.5-.9-.3-1.6-.8-2.2-1.4-.6-.6-1.1-1.4-1.5-2.3-.4-.9-.6-1.9-.6-3.1 0-1.1.2-2.1.5-3.1s.9-1.8 1.5-2.5c.7-.7 1.4-1.3 2.3-1.7.9-.4 1.9-.6 3-.6.9 0 1.7.1 2.4.3.7.2 1.3.5 1.7.9.5.4.8.8 1 1.2.2.5.3 1 .3 1.5 0 .3 0 .6-.1.8s-.2.5-.4.7c-.2.2-.4.3-.6.5-.3.1-.5.2-.9.2s-.6-.1-.9-.2c-.2-.1-.4-.3-.6-.5s-.3-.4-.3-.6-.1-.5-.1-.7zM-4.6 420.9l-9.4.2c0 .8.1 1.5.2 2.2.1.7.4 1.2.7 1.7.3.5.7.9 1.2 1.1.5.3 1.1.4 1.9.4.3 0 .6 0 1-.1s.7-.2 1.1-.4c.4-.2.7-.4 1.1-.7.4-.3.7-.6 1-1l1.3 1.2c-.5.7-1.1 1.3-1.6 1.8-.6.5-1.2.8-1.7 1.1-.6.3-1.2.4-1.7.5s-1.1.1-1.6.1c-1.1 0-2-.2-2.9-.5-.9-.4-1.6-.9-2.2-1.5s-1.1-1.5-1.4-2.4c-.3-.9-.5-2-.5-3.1 0-1 .2-2 .5-2.9.3-.9.8-1.7 1.4-2.4s1.4-1.3 2.3-1.7 1.9-.6 2.9-.6c.5 0 1.1 0 1.6.1s1 .2 1.5.5c.5.2.9.5 1.3.9s.8.8 1.1 1.3.5 1.1.7 1.8c.1.7.2 1.5.2 2.4zm-6.3-5c-.4 0-.8.1-1.1.2-.3.2-.6.4-.9.7s-.4.6-.6 1c-.2.4-.3.8-.3 1.3h5.3c0-.6-.1-1.1-.2-1.5s-.3-.7-.5-1c-.2-.3-.5-.4-.7-.6-.4-.1-.7-.1-1-.1z"/></g><g class="bst1"><path class="bst2" d="M-101.2 445.7v7.3h3.8c.4 0 .8-.1 1.3-.2.4-.1.8-.4 1.1-.7.3-.3.6-.7.8-1.3.2-.5.3-1.2.3-2h1.9l-.2 6.3h-15.1v-1.9c.3 0 .6-.1.9-.1s.5-.1.6-.3c.2-.2.3-.4.4-.7.1-.3.1-.8.1-1.4v-11-.8-.7-.6-.5l-2.2.1V435h14.3l.2 5.5h-1.9c0-.8-.1-1.4-.3-1.9-.2-.5-.5-.9-.8-1.1-.3-.3-.7-.5-1.1-.5-.4-.1-.8-.1-1.2-.1h-1c-.3 0-.6 0-.8.1l-.6.3c-.2.2-.3.4-.4.7-.1.3-.1.8-.1 1.3v4.3h3.4l-.1-2.5h2.2v7h-1.9c0-.6-.1-1.1-.2-1.4s-.3-.6-.6-.8-.5-.3-.9-.3h-1.1l-.8.1zM-76.5 433.5V453l1.9-.1v2.2H-80l-.2-1.3c-.6.7-1.3 1.1-2 1.4-.7.3-1.4.4-2.1.4-.9 0-1.6-.2-2.3-.5-.7-.3-1.3-.8-1.8-1.5-.5-.6-.9-1.4-1.2-2.3s-.4-1.9-.4-3c0-1.2.2-2.2.5-3.2s.8-1.8 1.4-2.5 1.4-1.3 2.2-1.7c.9-.4 1.8-.6 2.9-.6.5 0 1 .1 1.4.2.4.1.8.2 1.1.4V439v-.5-.6-.7-.7l-2 .1v-2.2c.7 0 1.2 0 1.8-.1s.9-.1 1.3-.2.6-.2.9-.3c.2-.1.4-.2.5-.3h1.5zm-6.4 19.5c.5 0 .9-.1 1.4-.4.4-.3.8-.6 1-1V443c-.2-.1-.5-.3-.9-.4-.4-.1-.8-.2-1.2-.2-.7 0-1.2.2-1.6.5-.4.3-.8.7-1 1.2-.3.5-.4 1.1-.6 1.7-.1.6-.2 1.3-.2 2 0 .6.1 1.2.2 1.8.1.6.3 1.1.5 1.6s.6.9 1 1.2c.4.4.9.6 1.4.6zM-67.1 450.5v2.5l1.9-.1v2.2h-7.5v-1.9c.4 0 .7-.1.9-.2.2-.1.4-.3.5-.5.1-.2.2-.5.2-.8V446v-1.2c0-.4 0-.9.1-1.3l-2 .1v-2.2c.7 0 1.2 0 1.8-.1s.9-.1 1.3-.2.6-.2.9-.3.4-.2.5-.3h1.6v10zm.4-14.8c0 .3-.1.6-.2.9s-.2.5-.4.7c-.2.2-.4.4-.7.5-.3.1-.6.2-.9.2-.3 0-.6-.1-.9-.2-.3-.1-.5-.3-.7-.5-.2-.2-.3-.5-.5-.7-.1-.3-.2-.6-.2-.9s.1-.6.2-.9c.1-.3.3-.5.5-.8.2-.2.4-.4.7-.5.3-.1.5-.2.8-.2.3 0 .6.1.9.2.3.1.5.3.7.5.2.2.3.5.5.8.2.2.2.5.2.9zM-64.3 440.8c.5 0 1-.1 1.4-.4s.8-.5 1.2-.9c.3-.4.6-.7.9-1.2s.4-.8.5-1.2h2.1v3.6h3.6v2.2l-3.6.1v7c0 .3 0 .7.1 1s.1.6.3.9c.1.3.3.5.5.6.2.2.5.2.9.2.1 0 .3 0 .5-.1.2 0 .4-.1.6-.2.2-.1.5-.3.7-.5.3-.2.5-.5.8-.9l1.4 1.3c-.5.8-1 1.4-1.6 1.8s-1 .7-1.5.9c-.5.2-.9.3-1.3.3s-.7.1-1 .1c-.3 0-.6 0-1-.1-.3-.1-.7-.1-1-.3-.3-.1-.6-.3-.9-.6-.3-.3-.6-.6-.8-1-.2-.4-.4-.9-.5-1.5-.1-.6-.2-1.3-.2-2.1v-6.9h-2v-2.1zM-44.9 440.4c1 0 2 .2 2.9.5.9.3 1.6.8 2.3 1.5.6.6 1.1 1.4 1.5 2.3.4.9.6 1.9.6 3.1 0 1.2-.2 2.3-.5 3.3s-.8 1.8-1.5 2.5-1.4 1.2-2.3 1.6c-.9.4-1.8.6-2.9.6-1 0-2-.2-2.9-.5s-1.7-.8-2.3-1.5c-.7-.6-1.2-1.4-1.5-2.3-.4-.9-.6-1.9-.6-3 0-1.2.2-2.3.6-3.2.4-1 .9-1.8 1.6-2.5.7-.7 1.4-1.2 2.3-1.6.8-.7 1.8-.8 2.7-.8zm0 2c-.6 0-1 .2-1.4.5-.4.3-.7.7-.9 1.2-.2.5-.4 1-.5 1.6s-.1 1.2-.1 1.9.1 1.5.2 2.2c.1.7.3 1.4.6 1.9.3.6.6 1 1 1.4s.9.5 1.5.5 1-.2 1.4-.5.6-.7.9-1.2c.2-.5.4-1 .4-1.6.1-.6.1-1.2.1-1.8 0-.7 0-1.4-.1-2.1s-.3-1.4-.5-2-.5-1-.9-1.4c-.6-.4-1.1-.6-1.7-.6zM-25.7 440.4c.3 0 .7 0 1 .1.3.1.6.2.8.4.2.2.4.4.5.7s.2.7.2 1.1c0 .2 0 .5-.1.7-.1.2-.2.5-.3.7-.2.2-.4.4-.6.5s-.6.2-.9.2c-.2 0-.4 0-.6-.1-.2-.1-.4-.1-.6-.3-.2-.1-.3-.3-.4-.5-.1-.2-.2-.5-.2-.8-.3 0-.6.1-.9.3-.3.2-.6.4-.8.7-.3.3-.5.6-.7.9s-.3.6-.4.9v7.2l1.9-.1v2.2h-7.5v-1.9c.4 0 .7-.1.9-.2.2-.1.4-.3.5-.5.1-.2.2-.5.2-.8V446v-1.2c0-.4 0-.8.1-1.3l-2 .1v-2.2c.7 0 1.2 0 1.8-.1s.9-.1 1.3-.2.6-.2.9-.3.4-.2.5-.3h1.4l.1 2.5c.2-.3.4-.5.7-.8l.9-.9c.3-.3.7-.5 1.2-.7s.6-.2 1.1-.2zM-20 450.4c0 .4.2.8.4 1.2.2.4.6.7 1 1 .4.3.8.5 1.4.7.5.2 1.1.2 1.7.2.2 0 .5 0 .7-.1s.4-.1.6-.3c.2-.1.3-.3.5-.4s.2-.4.2-.6c0-.3-.1-.5-.2-.7-.1-.2-.4-.4-.6-.5l-1-.5c-.4-.2-.9-.3-1.4-.6-.6-.2-1.2-.5-1.8-.7s-1.2-.5-1.6-.9c-.5-.4-.9-.8-1.2-1.3-.3-.5-.5-1.2-.5-1.9 0-.5.1-1.1.3-1.6.2-.5.5-1 1-1.5.4-.4 1-.8 1.7-1.1.7-.3 1.5-.4 2.4-.4.3 0 .5 0 .8.1.3 0 .6.1.9.2l.9.3c.3.1.5.3.8.4v-.8h2.2v5.1h-1.8c-.1-.5-.2-.9-.5-1.3-.2-.4-.5-.7-.9-1-.3-.3-.7-.5-1.2-.6-.4-.1-.9-.2-1.4-.2-.2 0-.5 0-.7.1s-.4.1-.6.3-.3.3-.4.5c-.1.2-.2.4-.2.7 0 .3.1.6.3.8s.4.4.7.6c.3.2.7.3 1.1.4s.9.3 1.4.5c.7.3 1.4.5 2 .8.6.3 1.1.6 1.6 1s.8.8 1.1 1.4c.3.5.4 1.1.4 1.8s-.1 1.4-.4 1.9c-.3.6-.7 1-1.2 1.4s-1 .6-1.7.8-1.3.3-1.9.3c-.4 0-.8 0-1.2-.1-.4-.1-.8-.1-1.2-.2-.4-.1-.7-.2-1-.4s-.6-.3-.8-.5l.1.9h-2.2l-.1-4.9h1.5z"/></g><path id="bXMLID_41_" class="bst2" d="M-67.2 361.6c-1.3-.7-2.5-1.5-3.9-2.3.9-.8 1.8-1.5 2.6-2.2.4-.4 1.3-.6.5-1.5-.7-.9-1.3-.5-1.8.1-2 2.5-4.5 2.8-7.4 1.9-.5-.2-1.1-.3-1.6-.3-1.9 0-1.4-.7-.8-1.9 1.5-2.9 3.2-5.4 6-7.3.5-.4.9-.7.3-1.4-.6-.6-.9-.5-1.5-.1-1 .7-1.8 1.9-3.1 2.3-.3-.7-.4-1.5-.8-2.1-.3-.5-.1-1.7-1.4-1.2-1.2.4-.6 1.2-.3 1.7 1.2 2.1.9 4-.6 5.9-.6.7-1 1.6-1.4 2.4-.3.6-.6.8-1.2.9-2.9.5-5.7 1-8.6 1.5-.4.1-1.1.3-1-.5.7-3 .5-6.3 1.9-9.1 1.7-3.5 3.4-6.9 6.9-9.1.7-.4.9-.8.3-1.6-.6-.7-.9-.4-1.4 0-.9.8-1.9 1.5-2.9 2.4-.4-.9-.7-1.6-1-2.3-.2-.6-.2-1.5-1.4-1.1-1.3.4-.4 1.2-.3 1.8.2 1.3 1.5 2.5.5 4-.9 1.5-1.8 3-2.7 4.6-2.2-2.4-4.4-4.6-5.1-7.8-.2-.7-.5-1.1-1.2-.8-.4.1-.8.2-.7.8.1.4.3.8.4 1.1.8 2.3.8 2.3-1.5 2.5-.6 0-1.1 0-1.1.8s.4 1 1 .8c3-.7 4.3 1.4 5.9 3.3.7.8 1.1 1.6.9 2.7-.5 2.4-.9 4.8-1.3 7.2-.1.6-.4 1-.9 1.3-3.9 2.2-7.7 4.4-11.7 6.8-.5-2.8-.8-5.5-1.5-8.1-1.4-5.1-.1-10 1.3-14.7 1.1-3.7 3.4-7.3 7-9.6.5-.3 1.1-.7.4-1.5-.6-.7-1-.6-1.6 0-1 .7-2 1.4-3 2.2-.4-.9-.7-1.6-.9-2.3-.2-.7-.3-1.5-1.4-1.1-1.3.5-.4 1.2-.3 1.8.2 1.2 1.4 2.3.7 3.6-.9 1.7-1.9 3.3-2.9 5-2.2-2.3-4.3-4.5-5-7.6-.2-.6-.3-1.4-1.3-1.1-1.2.4-.5 1.2-.4 1.8.2.8.8 1.6.7 2.6-.5 0-.9 0-1.4.1-.6.1-1.7-.5-1.8.7-.1 1.4 1 .9 1.7.9 1.3 0 2.3-.1 3.4 1.1 2.3 2.3 3.1 4.7 2.1 7.8-.5 1.4-.6 3-.9 4.5-4.1-2-7.8-4.2-10.4-7.9-1-1.5-1.5-3.1-2.2-4.8-.2-.6-.6-.9-1.2-.6-.6.3-.8.5-.5 1.2.4 1 .9 1.9.9 3.1-.6 0-1.2-.1-1.7 0-.6.1-1.4-.5-1.5.7-.1 1.3.9.8 1.5.9 1 .2 2.2-.5 3 .6 1 1.2 2 2.4 3 3.7-2.5 1-4.8 2.1-7.5 1.8-.5-.1-1.3-.3-1.3.7 0 .9.6 1 1.2.9 1.6-.2 2.7 0 1.7 2-.3.6-.1.8.5 1 .7.3.9 0 .9-.5.4-2.6 2.3-3.1 4.4-3.7 1.6-.5 8.2 2.6 8.8 4.2 0 .1.1.3.1.4.6 3.6 1.2 7.2 1.9 10.8.1.7 0 1.2-.5 1.6-3.9 4.7-7.8 9.3-11.9 14.2-2.2-3.9-4.3-7.7-6.6-11.3-1.3-2.2-2.5-4.4-2.7-7-.1-.7-.2-1.5-.4-2.2-.5-2.9-1.5-5.8-1.2-8.6.5-5.3 1.2-10.6 4.6-15.1 1.2-1.7 2.8-2.9 4.3-4.3.5-.4 1.1-.7.4-1.6-.7-.8-1.1-.5-1.6 0-.6.6-1.3 1-1.9 1.6-.7.6-1.2.9-1.4-.4-.1-.4-.2-.8-.4-1.1-.3-.5-.1-1.6-1.4-1.2-1.2.5-.6 1.2-.3 1.8 1.1 2.1.7 4-.7 5.8-.4.6-.8 1.3-1.1 1.9-.5 1-.8.8-1.4.1-1.8-2.1-3.6-4.2-4.2-7-.1-.6-.4-1.1-1.3-.8-.9.3-.7.8-.5 1.4.3.9.6 1.7 1 2.8h-2.4c-.7 0-.9.3-.9 1 0 .6.2.9.8.8h1.4c1.6 0 5.6 3.3 5.5 4.9-.3 2.8-.9 5.7-1.4 8.5-5.6-2.7-10.5-5.9-12.4-12-.2-.6-.2-1.8-1.5-1.3s-.3 1.3-.1 2c.7 2.2.8 2.2-1.6 2.4-.5 0-1.1-.2-1.2.7 0 .9.5 1 1.2.9 3.6-.7 4.6 2.2 6.4 4.3-2.7 1-5.1 2.2-7.8 1.8-.6-.1-1.1 0-1 .9.1.8.6.8 1.1.8.8.1 1.6-.2 2.4.2-.2.5-.4 1.1-.6 1.6-.2.6-.3 1 .5 1.2.7.2.9-.1 1-.6.3-2.9 2.9-3.1 4.9-3.8 1.2-.5 7.8 3.2 8.2 4.4.1.2 0 .4.1.6.6 3.3 1.1 6.5 1.8 9.8.2 1.1-.2 1.1-1 1-4.9-1-9.9-1.3-14.4-4.3-3.9-2.6-7-5.6-8.5-10.1-.2-.5-.1-1.2-.7-1.3-.9-.2-.6-.3-.3-.9 1-2.2 3-3.5 4.7-5 .5-.5.8-.8.2-1.5-.6-.7-1-.4-1.5 0-1 .7-1.8 1.8-3 2.3-.3-.8-.6-1.6-.9-2.3-.2-.5 0-1.4-1.2-1.1-1.3.4-.6 1-.4 1.7.2 1.3 1.5 2.4.7 3.8-.9 1.7-1.9 3.3-2.9 4.9-2.3-2.4-4.4-4.7-5.1-8-.2-.7-.4-1-1.2-.7s-.7.7-.5 1.2c.2.6.4 1.2.6 1.7.5 1 .3 1.4-.9 1.3h-1.2c-.7 0-1 .3-.9 1 0 .6.3.8.9.8h.6c2.4.1 5.5 2.2 6.3 4.5.1.3.1.7 0 1-.4 2.6-.9 5.3-1.4 8.1-3.5-2.1-7.1-3.6-9.6-6.9-1.3-1.8-2.4-3.7-3.1-5.8-.1-.5-.3-1-1.1-.7-.8.3-1 .6-.6 1.3.1.2.1.5.2.8.8 1.6 1 2.7-1.4 2.3-.6-.1-1.3-.1-1.2.9 0 .8.6.9 1.1.8 3-.7 4.3 1.6 5.8 3.4.7.8.4 1-.5 1.3-2 .8-4.1 1.4-6.3 1.2-.6-.1-1.4-.2-1.4.9s.8.8 1.4.9h.4c1.2-.1 1.9.1 1.2 1.5-.2.4-.7 1.1.3 1.5.9.3 1.1-.4 1.2-.9.4-1.4 1.1-2.2 2.5-2.8 2.3-1 4.2-.9 6.1.6 1 .7 2.1 1.3 3.1 1.9.6.3 1.1.6 1.2 1.3.6 3.5 1.2 7.1 1.8 10.6.1.6 0 .9-.7.8-3.3-.6-6.9-.6-9.9-1.9-3.8-1.7-7.7-3.5-10.4-7.2-1.3-1.8-2.4-3.6-3.1-5.6 0-1.2-.1-1.8-1.1-1.4-1.1.4-.4 1-.3 1.6.2.9.8 1.7.8 2.7h-1.9c-.6 0-1.4-.3-1.4.9.1 1.1.8.6 1.3.7 1.1.2 2.3-.5 3.2.6l3 3.6c-3.1 1.5-3.8 1.7-7.5 1.9-.5 0-1.2-.3-1.3.8-.1 1.2.7.9 1.3.9h2c.2.8-.2 1.3-.4 1.9-.2.7 0 .9.6 1.2.8.4.7-.4.9-.7.2-.4.3-.9.5-1.3.5-1.3 4.6-3.1 5.9-2.5 2 1.1 4 2.3 6 3.5-3.9 3.8-7.9 6.7-13.5 6.5-.5 0-1.3-.3-1.3.7 0 1.2.8.9 1.4.8 1.8-.2 2.4.3 1.5 2-.4.8.1.9.5 1.1.7.4.9-.3.9-.7.5-3.2 3.2-3.1 5.4-3.9 0 2 .2 3.9-.6 5.7-.3.5-1.2 1.5 0 2.1 1.4.6 1.1-.9 1.4-1.4.3-.6.4-1.1 1.2-.5.4.3.8 1.4 1.6.4.8-1.1-.4-1.2-.9-1.6-.9-.9-1.6-4.8-.7-5.6 2.6-2 4.5-5.5 8.8-3.8 1.4.5 2.9.7 4.4.8 2.2.1 3.5 1.1 4.5 3.1 2.1 4 4.5 7.9 6.8 11.9-2.4.5-4.6.9-6.8 1.3-2.6.5-5.3 1.5-7.8 1.2-5.9-.8-11.9-1.2-17.1-4.8-3.7-2.5-6.5-5.5-8.1-9.7-.2-.6 0-1.7-1.3-1.3-1.5.4-.5 1.4-.3 1.9.7 1.6 1 2.8-1.5 2.4-.6-.1-1.1 0-1.1.8s.4 1 1 .9c3.1-.7 4.4 1.7 5.9 3.6.5.6.4.9-.3 1.1-2 .6-3.8 1.6-6.1 1.4-.4 0-1.6-.6-1.6.9 0 1.3 1.1.8 1.7.7 1.7-.1 1.8.6 1.2 1.9-.3.6-.3 1 .4 1.2.7.2.8-.2 1-.7l.6-1.5c.6-1.3 4.7-2.9 5.9-2.2 2 1.1 3.9 2.3 5.8 3.4-3.8 3.9-7.9 6.8-13.5 6.5-.6 0-1.3-.1-1.2.9 0 1 .8.8 1.3.8 1.5-.1 2.6-.1 1.6 1.9-.2.4-.5.9.2 1.1.6.2 1.1.2 1.2-.6l.3-.9c.4-1.2 3.3-3 4.5-2.9.8.1.5.7.5 1.1.1 1.8 0 3.5-.8 5.2-.2.5-.7 1.1.2 1.5.9.4 1-.3 1.2-.9l.6-1.5c.3.2.6.4.9.5.5.2.8 1.1 1.5.3.8-.9-.3-1.1-.7-1.5-.4-.4-1.1-.6-1.1-1.3-.1-2.2-.4-4.5 2-5.9 1-.6 1.8-1.4 2.7-2.2.5-.4 1-.6 1.7-.5 3.1.6 6.2 1.2 9.5 1.8-.9 1.6-1.7 2.9-2.5 4.3-2.7 5.2-6.8 8.6-12.3 10.4-1.3.4-2.6.4-4 .5-.6 0-1.4-.4-1.5.8-.1 1.4.9.8 1.6.9.6.1 1.2 0 1.9 0-.2.8-.4 1.4-.6 2-.2.6.2.8.7 1 .6.3.8-.3.8-.6.4-3.2 3.2-3.2 5.3-4.1.3 3.2.2 3.5-.6 6.2-.1.5-1 1.1.2 1.6s.9-.6 1.3-1c.3-.4.1-1.1.8-1.4.3.2.6.5.9.7.3.3.6.7 1.1.2.5-.6.3-.9-.2-1.3-.3-.2-.6-.5-.9-.8-1-.9-1-4.6-.1-5.5 1.4-1.3 3-2.4 4.5-3.7 2 4.3 3.2 8.5 1.2 12.9-.2.5-.3.9.3 1.1.6.2.9 0 1.2-.6.2-.6.1-1.4.9-1.7.3.3.7.5.9.8.4.4.8.4 1.2-.1.3-.4.2-.8-.2-1-2.3-1.2-1.6-3.3-1.6-5.4 1.4.5 2.8.8 4 1.6.6.5 1.3 1.9 2.1 1 1.1-1.3-1-1.3-1.2-2.2 0 0 .2-.1.2-.2.3-.5 1.6-.3 1-1.4-.6-1.1-1.1-.1-1.6.2-1.5.7-4.4-.3-5-2-1.8-4.4-1.8-4.4.7-8.6.6-1.1 1.3-2.1 1.8-3.2.4-.8.9-1.2 1.8-1.3 4.2-.7 8.4-1.5 12.6-2.3.8-.2 1.4.2 2 .7 5.2 4.4 10.4 8.7 15.6 13 .9.8 1.3 1.5 1.3 2.7l.4 37.9h7.7v-.5c0-12.6.1-25.2-.1-37.9 0-2.3.4-4.2 1.2-6.2 2.6-7.1 5.3-14.1 7.7-21.3.6-1.9 1.5-3.4 2.8-4.8 2.3-2.7 4.7-5.3 6.8-8.1 3.3-4.4 7.1-7.9 12.1-10.3 4-1.9 7.5-4.8 12.2-5.1 2.4-.2 4.8-1.3 7.2-1.1 4.6.5 9.3.9 13.2 4 .5.4 1 .9 1.6-.1.2-.5.1-.9-.8-1.4zM-163 352c.5 1.4.9 2.4 1.3 3.4-1 .3-1.9.2-2.8.1 0-1.3 1-2 1.5-3.5zm-2.3 7.7c.1-.9-.1-2.3.9-2.4 1.4-.2 3.1-.7 4.2 1 .7 1.1 1.7 2.1 2.7 3.2-2.8 1.2-5.4 2.3-8.4 1.6.2-1.1.4-2.2.6-3.4zm-.8 7c-.4-1.6.1-1.9 1.5-1.7.5.1 1.1 0 1.6 0 .1.8-.3 1.4-.5 2s-.1.9.5 1.1c.6.2.9.1 1-.5.4-3.2 3.3-3.1 5.3-4.1.5-.3.9.1 1.3.3l5.7 3.3c-4 4.5-8.9 7.1-15.2 6.4-.3-1.9-.6-4.4-1.2-6.8zm37.9 20c-2.7 7.3-5.3 14.5-7.9 21.8-.5 1.3-.8 1.4-1.9.5-4.4-3.7-8.6-7.7-13.3-11.1-3.7-2.7-5.3-6.6-7.5-10.2-1.6-2.6-3.2-5.3-4.7-8-.7-1.2-.6-2.6-.9-3.9-.1-.5.2-.7.7-.6h2.7c.3 1.2-1.5 2.4-.1 3 1.6.6 1.1-1.3 1.7-2.1.4-.6 3.7-2.3 4.3-2.2.6.1.4.6.4.9 0 1.7.2 3.5-.7 5.2-.2.4-.9 1.2.2 1.6 1.1.4 1-.6 1.3-1.1.2-.4.4-.8.6-1.3.4.3.7.5 1.1.8.4.4.8.7 1.3 0 .6-.7-.1-.9-.4-1.2-2.2-2-1.7-4.9.1-7.1 3-3.5 6.4-2.6 10.1-2.2s5.9 2 7.4 5.4c1.5 3.3 3.6 6.4 5.4 9.5.4.7.4 1.4.1 2.3z"/></g></svg><svg id="logo-mobile" viewBox="-226.6 301.7 146 93" width="146" height="93" x="434" y="279"><style>.cst0{fill:none}.cst1{enable-background:new}.cst2{fill:#958d7f}.cst3{fill:#8f7c5c}</style><g id="cXMLID_16_"><path id="cXMLID_138_" class="cst0" d="M-159.4 339.6h75.7v54.1h-75.7z"/><g class="cst1"><path class="cst2" d="M-158.5 354.5v-1.3c.2 0 .4 0 .6-.1.2 0 .3-.1.4-.2.1-.1.2-.3.3-.5.1-.2.1-.5.1-.9v-7.6-.5-.5-.4-.3l-1.5.1v-1.5h5.7v1.3c-.2 0-.4 0-.6.1s-.3.1-.4.2c-.1.1-.2.3-.3.5-.1.2-.1.5-.1.9v9.3h2.6c.8 0 1.4-.3 1.8-.8.4-.5.7-1.3.7-2.4h1.3l-.1 4.7h-10.5zM-142.8 351.3v1.7l1.3-.1v1.5h-5.2v-1.3c.3 0 .5 0 .6-.1.2-.1.3-.2.4-.4s.1-.3.1-.6v-4-.8c0-.3 0-.6.1-.9l-1.4.1V345c.5 0 .9 0 1.2-.1s.6-.1.9-.1.4-.1.6-.2c.2-.1.3-.1.3-.2h1.1v6.9zm.3-10.2c0 .2 0 .4-.1.6s-.2.4-.3.5-.3.3-.5.3c-.2.1-.4.1-.6.1-.2 0-.4 0-.6-.1-.2-.1-.4-.2-.5-.3s-.2-.3-.3-.5c-.1-.2-.1-.4-.1-.6s0-.4.1-.6.2-.4.3-.5c.1-.1.3-.3.5-.3.2-.1.4-.1.6-.1.2 0 .4 0 .6.1.2.1.3.2.5.3s.2.3.3.5c.1.1.1.3.1.6zM-136.3 346.2v6.9l1.4-.1v1.5h-5.3v-1.3c.3 0 .5 0 .6-.1s.3-.2.4-.4.1-.3.1-.6v-5.9h-1.4v-1.6h1.4v-.6c0-.8.1-1.5.3-2 .2-.6.4-1 .8-1.4s.7-.6 1.2-.8c.5-.2 1-.2 1.6-.2.5 0 .9.1 1.2.2.3.1.6.2.8.4.2.2.3.4.4.6.1.2.1.4.1.6 0 .2 0 .3-.1.5s-.1.3-.2.4c-.1.1-.2.2-.4.3-.2.1-.3.1-.6.1-.4 0-.6-.1-.9-.3s-.3-.5-.3-.8v-.4c-.1-.1-.1-.1-.2-.1h-.2c-.2 0-.3 0-.4.1s-.2.2-.2.3-.1.2-.1.4v2.8h2.2v1.5h-2.2zM-124 349.2l-6.5.1c0 .5 0 1 .1 1.5s.3.9.5 1.2c.2.3.5.6.9.8.4.2.8.3 1.3.3.2 0 .4 0 .7-.1.2-.1.5-.1.7-.3.3-.1.5-.3.8-.5.3-.2.5-.4.7-.7l.9.8c-.4.5-.7.9-1.1 1.2-.4.3-.8.6-1.2.7-.4.2-.8.3-1.2.4-.4.1-.7.1-1.1.1-.7 0-1.4-.1-2-.4-.6-.2-1.1-.6-1.5-1s-.8-1-1-1.6c-.2-.6-.4-1.4-.4-2.2 0-.7.1-1.4.4-2s.6-1.2 1-1.7.9-.9 1.6-1.2c.6-.3 1.3-.4 2-.4.4 0 .7 0 1.1.1.4.1.7.2 1 .3.3.2.6.3.9.6.3.2.5.5.7.9s.4.8.5 1.3c.2.6.2 1.1.2 1.8zm-4.3-3.5c-.3 0-.5.1-.8.2-.2.1-.4.3-.6.5-.2.2-.3.4-.4.7s-.2.6-.2.9h3.6c0-.4-.1-.7-.1-1s-.2-.5-.3-.7c-.1-.2-.3-.3-.5-.4-.3-.2-.5-.2-.7-.2z"/></g><g class="cst1"><path class="cst2" d="M-153.4 371.7c.4 0 .7 0 1-.1.3-.1.5-.2.8-.4.2-.2.4-.4.5-.6.1-.2.2-.5.2-.7 0-.3-.1-.6-.3-.9-.2-.2-.4-.5-.7-.7-.3-.2-.6-.4-1-.5-.4-.2-.7-.3-1.1-.4-.6-.3-1.2-.5-1.8-.8-.5-.3-1-.6-1.4-1-.4-.4-.7-.8-.9-1.3-.2-.5-.3-1.1-.3-1.7 0-.3 0-.5.1-.8l.3-.9c.1-.3.3-.5.6-.8.2-.2.5-.5.9-.7.3-.2.7-.3 1.2-.4.5-.1 1-.2 1.6-.2.3 0 .5 0 .8.1.3 0 .6.1.9.2l.9.3s.5.3.7.4l-.1-.8h1.5v4.6h-1.3c-.2-1.1-.6-2-1.1-2.5-.6-.5-1.3-.8-2.3-.8-.3 0-.6 0-.8.1s-.5.2-.7.4c-.2.2-.4.3-.5.5-.1.2-.2.4-.2.7 0 .3.1.6.2.8.1.2.3.5.6.7.3.2.6.4 1 .6s.9.4 1.4.6c.3.1.7.3 1 .4.4.2.7.3 1 .5s.6.4.9.7c.3.2.6.5.8.8s.4.6.5 1 .2.7.2 1.2c0 .6-.1 1.1-.4 1.6s-.6.9-1 1.3c-.4.3-1 .6-1.6.8-.6.2-1.3.3-2.1.3-.3 0-.5 0-.8-.1s-.6-.1-.9-.2l-.9-.3c-.3-.1-.6-.3-.8-.4l.1.8h-1.5v-4.6h1.3c.1.6.2 1 .5 1.4.2.4.5.8.8 1 .3.3.7.5 1.1.6.2.1.7.2 1.1.2zM-140.8 365.5c0-.1 0-.3.1-.4s.1-.3.2-.4l-.3-.3s-.2-.2-.4-.2-.2-.1-.4-.1h-.3c-.3 0-.6.1-.9.2-.3.2-.5.4-.7.7-.2.3-.4.7-.5 1.1s-.2.9-.2 1.5c0 .5 0 1 .1 1.4s.2.9.5 1.2c.2.4.5.6.8.8.3.2.8.3 1.3.3.3 0 .5 0 .8-.1.3-.1.5-.2.8-.3s.5-.3.7-.5l.6-.6.9.9c-.4.5-.7.9-1.1 1.2-.4.3-.8.6-1.1.7s-.8.3-1.1.4c-.4.1-.7.1-1.1.1-.7 0-1.3-.1-1.9-.3-.6-.2-1.1-.6-1.5-1-.4-.4-.8-1-1-1.6-.3-.6-.4-1.3-.4-2.1 0-.7.1-1.4.4-2.1.2-.7.6-1.2 1-1.7s1-.9 1.6-1.2c.6-.3 1.3-.4 2.1-.4.6 0 1.2.1 1.6.2.5.2.9.4 1.2.6s.6.5.7.9c.2.3.2.7.2 1 0 .2 0 .4-.1.6-.1.2-.2.3-.3.5-.1.1-.3.2-.4.3-.2.1-.4.1-.6.1-.2 0-.4 0-.6-.1-.2-.1-.3-.2-.4-.3s-.2-.3-.2-.4-.1-.5-.1-.6zM-132.7 369.6v1.7l1.3-.1v1.5h-5.2v-1.3c.3 0 .5 0 .6-.1s.3-.2.4-.4c.1-.2.1-.3.1-.6v-4-.8c0-.3 0-.6.1-.9l-1.4.1v-1.5c.5 0 .9 0 1.2-.1s.6-.1.9-.1c.2-.1.4-.1.6-.2.2-.1.3-.1.3-.2h1.1v7zm.3-10.2c0 .2 0 .4-.1.6s-.2.4-.3.5-.3.3-.5.3c-.2.1-.4.1-.6.1-.2 0-.4 0-.6-.1-.2-.1-.4-.2-.5-.3s-.2-.3-.3-.5c-.1-.2-.1-.4-.1-.6s0-.4.1-.6c.1-.2.2-.4.3-.5.1-.1.3-.3.5-.3.2-.1.4-.1.6-.1.2 0 .4 0 .6.1.2.1.3.2.5.3s.2.3.3.5c0 .1.1.3.1.6zM-121.1 367.5l-6.5.1c0 .5 0 1 .1 1.5s.3.9.5 1.2c.2.3.5.6.9.8.4.2.8.3 1.3.3.2 0 .4 0 .7-.1.2-.1.5-.1.7-.3.3-.1.5-.3.8-.5.3-.2.5-.4.7-.7l.9.8c-.4.5-.7.9-1.1 1.2-.4.3-.8.6-1.2.7-.4.2-.8.3-1.2.4-.4.1-.7.1-1.1.1-.7 0-1.4-.1-2-.4-.6-.2-1.1-.6-1.5-1s-.8-1-1-1.6c-.2-.6-.4-1.4-.4-2.2 0-.7.1-1.4.4-2s.6-1.2 1-1.7.9-.9 1.6-1.2c.6-.3 1.3-.4 2-.4.4 0 .7 0 1.1.1.4.1.7.2 1 .3.3.2.6.3.9.6.3.2.5.5.7.9s.4.8.5 1.3c.2.6.2 1.1.2 1.8zm-4.3-3.5c-.3 0-.5.1-.8.2-.2.1-.4.3-.6.5-.2.2-.3.4-.4.7s-.2.6-.2.9h3.6c0-.4-.1-.7-.1-1s-.2-.5-.3-.7c-.1-.2-.3-.3-.5-.4-.3-.2-.5-.2-.7-.2zM-109.5 369.6v1.7l1.3-.1v1.5h-5.2v-1.3c.3 0 .5 0 .6-.1.2-.1.3-.2.4-.4.1-.2.1-.3.1-.6v-3.5c0-.9-.1-1.5-.4-1.9-.3-.4-.7-.6-1.2-.6-.3 0-.7.1-1 .2-.3.1-.6.3-.8.5v6.2l1.3-.1v1.5h-5.2v-1.3c.3 0 .5 0 .6-.1s.3-.2.4-.4c.1-.2.1-.3.1-.6v-4-.8c0-.3 0-.6.1-.9l-1.4.1v-1.5c.5 0 .9 0 1.2-.1s.6-.1.9-.1c.2-.1.4-.1.6-.2.2-.1.3-.1.3-.2h1l.1 1c.2-.1.4-.3.7-.4.2-.1.5-.3.8-.4.3-.1.5-.2.8-.2s.5-.1.7-.1c.6 0 1.1.1 1.5.3.4.2.8.4 1 .8.3.4.5.8.6 1.4s.2 1.2.2 2v2.7zM-101 365.5c0-.1 0-.3.1-.4s.1-.3.2-.4l-.3-.3s-.2-.2-.4-.2-.2-.1-.4-.1h-.3c-.3 0-.6.1-.9.2-.3.2-.5.4-.7.7-.2.3-.4.7-.5 1.1s-.2.9-.2 1.5c0 .5 0 1 .1 1.4.1.5.2.9.5 1.2.2.4.5.6.8.8.3.2.8.3 1.3.3.3 0 .5 0 .8-.1.3-.1.5-.2.8-.3s.5-.3.7-.5l.6-.6.9.9c-.4.5-.7.9-1.1 1.2-.4.3-.8.6-1.1.7s-.8.3-1.1.4c-.4.1-.7.1-1.1.1-.7 0-1.3-.1-1.9-.3-.6-.2-1.1-.6-1.5-1s-.8-1-1-1.6c-.3-.6-.4-1.3-.4-2.1 0-.7.1-1.4.4-2.1.2-.7.6-1.2 1-1.7s1-.9 1.6-1.2 1.3-.4 2.1-.4c.6 0 1.2.1 1.6.2.5.2.9.4 1.2.6s.6.5.7.9c.2.3.2.7.2 1 0 .2 0 .4-.1.6-.1.2-.2.3-.3.5-.1.1-.3.2-.4.3-.2.1-.4.1-.6.1-.2 0-.4 0-.6-.1-.2-.1-.3-.2-.4-.3s-.2-.3-.2-.4-.1-.5-.1-.6zM-87.7 367.5l-6.5.1c0 .5 0 1 .1 1.5s.3.9.5 1.2c.2.3.5.6.9.8.4.2.8.3 1.3.3.2 0 .4 0 .7-.1.2-.1.5-.1.7-.3.3-.1.5-.3.8-.5.3-.2.5-.4.7-.7l.9.8c-.4.5-.7.9-1.1 1.2-.4.3-.8.6-1.2.7-.4.2-.8.3-1.2.4-.4.1-.7.1-1.1.1-.7 0-1.4-.1-2-.4-.6-.2-1.1-.6-1.5-1s-.8-1-1-1.6c-.2-.6-.4-1.4-.4-2.2 0-.7.1-1.4.4-2s.6-1.2 1-1.7.9-.9 1.6-1.2c.6-.3 1.3-.4 2-.4.4 0 .7 0 1.1.1.4.1.7.2 1 .3.3.2.6.3.9.6.3.2.5.5.7.9s.4.8.5 1.3c.1.6.2 1.1.2 1.8zm-4.4-3.5c-.3 0-.5.1-.8.2-.2.1-.4.3-.6.5-.2.2-.3.4-.4.7s-.2.6-.2.9h3.6c0-.4-.1-.7-.1-1s-.2-.5-.3-.7c-.1-.2-.3-.3-.5-.4-.2-.2-.4-.2-.7-.2z"/></g><g class="cst1"><path class="cst2" d="M-154.2 384.6v4.9h2.6c.3 0 .6 0 .9-.1.3-.1.5-.3.8-.5.2-.2.4-.5.5-.9.1-.4.2-.8.2-1.3h1.3l-.1 4.3h-10.4v-1.3c.2 0 .4 0 .6-.1.2 0 .3-.1.4-.2.1-.1.2-.3.3-.5.1-.2.1-.5.1-.9v-7.6-.5-.5-.4-.3l-1.5.1v-1.5h9.9l.1 3.8h-1.3c0-.5-.1-1-.2-1.3-.2-.3-.3-.6-.6-.8s-.5-.3-.8-.4-.6-.1-.8-.1h-.7c-.2 0-.4 0-.6.1s-.3.1-.4.2-.2.3-.3.5c-.1.2-.1.5-.1.9v3h2.3l-.1-1.7h1.5v4.8h-1.3c0-.4-.1-.7-.2-1s-.2-.4-.4-.5c-.2-.1-.4-.2-.6-.2h-1.1zM-137.2 376.2v13.4l1.3-.1v1.5h-3.7l-.1-.9c-.4.5-.9.8-1.4 1-.5.2-.9.3-1.4.3-.6 0-1.1-.1-1.6-.4-.5-.2-.9-.6-1.3-1-.3-.4-.6-1-.8-1.6s-.3-1.3-.3-2.1.1-1.5.4-2.2c.2-.7.6-1.2 1-1.7s.9-.9 1.5-1.1c.6-.3 1.3-.4 2-.4.4 0 .7 0 1 .1s.5.2.8.2V380v-.3-.4-.5-.5l-1.4.1v-1.5c.5 0 .9 0 1.2-.1.3 0 .6-.1.9-.1s.4-.1.6-.2c.2-.1.3-.1.3-.2h1zm-4.4 13.4c.3 0 .6-.1.9-.3.3-.2.5-.4.7-.7v-5.9c-.1-.1-.3-.2-.6-.3s-.5-.1-.8-.1c-.5 0-.8.1-1.1.3-.3.2-.5.5-.7.8-.2.3-.3.7-.4 1.2-.1.4-.1.9-.1 1.4 0 .4 0 .8.1 1.3s.2.8.4 1.1c.2.3.4.6.7.8.2.3.5.4.9.4zM-130.8 387.9v1.7l1.3-.1v1.5h-5.2v-1.3c.3 0 .5 0 .6-.1s.3-.2.4-.4c.1-.2.1-.3.1-.6v-4-.8c0-.3 0-.6.1-.9l-1.4.1v-1.5c.5 0 .9 0 1.2-.1s.6-.1.9-.1c.2-.1.4-.1.6-.2.2-.1.3-.1.3-.2h1.1v7zm.3-10.2c0 .2 0 .4-.1.6s-.2.4-.3.5-.3.3-.5.3c-.2.1-.4.1-.6.1-.2 0-.4 0-.6-.1-.2-.1-.4-.2-.5-.3s-.2-.3-.3-.5c-.1-.2-.1-.4-.1-.6s0-.4.1-.6c.1-.2.2-.4.3-.5.1-.1.3-.3.5-.3.2-.1.4-.1.6-.1.2 0 .4 0 .6.1.2.1.3.2.5.3s.2.3.3.5c.1.1.1.4.1.6zM-128.8 381.2c.3 0 .7-.1 1-.3s.6-.4.8-.6c.2-.2.4-.5.6-.8.2-.3.3-.6.4-.8h1.5v2.5h2.5v1.5h-2.5v5.6c0 .2.1.4.2.6.1.2.2.3.4.4s.4.2.6.2h.3s.3-.1.4-.2c.2-.1.3-.2.5-.4s.4-.4.5-.6l1 .9c-.4.5-.7.9-1.1 1.2s-.7.5-1 .6-.6.2-.9.2h-.7c-.2 0-.4 0-.7-.1s-.5-.1-.7-.2-.4-.2-.6-.4c-.2-.2-.4-.4-.5-.7s-.3-.6-.4-1-.1-.9-.1-1.4v-4.8h-1.3v-1.4zM-115.4 380.9c.7 0 1.4.1 2 .3.6.2 1.1.6 1.6 1 .4.4.8 1 1 1.6.3.6.4 1.3.4 2.1s-.1 1.6-.4 2.2-.6 1.2-1 1.7-1 .8-1.6 1.1c-.6.3-1.3.4-2 .4s-1.4-.1-2-.4-1.1-.6-1.6-1c-.4-.4-.8-1-1.1-1.6-.3-.6-.4-1.3-.4-2.1s.1-1.6.4-2.2c.3-.7.6-1.2 1.1-1.7.5-.5 1-.8 1.6-1.1.7-.2 1.3-.3 2-.3zm-.1 1.4c-.4 0-.7.1-1 .3-.3.2-.5.5-.6.8-.2.3-.3.7-.3 1.1-.1.4-.1.8-.1 1.3s0 1 .1 1.5.2.9.4 1.3.4.7.7 1 .6.4 1 .4.7-.1 1-.3.4-.5.6-.8c.1-.3.2-.7.3-1.1.1-.4.1-.8.1-1.3s0-1-.1-1.5-.2-.9-.3-1.3c-.2-.4-.4-.7-.6-1-.4-.3-.8-.4-1.2-.4zM-102.2 380.9c.2 0 .5 0 .7.1.2.1.4.2.5.3.2.1.3.3.4.5.1.2.1.5.1.7 0 .2 0 .3-.1.5s-.1.3-.2.4c-.1.1-.3.2-.4.3-.2.1-.4.1-.6.1-.1 0-.3 0-.4-.1-.1 0-.3-.1-.4-.2-.1-.1-.2-.2-.3-.4s-.1-.3-.2-.6c-.2 0-.4.1-.6.2-.2.1-.4.3-.6.5-.2.2-.3.4-.5.6s-.2.4-.3.6v4.9l1.3-.1v1.5h-5.2v-1.3c.3 0 .5 0 .6-.1s.3-.2.4-.4c.1-.2.1-.3.1-.6v-4-.8c0-.3 0-.6.1-.9l-1.4.1v-1.5c.5 0 .9 0 1.2-.1s.6-.1.9-.1c.2-.1.4-.1.6-.2.2-.1.3-.1.3-.2h1l.1 1.7c.1-.2.3-.4.5-.6l.6-.6c.2-.2.5-.3.8-.5.3.4.6.3 1 .3zM-98.3 387.8c0 .3.1.6.3.8.2.3.4.5.7.7.3.2.6.3.9.5s.8.2 1.2.2c.2 0 .3 0 .5-.1.2 0 .3-.1.4-.2l.3-.3c.1-.1.1-.3.1-.4 0-.2 0-.3-.1-.5-.1-.1-.2-.3-.4-.4s-.4-.2-.7-.3-.6-.2-1-.4-.8-.3-1.2-.5-.8-.4-1.1-.6c-.3-.2-.6-.5-.8-.9-.2-.4-.3-.8-.3-1.3 0-.4.1-.8.2-1.1s.4-.7.7-1c.3-.3.7-.5 1.2-.7.5-.2 1-.3 1.7-.3h.6c.2 0 .4.1.6.1.2.1.4.1.6.2.2.1.4.2.5.3v-.6h1.5v3.5h-1.3l-.3-.9s-.4-.5-.6-.7c-.2-.2-.5-.3-.8-.4-.3-.1-.6-.2-1-.2-.2 0-.3 0-.5.1s-.3.1-.4.2l-.3.3c-.1.1-.1.3-.1.5s.1.4.2.6c.1.2.3.3.5.4.2.1.5.2.8.3l.9.3c.5.2 1 .4 1.4.6.4.2.8.4 1.1.7.3.3.6.6.7.9.2.3.3.8.3 1.2 0 .5-.1 1-.3 1.3-.2.4-.5.7-.8.9-.3.3-.7.4-1.1.6s-.9.2-1.3.2c-.3 0-.6 0-.8-.1s-.6-.1-.8-.2c-.3-.1-.5-.1-.7-.2l-.6-.3.1.6h-1.5l-.1-3.4h.9z"/></g><path id="cXMLID_41_" class="cst3" d="M-130.8 326.7c-.9-.4-1.8-1-2.7-1.6.6-.5 1.2-1.1 1.8-1.6.3-.3.9-.4.4-1.1s-.9-.4-1.2.1c-1.4 1.8-3.1 1.9-5.1 1.3-.4-.1-.7-.3-1.1-.3-1.3 0-1-.5-.6-1.3 1.1-1.9 2.2-3.8 4.1-5 .4-.3.6-.5.2-1-.4-.4-.6-.4-1.1-.1-.7.5-1.2 1.3-2.1 1.6-.2-.5-.3-1-.5-1.5-.2-.4-.1-1.1-1-.8-.8.3-.4.9-.3 1.2.8 1.5.6 2.8-.4 4.1-.4.5-.7 1.1-1 1.7-.2.4-.4.6-.8.6-1.9.4-4 .7-5.9 1.1-.3.1-.8.2-.6-.4.4-2.1.4-4.3 1.3-6.3 1.1-2.4 2.4-4.8 4.8-6.3.4-.3.6-.5.2-1.1-.4-.4-.6-.3-1 0-.6.5-1.3 1.1-2 1.7-.3-.6-.4-1.1-.6-1.6-.2-.4-.1-1.1-1-.8-.9.3-.3.8-.2 1.2.2.9 1 1.7.4 2.7-.6 1-1.2 2-1.8 3.2-1.6-1.6-3-3.2-3.5-5.4-.1-.5-.4-.8-.9-.6-.3.1-.6.1-.4.5.1.3.2.5.3.8.5 1.6.5 1.6-1.1 1.8-.4 0-.7 0-.7.5s.3.7.7.6c2-.5 3 1 4.1 2.3.4.6.8 1.1.6 1.8-.4 1.7-.6 3.3-.9 4.9-.1.4-.3.7-.6.9-2.6 1.5-5.3 3.1-8.1 4.7-.4-1.9-.5-3.8-1.1-5.5-1-3.5-.1-6.9.9-10.1.8-2.6 2.4-5 4.8-6.6.4-.3.8-.4.3-1.1-.4-.5-.7-.4-1.1 0-.6.5-1.3 1.1-2 1.6-.3-.6-.4-1.1-.6-1.6-.2-.4-.2-1.1-1-.8-.9.4-.3.9-.2 1.2.1.8 1 1.6.4 2.5-.6 1.1-1.3 2.2-2 3.4-1.5-1.6-2.9-3.2-3.4-5.3-.1-.4-.2-1-.9-.7-.9.3-.4.8-.3 1.2.2.5.5 1.1.4 1.8-.4 0-.6 0-1 .1s-1.1-.4-1.2.4c0 1 .8.5 1.2.6.9.1 1.6.1 2.4.8 1.6 1.6 2.1 3.3 1.5 5.4-.4 1-.4 2-.6 3.1-2.8-1.4-5.4-2.9-7.2-5.5-.7-1.1-1.1-2.1-1.5-3.3-.2-.4-.4-.6-.9-.4-.4.2-.5.4-.4.9.3.7.6 1.3.6 2.1h-1.1c-.4.1-1-.4-1.1.5-.1.9.6.5 1.1.6.7.1 1.5-.4 2.1.4.7.8 1.3 1.7 2.1 2.6-1.8.7-3.3 1.5-5.2 1.2-.4 0-.9-.3-.9.5 0 .6.4.7.8.6 1.1-.1 1.8 0 1.1 1.4-.2.4-.1.5.4.7s.6 0 .6-.4c.3-1.8 1.6-2.2 3-2.6 1.1-.4 5.6 1.8 6.1 2.9 0 .1.1.2.1.3.4 2.5.8 4.9 1.3 7.4.1.5 0 .8-.4 1.1-2.7 3.2-5.4 6.4-8.2 9.8-1.6-2.6-3-5.3-4.5-7.8-1-1.5-1.8-3-1.8-4.8 0-.5-.2-1-.3-1.5-.4-1.9-1.1-4-.9-5.9.4-3.6.9-7.3 3.2-10.4.9-1.1 1.9-2 2.9-2.9.4-.3.8-.5.3-1.1-.4-.5-.7-.4-1.1 0-.4.4-.9.7-1.3 1.1-.4.4-.9.6-1-.3 0-.3-.2-.5-.3-.8-.3-.4-.1-1.1-1-.8-.8.4-.4.9-.2 1.2.9 1.4.5 2.7-.4 4-.4.4-.5.9-.8 1.3-.4.7-.5.5-1 .1-1.2-1.5-2.5-2.9-2.9-4.8-.1-.4-.3-.8-.9-.5-.6.2-.5.5-.4 1 .3.6.4 1.2.7 1.9h-1.7c-.5 0-.6.2-.6.7 0 .4.2.6.6.5h1c1.1 0 3.9 2.3 3.8 3.3-.2 1.9-.6 3.9-1 5.9-3.9-1.8-7.2-4.1-8.5-8.3-.2-.4-.2-1.2-1.1-.9-.9.4-.3 1-.1 1.4.5 1.3.5 1.3-1.1 1.4-.4 0-.8-.1-.8.5s.4.7.8.6c2.5-.4 3.2 1.5 4.4 3-1.8.7-3.5 1.5-5.4 1.2-.4-.1-.7 0-.7.6 0 .5.4.5.8.5.5 0 1.1-.2 1.7.1-.2.4-.3.7-.4 1.1-.2.4-.2.7.4.9.4.2.6-.1.7-.4.3-2 1.9-2.1 3.3-2.6.9-.4 5.4 2.2 5.6 3v.4c.4 2.2.8 4.5 1.2 6.7.2.8-.2.8-.7.7-3.3-.7-6.9-1-9.9-3-2.7-1.8-4.8-3.9-5.9-7-.1-.4-.1-.9-.5-.9-.6-.1-.4-.2-.3-.6.7-1.5 2-2.4 3.3-3.4.4-.4.5-.6.2-1.1-.4-.5-.7-.3-1.1 0-.7.5-1.2 1.2-2 1.6-.2-.5-.4-1.1-.6-1.6-.2-.4 0-1-.9-.7-.9.3-.4.7-.4 1.1.2.9 1.1 1.6.5 2.6-.6 1.1-1.3 2.3-2 3.4-1.6-1.7-3-3.3-3.5-5.5-.1-.5-.3-.7-.9-.5-.5.2-.4.4-.4.9.2.4.3.8.4 1.1.4.6.2 1-.6.9h-.9c-.4 0-.6.2-.6.7 0 .4.3.5.6.5h.4c1.7.1 3.8 1.6 4.3 3.1.1.2.1.4 0 .7-.3 1.8-.6 3.6-1 5.5-2.5-1.4-4.9-2.5-6.6-4.8-.9-1.2-1.7-2.6-2.1-4.1-.1-.4-.2-.7-.8-.4-.5.2-.7.4-.4.9.1.2.1.4.2.5.5 1.1.7 1.8-1 1.6-.4-.1-.9-.1-.9.6 0 .5.4.6.8.5 2.1-.4 2.9 1.1 4 2.4.4.5.3.7-.4.9-1.4.6-2.8 1-4.3.8-.4 0-1-.2-1 .6s.5.6 1 .6h.3c.8-.1 1.3 0 .8 1.1-.2.3-.4.8.2 1 .6.3.7-.3.8-.6.3-1 .8-1.5 1.8-1.9 1.6-.7 2.9-.6 4.2.4.6.5 1.4.9 2.1 1.3.4.2.8.4.8.9.4 2.5.8 4.8 1.2 7.3.1.4 0 .6-.4.5-2.3-.4-4.8-.4-6.8-1.3-2.6-1.1-5.3-2.5-7.1-4.9-.9-1.2-1.7-2.5-2.1-3.9-.2-.4-.3-.9-1-.6-.8.3-.3.7-.2 1.1.2.6.5 1.1.5 1.8h-1.3s-1-.2-1 .6c0 .7.5.4.9.5.7.2 1.6-.4 2.2.4.7.8 1.3 1.7 2 2.5-2.1 1.1-2.6 1.1-5.1 1.3-.4 0-.9-.2-.9.5 0 .8.5.6 1 .6h1.3c.1.5-.2.9-.3 1.3-.2.4 0 .6.4.8.5.3.5-.3.6-.4.2-.3.3-.6.4-.9.4-.9 3.2-2.1 4.1-1.7 1.4.7 2.7 1.6 4.1 2.4-2.6 2.6-5.5 4.7-9.3 4.5-.4 0-.9-.2-.9.5 0 .8.5.6 1 .6 1.2-.2 1.7.2 1.1 1.4-.3.5 0 .6.4.8.5.3.6-.2.6-.4.4-2.2 2.2-2.1 3.8-2.7 0 1.4.2 2.7-.4 4-.2.4-.9 1.1 0 1.4 1 .4.7-.6 1-1 .3-.4.3-.8.9-.4.3.2.6 1 1.1.3.5-.7-.3-.8-.6-1.1-.6-.6-1.1-3.3-.4-3.8 1.8-1.4 3.2-3.8 6.1-2.6 1 .4 2 .5 3 .5 1.5.1 2.4.8 3.1 2.1 1.5 2.8 3.1 5.5 4.7 8.2-1.7.4-3.2.6-4.7.9-1.8.4-3.6 1.1-5.4.8-4.1-.5-8.2-.9-11.8-3.3-2.6-1.8-4.5-3.8-5.5-6.7-.2-.4 0-1.2-1-.9-1.1.3-.4 1-.2 1.3.4 1.1.7 1.9-1.1 1.7-.4-.1-.7 0-.8.5 0 .5.3.7.7.6 2.1-.4 3 1.1 4.1 2.5.4.4.3.6-.2.8-1.4.4-2.6 1.1-4.1 1-.4 0-1.2-.4-1.2.6 0 .9.8.5 1.1.5 1.1-.1 1.2.4.8 1.2.1.1.1.4.6.5.4.1.5-.1.7-.4.1-.4.3-.7.4-1.1.4-.9 3.3-2 4.1-1.6 1.3.7 2.6 1.6 4.1 2.4-2.6 2.7-5.5 4.7-9.3 4.5-.4 0-.9 0-.9.6s.5.5.9.5c1.1-.1 1.8 0 1.1 1.3-.2.3-.4.6.2.8.4.1.7.1.8-.4 0-.3.2-.4.3-.6.3-.8 2.3-2 3.1-1.9.5.1.4.4.4.7.1 1.2 0 2.4-.5 3.5-.2.4-.4.8.2 1.1.6.3.7-.2.8-.6.1-.4.3-.7.4-1.1.2.1.4.3.6.4.4.2.5.8 1.1.3.5-.6-.2-.8-.4-1.1-.3-.3-.7-.4-.8-1 0-1.5-.3-3.1 1.4-4.1.7-.4 1.2-1 1.8-1.5.4-.3.7-.4 1.1-.4 2.1.4 4.2.8 6.5 1.2-.6 1.1-1.1 2-1.7 3-1.8 3.5-4.7 5.9-8.5 7.1-.9.3-1.8.3-2.7.4-.4 0-1-.3-1.1.5 0 1 .6.5 1.1.6s.8 0 1.3 0c-.2.5-.3 1-.4 1.4-.2.4.2.5.4.7.4.2.5-.2.5-.4.3-2.2 2.2-2.2 3.7-2.8.2 2.2.2 2.5-.4 4.3-.1.4-.7.8.1 1.1.8.4.6-.4.9-.7.2-.3.1-.8.5-1 .2.2.4.4.6.5.3.2.4.4.8.1.4-.4.2-.6-.2-.9-.3-.2-.4-.4-.6-.5-.6-.6-.7-3.2 0-3.8 1-.9 2-1.7 3.1-2.6 1.4 2.9 2.2 5.8.8 8.9-.2.4-.3.6.2.8.4.2.6 0 .8-.4.2-.4.1-1 .6-1.1.3.2.4.4.6.5.3.3.5.3.8-.1.2-.3.2-.5-.2-.7-1.5-.8-1.1-2.2-1.1-3.6 1 .4 1.9.5 2.7 1.1.4.4.9 1.3 1.5.7.8-.9-.7-.9-.8-1.5l.2-.2c.2-.4 1.1-.3.7-1-.4-.7-.8-.1-1.1.1-1.1.5-3-.3-3.4-1.3-1.2-3.1-1.2-3.1.4-6 .4-.7.9-1.4 1.2-2.2.3-.5.6-.8 1.2-.9 2.9-.4 5.8-1.1 8.6-1.6.6-.1 1 .2 1.3.5 3.5 3 7.1 6 10.7 9 .6.5.9 1.1.9 1.8l.4 26.1h5.3v-.4c0-8.7.1-17.3-.1-26.1 0-1.6.3-2.9.8-4.2 1.8-4.9 3.6-9.8 5.3-14.7.4-1.3 1.1-2.3 1.9-3.3 1.6-1.8 3.2-3.7 4.7-5.6 2.3-3 4.9-5.5 8.4-7.1 2.7-1.3 5.2-3.3 8.4-3.5 1.7-.1 3.3-.9 4.9-.7 3.2.4 6.4.6 9.1 2.7.4.3.7.6 1.1-.1.6.9.5.5-.1.3zm-66-6.7c.4 1 .6 1.7.9 2.4-.7.2-1.3.2-1.9 0 0-.8.7-1.4 1-2.4zm-1.6 5.3c.1-.6-.1-1.6.6-1.7 1-.1 2.1-.4 2.9.7.5.8 1.1 1.4 1.8 2.2-1.9.8-3.7 1.6-5.8 1.1.2-.7.4-1.5.5-2.3zm-.6 4.8c-.3-1.1.1-1.3 1.1-1.1h1.1c.1.5-.2 1-.4 1.3-.2.4 0 .6.4.8.4.2.6.1.7-.4.3-2.2 2.3-2.1 3.7-2.8.4-.2.6 0 .9.2 1.3.8 2.6 1.6 4 2.3-2.8 3.1-6.1 4.9-10.5 4.4-.3-1.3-.5-3-1-4.7zm26.2 13.8c-1.8 5-3.7 10-5.5 15.1-.4.9-.6 1-1.3.4-3-2.6-5.9-5.3-9.2-7.6-2.6-1.8-3.6-4.6-5.2-7-1.1-1.8-2.2-3.7-3.3-5.5-.5-.8-.4-1.8-.6-2.7-.1-.4.2-.4.5-.4h1.8c.3.8-1.1 1.7-.1 2 1.1.4.8-1 1.1-1.4.3-.4 2.6-1.6 3-1.5.4.1.3.4.3.6 0 1.2.1 2.4-.4 3.5-.2.3-.6.9.2 1.1.7.3.7-.4.9-.8.2-.3.3-.6.4-1 .3.2.5.4.7.5.3.3.5.5.9 0s-.1-.6-.3-.9c-1.5-1.4-1.2-3.3.1-4.9 2-2.5 4.4-1.8 7-1.5 2.6.3 4.1 1.4 5.1 3.7s2.5 4.4 3.7 6.5c.4.7.4 1.1.2 1.8z"/></g></svg></svg>