<?xml version="1.0" encoding="UTF-8"?>
<svg xmlns="http://www.w3.org/2000/svg" id="logo" viewBox="0 0 322.86 231.37" width="322.86" height="231.37"><defs><style> .cls-1 { fill: #293682; } </style></defs><g><path class="cls-1" d="M47.21,121.73h-10.04l9.62-54.71h18.34c10.94,0,17.44,3.95,17.44,12.83,0,10.04-6.42,14.89-12.59,16.78,2.14,.9,2.96,2.3,3.87,5.51l5.51,19.58h-10.78l-4.61-17.52c-.82-2.72-1.89-4.28-4.77-4.28h-8.14l-3.87,21.8Zm13.33-29.12c6.91,0,11.6-4.11,11.6-11.27,0-5.43-4.03-6.34-10.86-6.34h-5.84l-3.13,17.6h8.23Z"/><path class="cls-1" d="M120.84,88.74c0,14.4-17.28,16.12-26.08,16.21-.41,5.27,1.48,10.45,8.47,10.45,4.77,0,8.39-2.22,10.61-3.62l2.96,6.42c-2.06,1.56-7.81,4.77-15.96,4.77-11.27,0-15.96-6.99-15.96-16.54,0-14.23,9.13-27.31,24.1-27.31,7.49,0,11.85,3.87,11.85,9.63Zm-13.33-2.55c-6.83,0-10.61,6.66-11.85,12.09,4.77,.08,16.21-1.15,16.21-8.23,0-2.55-1.81-3.87-4.36-3.87Z"/><path class="cls-1" d="M166.68,121.73l7.32-41.38h9.87l-7.32,41.38h-9.87Z"/><path class="cls-1" d="M223.53,88.74c0,14.4-17.28,16.12-26.08,16.21-.41,5.27,1.48,10.45,8.47,10.45,4.77,0,8.39-2.22,10.61-3.62l2.96,6.42c-2.06,1.56-7.81,4.77-15.96,4.77-11.27,0-15.96-6.99-15.96-16.54,0-14.23,9.13-27.31,24.1-27.31,7.49,0,11.85,3.87,11.85,9.63Zm-13.33-2.55c-6.83,0-10.61,6.66-11.85,12.09,4.77,.08,16.21-1.15,16.21-8.23,0-2.55-1.81-3.87-4.36-3.87Z"/><path class="cls-1" d="M285.64,80.35c.25,2.39,.58,6.58,.58,9.62,0,18.92-6.99,32.91-22.54,32.91-6.17,0-9.54-2.8-10.36-6.91-3.95,5.1-9.05,6.91-14.31,6.91-7.57,0-11.77-3.37-11.85-10.28,0-1.23,.16-2.63,.41-4.03l4.94-28.22h9.79l-4.53,26c-.33,1.56-.58,3.13-.58,4.52,.08,2.63,1.07,4.44,4.61,4.44,4.52,0,8.14-3.7,8.88-7.9l4.69-27.07h9.79l-4.69,26c-.25,1.4-.49,3.13-.49,4.36,0,2.63,.9,4.61,4.44,4.61,7.9,0,12.09-11.85,12.09-25.09,0-3.21-.25-7.49-.49-9.87h9.62Z"/></g><g><path class="cls-1" d="M100.62,157.21l2.83,3.59c-2.96,2.78-6.24,4.08-10.14,4.08-8.12,0-13.28-5.07-13.28-15.3,0-11.71,7.18-15.62,13.55-15.62,3.5,0,7.41,1.39,10.23,5.56l-3.91,2.83c-1.88-2.38-3.9-3.77-6.6-3.77-4.62,0-7.68,3.86-7.68,10.64s2.51,11.13,7.99,11.13c2.51,0,4.76-1.12,7-3.14Z"/><path class="cls-1" d="M117.44,164.89c-7.99,0-12.74-5.16-12.74-15.39,0-11.49,6.96-15.53,13.24-15.53,6.69,0,12.48,4.13,12.48,15.53,0,10.28-5.12,15.39-12.97,15.39Zm.32-4.53c5.43,0,7.09-5.34,7.09-10.73,0-4.58-1.44-11.04-7.18-11.04-5.38,0-7.36,5.34-7.36,10.68s1.3,11.08,7.45,11.08Z"/><path class="cls-1" d="M157.7,134.5h5.97l1.62,29.85h-5.21l-1.12-20.56h-.09l-6.91,17.23h-4.13l-6.73-17.05h-.09l-1.12,20.38h-5.21l1.71-29.85h6.1l7.45,19.52h.09l7.68-19.52Z"/><path class="cls-1" d="M193.69,134.5h5.97l1.62,29.85h-5.21l-1.12-20.56h-.09l-6.91,17.23h-4.13l-6.73-17.05h-.09l-1.12,20.38h-5.21l1.71-29.85h6.1l7.45,19.52h.09l7.67-19.52Z"/><path class="cls-1" d="M218.29,164.89c-7.99,0-12.74-5.16-12.74-15.39,0-11.49,6.95-15.53,13.24-15.53,6.69,0,12.48,4.13,12.48,15.53,0,10.28-5.12,15.39-12.97,15.39Zm.31-4.53c5.43,0,7.09-5.34,7.09-10.73,0-4.58-1.44-11.04-7.18-11.04-5.39,0-7.36,5.34-7.36,10.68s1.3,11.08,7.45,11.08Z"/><path class="cls-1" d="M260.02,134.5v29.85h-5.25l-12.88-21.05h-.09v21.05h-5.39v-29.85h5.52l12.56,20.73h.09v-20.73h5.43Z"/><path class="cls-1" d="M266.48,157.53c1.71,1.08,5.21,2.6,8.3,2.6,2.38,0,4.8-.76,4.8-4.13,0-2.83-2.56-3.68-5.7-4.53-4.44-1.21-8.57-2.96-8.57-8.71s4.22-8.8,10.1-8.8c4.17,0,7.94,1.84,10.28,4.22l-2.92,3.63c-2.33-1.93-4.89-3.19-7.36-3.19-2.02,0-4.4,.85-4.4,3.64s2.6,3.64,5.97,4.67c4.08,1.3,8.39,3.05,8.39,8.84s-4.22,9.11-10.68,9.11c-4.4,0-8.71-1.75-10.23-2.87l2.02-4.49Z"/></g><path class="cls-1" d="M181.29,29.85l-40.89,80.2h-.14l-4.09-30.12h-9.42l6.6,41.8h10.53s0,0,0,0l45-88.03-7.6-3.84Z"/></svg>