<?xml version="1.0" encoding="UTF-8" standalone="no"?>
<svg xmlns="http://www.w3.org/2000/svg" xmlns:xlink="http://www.w3.org/1999/xlink" xmlns:serif="http://www.serif.com/" width="100%" height="100%" viewBox="0 0 234 201" version="1.1" xml:space="preserve" style="fill-rule:evenodd;clip-rule:evenodd;stroke-linejoin:round;stroke-miterlimit:2;">
    <g transform="matrix(1,0,0,1,-129,-78.0733)">
        <g transform="matrix(-1.46207e-17,-1.19757,-0.958794,-1.46207e-17,245.956,32.4555)">
            <path d="M-121.982,-121.981C-168.313,-121.981 -205.871,-67.368 -205.871,0C-205.871,67.369 -168.313,121.982 -121.982,121.982C-75.651,121.982 -38.092,67.369 -38.092,0C-38.092,-67.368 -75.651,-121.981 -121.982,-121.981" style="fill:rgb(0,65,130);fill-rule:nonzero;"></path>
        </g>
        <g transform="matrix(-1.93809,0,0,1.55682,787.563,-42.4655)">
            <rect x="237.638" y="166.021" width="83.148" height="1.927" style="fill:white;"></rect>
        </g>
        <g transform="matrix(1,0,0,1,18,-3.79874)">
            <g transform="matrix(0.839687,0,0,0.839687,21.9349,15.8388)">
                <g transform="matrix(1,0,0,1,221.825,172.79)">
                    <path d="M0,-12C-3,-3.9 -5.9,4.1 -8.8,12.2C-9.4,13.6 -9.8,13.8 -10.9,12.8C-15.7,8.7 -20.4,4.3 -25.6,0.6C-29.7,-2.4 -31.4,-6.8 -33.9,-10.7C-35.7,-13.7 -37.4,-16.6 -39.1,-19.6C-39.9,-20.9 -39.7,-22.4 -40.1,-24C-40.2,-24.6 -39.8,-24.7 -39.3,-24.7L-36.3,-24.7C-35.9,-23.4 -38,-22 -36.4,-21.4C-34.7,-20.7 -35.1,-23 -34.6,-23.7C-34.2,-24.3 -30.5,-26.2 -29.8,-26.1C-29.1,-26 -29.4,-25.4 -29.4,-25.1C-29.4,-23.1 -29.3,-21.3 -30.1,-19.4C-30.4,-19 -31.1,-18 -29.8,-17.6C-28.7,-17.2 -28.7,-18.3 -28.4,-18.9C-28.1,-19.3 -28,-19.9 -27.8,-20.5C-27.4,-20.2 -27,-19.9 -26.7,-19.7C-26.3,-19.3 -25.9,-18.9 -25.3,-19.7C-24.6,-20.5 -25.4,-20.7 -25.7,-21.1C-28.1,-23.4 -27.7,-26.5 -25.6,-29C-22.3,-33 -18.5,-31.8 -14.4,-31.4C-10.3,-31 -7.9,-29.101 -6.2,-25.5C-4.5,-21.9 -2.2,-18.4 -0.3,-15C0.2,-13.8 0.4,-13.1 0,-12ZM-42,-34.2C-42.4,-36 -41.9,-36.3 -40.3,-36L-38.5,-36C-38.4,-35.2 -38.8,-34.4 -39.1,-33.9C-39.4,-33.2 -39.1,-32.9 -38.5,-32.6C-37.9,-32.3 -37.5,-32.5 -37.4,-33.2C-37,-36.7 -33.7,-36.6 -31.5,-37.7C-30.9,-38 -30.5,-37.7 -30.1,-37.4C-28,-36.1 -25.9,-34.9 -23.7,-33.7C-28.2,-28.8 -33.5,-25.8 -40.5,-26.6C-40.9,-28.7 -41.3,-31.5 -42,-34.2M-41.2,-41.8C-41.1,-42.8 -41.3,-44.3 -40.2,-44.5C-38.6,-44.6 -36.8,-45.2 -35.5,-43.4C-34.7,-42.1 -33.7,-41.1 -32.5,-39.9C-35.6,-38.6 -38.4,-37.4 -41.8,-38.2C-41.6,-39.3 -41.3,-40.6 -41.2,-41.8M-38.5,-50.5C-37.9,-48.9 -37.5,-47.8 -37.1,-46.7C-38.2,-46.4 -39.2,-46.4 -40.2,-46.7C-40.2,-47.9 -39.1,-48.8 -38.5,-50.5M67.4,-39.7C66,-40.4 64.6,-41.3 63,-42.2C64,-43 65,-43.9 65.8,-44.7C66.2,-45.1 67.2,-45.4 66.4,-46.4C65.6,-47.4 65,-47 64.4,-46.3C62.1,-43.5 59.5,-43.2 56.2,-44.2C55.6,-44.3 55.1,-44.6 54.5,-44.6C52.4,-44.6 52.9,-45.4 53.5,-46.7C55.2,-49.8 57,-52.8 60.1,-54.8C60.7,-55.2 61.1,-55.6 60.4,-56.4C59.8,-57.1 59.4,-57 58.7,-56.5C57.6,-55.7 56.7,-54.4 55.3,-54C55,-54.8 54.9,-55.6 54.5,-56.4C54.2,-57 54.4,-58.2 52.9,-57.7C51.6,-57.3 52.2,-56.3 52.5,-55.7C53.8,-53.3 53.5,-51.2 51.8,-49.2C51.1,-48.4 50.7,-47.5 50.2,-46.5C49.9,-45.9 49.5,-45.5 48.9,-45.5C45.8,-44.9 42.5,-44.4 39.4,-43.8C39,-43.7 38.1,-43.5 38.4,-44.4C39.1,-47.8 39,-51.3 40.5,-54.4C42.3,-58.2 44.3,-62 48.1,-64.4C48.8,-64.8 49.1,-65.2 48.4,-66.1C47.7,-66.8 47.4,-66.5 46.8,-66.1C45.8,-65.3 44.7,-64.4 43.5,-63.4C43.1,-64.4 42.8,-65.1 42.5,-65.9C42.2,-66.6 42.4,-67.6 40.9,-67.2C39.5,-66.8 40.5,-65.9 40.6,-65.2C40.9,-63.8 42.2,-62.5 41.2,-60.8C40.2,-59.2 39.2,-57.5 38.2,-55.7C35.7,-58.2 33.4,-60.8 32.5,-64.3C32.4,-65.1 31.9,-65.6 31.1,-65.3C30.7,-65.2 30.1,-65.2 30.4,-64.5C30.5,-64.1 30.7,-63.7 30.8,-63.2C31.6,-60.7 31.6,-60.7 29,-60.4C28.4,-60.4 27.9,-60.4 27.9,-59.6C27.9,-58.8 28.3,-58.5 29,-58.6C32.3,-59.4 33.8,-57 35.5,-54.9C36.2,-53.9 36.8,-53.1 36.5,-51.9C35.9,-49.2 35.5,-46.7 35.1,-44C35,-43.3 34.7,-42.9 34.1,-42.6C29.9,-40.2 25.6,-37.7 21.1,-35.1C20.5,-38.2 20.3,-41.2 19.4,-44C17.8,-49.7 19.3,-55 20.8,-60.3C22.1,-64.4 24.6,-68.4 28.6,-70.9C29.2,-71.3 29.9,-71.6 29,-72.6C28.3,-73.4 27.9,-73.3 27.3,-72.6C26.3,-71.8 25.2,-70.9 24,-70.1C23.6,-71.1 23.3,-71.8 23,-72.6C22.7,-73.3 22.7,-74.3 21.4,-73.9C20,-73.3 21,-72.5 21.1,-71.9C21.2,-70.6 22.7,-69.4 21.8,-67.9C20.8,-66.1 19.7,-64.4 18.5,-62.4C16.1,-64.9 13.8,-67.5 13,-70.9C12.9,-71.6 12.7,-72.5 11.6,-72C10.2,-71.6 11,-70.7 11.2,-70C11.5,-69.2 12,-68.3 11.9,-67.2C11.3,-67.2 10.9,-67.2 10.3,-67.1C9.6,-67 8.5,-67.7 8.3,-66.4C8.3,-64.8 9.6,-65.6 10.3,-65.4C11.7,-65.3 12.8,-65.3 14.1,-64.1C16.6,-61.6 17.5,-58.9 16.5,-55.5C15.9,-53.9 15.8,-52.2 15.5,-50.6C11,-52.9 6.9,-55.3 3.9,-59.4C2.8,-61.1 2.2,-62.8 1.5,-64.6C1.2,-65.3 0.9,-65.6 0.1,-65.3C-0.6,-65 -0.7,-64.7 -0.5,-63.9C-0.1,-62.8 0.5,-61.8 0.5,-60.5L-1.3,-60.5C-1.9,-60.4 -2.9,-61.1 -3,-59.7C-3.1,-58.3 -2,-58.9 -1.3,-58.7C-0.2,-58.6 1.1,-59.3 2.1,-58C3.2,-56.7 4.2,-55.3 5.5,-53.9C2.7,-52.8 0.1,-51.5 -2.8,-51.9C-3.4,-51.9 -4.2,-52.3 -4.2,-51.1C-4.2,-50.1 -3.6,-50 -2.9,-50.1C-1.1,-50.2 0.1,-50.1 -1.1,-47.8C-1.4,-47.1 -1.2,-47 -0.5,-46.7C0.2,-46.4 0.5,-46.7 0.5,-47.3C0.9,-50.1 3,-50.8 5.3,-51.4C7,-52 14.3,-48.4 15.1,-46.7C15.1,-46.6 15.2,-46.4 15.2,-46.3C15.9,-42.3 16.5,-38.4 17.3,-34.4C17.4,-33.6 17.3,-33.1 16.7,-32.6C12.3,-27.5 8.1,-22.3 3.6,-16.9C1.1,-21.1 -1.2,-25.4 -3.6,-29.5C-5.2,-31.9 -6.4,-34.3 -6.6,-37.3C-6.6,-38.1 -6.9,-38.9 -7,-39.7C-7.6,-42.8 -8.7,-46.1 -8.4,-49.2C-7.8,-55 -7,-60.9 -3.3,-65.9C-1.9,-67.7 -0.2,-69.2 1.4,-70.6C2,-71 2.7,-71.4 1.8,-72.3C1.1,-73.1 0.7,-72.9 0,-72.3C-0.7,-71.7 -1.4,-71.2 -2.1,-70.6C-2.8,-69.9 -3.5,-69.6 -3.7,-71C-3.7,-71.4 -4,-71.8 -4.1,-72.3C-4.5,-72.9 -4.2,-74.1 -5.7,-73.6C-7,-73 -6.4,-72.2 -6,-71.6C-4.6,-69.3 -5.2,-67.2 -6.7,-65.2C-7.3,-64.5 -7.5,-63.8 -8,-63.1C-8.6,-62 -8.8,-62.3 -9.6,-63C-11.6,-65.4 -13.6,-67.7 -14.3,-70.8C-14.4,-71.5 -14.7,-72.1 -15.7,-71.6C-16.7,-71.3 -16.5,-70.8 -16.3,-70C-15.9,-69 -15.6,-68 -15.2,-66.9L-17.9,-66.9C-18.7,-66.9 -18.9,-66.6 -18.9,-65.8C-18.9,-65.1 -18.6,-64.8 -17.9,-65L-16.3,-65C-14.5,-65 -10.1,-61.3 -10.2,-59.6C-10.5,-56.5 -11.2,-53.4 -11.8,-50.1C-18,-53.1 -23.4,-56.6 -25.5,-63.4C-25.8,-64.1 -25.8,-65.4 -27.2,-64.8C-28.6,-64.2 -27.6,-63.2 -27.3,-62.5C-26.5,-60.4 -26.5,-60.4 -29,-60.2C-29.6,-60.2 -30.3,-60.3 -30.3,-59.4C-30.3,-58.4 -29.7,-58.3 -29,-58.4C-25,-59.1 -23.9,-56 -21.9,-53.6C-24.9,-52.5 -27.6,-51.2 -30.5,-51.6C-31.2,-51.7 -31.6,-51.6 -31.6,-50.6C-31.6,-49.8 -30.9,-49.8 -30.3,-49.8C-29.5,-49.8 -28.6,-50.1 -27.6,-49.7C-27.9,-49.1 -28,-48.6 -28.2,-48C-28.5,-47.4 -28.5,-46.9 -27.6,-46.6C-26.9,-46.3 -26.6,-46.7 -26.5,-47.3C-26.1,-50.6 -23.4,-50.7 -21.1,-51.5C-19.7,-52.1 -12.5,-48 -12.1,-46.7L-12.1,-46C-11.4,-42.5 -10.8,-38.8 -10.1,-35.3C-9.8,-34 -10.4,-34 -11.2,-34.2C-16.6,-35.3 -22.2,-35.8 -27,-39C-31.4,-41.8 -34.8,-45.2 -36.5,-50.2C-36.6,-50.8 -36.6,-51.6 -37.3,-51.6C-38.3,-51.7 -38,-51.9 -37.7,-52.6C-36.6,-55 -34.4,-56.4 -32.5,-58.1C-31.9,-58.7 -31.7,-59.1 -32.2,-59.8C-32.8,-60.6 -33.3,-60.2 -33.9,-59.8C-35,-59 -35.9,-57.8 -37.2,-57.3C-37.5,-58.1 -37.8,-59 -38.2,-59.8C-38.5,-60.4 -38.2,-61.4 -39.6,-60.9C-41,-60.4 -40.2,-59.8 -40.2,-59.1C-39.9,-57.7 -38.5,-56.6 -39.4,-54.9C-40.4,-53.1 -41.5,-51.2 -42.7,-49.4C-45.2,-52.1 -47.5,-54.6 -48.4,-58.2C-48.5,-59 -48.8,-59.3 -49.8,-59C-50.6,-58.7 -50.5,-58.3 -50.4,-57.6C-50.1,-57 -50,-56.3 -49.7,-55.8C-49.1,-54.8 -49.4,-54.2 -50.7,-54.4L-52.1,-54.4C-52.8,-54.4 -53.1,-54.1 -53.1,-53.3C-53.1,-52.6 -52.7,-52.5 -52.1,-52.5L-51.4,-52.5C-48.7,-52.4 -45.3,-50 -44.5,-47.6C-44.4,-47.3 -44.4,-46.9 -44.5,-46.5C-44.9,-43.5 -45.5,-40.7 -46.1,-37.6C-50.1,-39.9 -54,-41.6 -56.7,-45.2C-58.1,-47.2 -59.4,-49.3 -60.1,-51.7C-60.2,-52.3 -60.4,-52.8 -61.4,-52.4C-62.2,-52.1 -62.5,-51.8 -62,-51C-61.9,-50.7 -61.9,-50.4 -61.7,-50.2C-60.9,-48.5 -60.6,-47.2 -63.3,-47.7C-64,-47.8 -64.7,-47.8 -64.7,-46.7C-64.7,-45.9 -64,-45.7 -63.4,-45.9C-60,-46.6 -58.7,-44.2 -57,-42.1C-56.3,-41.3 -56.6,-41 -57.6,-40.7C-59.9,-39.7 -62.1,-39.1 -64.5,-39.4C-65.2,-39.4 -66.1,-39.7 -66.1,-38.4C-66.1,-37.1 -65.3,-37.4 -64.5,-37.4L-64.1,-37.4C-62.8,-37.5 -62,-37.4 -62.8,-35.7C-63.1,-35.3 -63.5,-34.4 -62.5,-34.1C-61.5,-33.7 -61.4,-34.5 -61.2,-35.1C-60.8,-36.7 -59.9,-37.5 -58.4,-38.2C-55.9,-39.3 -53.7,-39.2 -51.6,-37.5C-50.6,-36.7 -49.3,-36.1 -48.2,-35.4C-47.6,-35.1 -46.9,-34.7 -46.9,-34C-46.2,-30 -45.6,-26.2 -44.9,-22.3C-44.8,-21.6 -44.9,-21.3 -45.6,-21.5C-49.3,-22.2 -53.2,-22.2 -56.5,-23.6C-60.7,-25.4 -65,-27.6 -68,-31.5C-69.4,-33.5 -70.7,-35.5 -71.4,-37.7C-71.7,-38.4 -71.8,-39.1 -73,-38.7C-74.3,-38.3 -73.4,-37.6 -73.3,-37C-73,-36 -72.5,-35.2 -72.5,-34L-74.6,-34C-74.6,-34 -76.2,-34.3 -76.2,-33C-76.2,-31.9 -75.4,-32.3 -74.8,-32.2C-73.7,-31.9 -72.3,-32.8 -71.3,-31.5C-70.2,-30.2 -69.2,-28.8 -68,-27.5C-71.4,-25.8 -72.2,-25.7 -76.2,-25.4C-76.8,-25.4 -77.6,-25.7 -77.6,-24.6C-77.6,-23.3 -76.8,-23.6 -76,-23.6L-73.9,-23.6C-73.8,-22.8 -74.2,-22.2 -74.3,-21.5C-74.6,-20.8 -74.3,-20.5 -73.6,-20.2C-72.8,-19.8 -72.8,-20.6 -72.6,-20.9C-72.3,-21.3 -72.2,-21.9 -72,-22.3C-71.4,-23.7 -66.9,-25.7 -65.5,-25C-63.2,-23.9 -61.1,-22.5 -58.9,-21.2C-63.1,-17 -67.7,-13.7 -73.9,-14C-74.5,-14 -75.3,-14.3 -75.3,-13.2C-75.3,-11.9 -74.5,-12.2 -73.7,-12.2C-71.7,-12.5 -71,-11.9 -72,-9.9C-72.4,-9.1 -72,-8.9 -71.4,-8.6C-70.6,-8.2 -70.4,-8.9 -70.4,-9.3C-69.8,-12.8 -66.9,-12.7 -64.3,-13.7C-64.3,-11.4 -64,-9.3 -65,-7.3C-65.3,-6.7 -66.4,-5.6 -65,-5C-63.4,-4.3 -63.9,-6 -63.4,-6.6C-63,-7.3 -63,-7.9 -62,-7.2C-61.6,-6.9 -61,-5.6 -60.3,-6.8C-59.5,-7.9 -60.7,-8.1 -61.3,-8.5C-62.3,-9.5 -63.1,-13.9 -62,-14.6C-59.2,-16.9 -56.9,-20.7 -52.2,-18.8C-50.6,-18.2 -48.9,-18 -47.4,-18C-45,-17.9 -43.6,-16.7 -42.5,-14.6C-40.1,-10.1 -37.6,-5.8 -35,-1.5C-37.7,-0.9 -40.1,-0.5 -42.5,-0.1C-45.3,0.5 -48.3,1.6 -51.1,1.2C-57.6,0.4 -64.2,-0.2 -70,-4.2C-74.1,-7 -77.2,-10.3 -78.9,-14.9C-79.2,-15.6 -78.9,-16.9 -80.5,-16.3C-82.2,-15.9 -81.1,-14.7 -80.8,-14.2C-80.1,-12.4 -79.7,-11.101 -82.5,-11.5C-83.1,-11.6 -83.6,-11.5 -83.8,-10.7C-83.8,-9.9 -83.4,-9.601 -82.7,-9.7C-79.3,-10.4 -77.9,-7.9 -76.1,-5.7C-75.5,-5 -75.7,-4.7 -76.4,-4.4C-78.7,-3.7 -80.6,-2.601 -83,-2.8C-83.7,-2.8 -85,-3.5 -85,-1.8C-85,-0.4 -83.7,-1 -83.2,-1C-81.4,-1.101 -81.2,-0.4 -81.9,1C-81.8,1.1 -81.8,1.6 -80.9,1.8C-80.2,1.899 -80.1,1.7 -79.8,1.1C-79.7,0.5 -79.4,0 -79.1,-0.601C-78.4,-2 -73.9,-3.9 -72.6,-3.101C-70.5,-2 -68.4,-0.601 -66.1,0.7C-70.3,5.1 -74.9,8.2 -81.1,7.899C-81.8,7.899 -82.5,7.899 -82.5,8.899C-82.5,9.899 -81.7,9.7 -81.1,9.7C-79.4,9.6 -78.1,9.7 -79.3,11.799C-79.6,12.2 -79.9,12.799 -79,13.1C-78.3,13.2 -77.9,13.2 -77.7,12.399C-77.7,12 -77.4,11.7 -77.3,11.399C-76.9,10.1 -73.6,8.1 -72.4,8.299C-71.6,8.399 -71.8,9 -71.8,9.399C-71.7,11.399 -71.8,13.2 -72.6,15.1C-72.9,15.699 -73.3,16.399 -72.3,16.8C-71.3,17.199 -71.2,16.5 -71,15.8C-70.9,15.199 -70.6,14.699 -70.3,14.1C-70,14.199 -69.6,14.5 -69.3,14.699C-68.7,14.999 -68.5,15.999 -67.6,15.1C-66.8,14.1 -67.9,13.799 -68.3,13.399C-68.7,13 -69.4,12.7 -69.6,11.799C-69.6,9.399 -70,6.899 -67.3,5.299C-66.2,4.7 -65.3,3.7 -64.3,2.899C-63.7,2.5 -63.2,2.2 -62.5,2.299C-59.1,3 -55.7,3.6 -52,4.299C-53,6 -53.8,7.6 -54.7,9.1C-57.7,14.8 -62.2,18.6 -68.3,20.6C-69.7,21 -71.3,21 -72.7,21.199C-73.3,21.199 -74.3,20.8 -74.4,21.999C-74.4,23.6 -73.4,22.8 -72.7,22.999C-72,23.199 -71.4,22.999 -70.6,22.999C-70.9,23.8 -71,24.6 -71.3,25.3C-71.6,25.999 -71,26.1 -70.6,26.399C-69.9,26.699 -69.8,26.1 -69.8,25.8C-69.4,22.3 -66.3,22.3 -63.9,21.3C-63.6,24.8 -63.6,25.3 -64.6,28.199C-64.7,28.8 -65.7,29.499 -64.5,29.999C-63.2,30.6 -63.5,29.399 -63.1,28.899C-62.8,28.499 -63,27.6 -62.3,27.3C-62,27.6 -61.6,27.899 -61.3,28.1C-60.9,28.399 -60.6,28.8 -60,28.199C-59.4,27.6 -59.7,27.199 -60.3,26.8C-60.7,26.499 -61,26.199 -61.3,25.999C-62.3,24.999 -62.4,20.899 -61.3,19.899C-59.7,18.499 -58,17.199 -56.4,15.8C-54.1,20.5 -52.9,25.1 -55.1,30.1C-55.4,30.699 -55.5,31.1 -54.8,31.399C-54.1,31.699 -53.8,31.399 -53.5,30.699C-53.2,30.1 -53.4,29.1 -52.5,28.899C-52.1,29.199 -51.8,29.499 -51.5,29.699C-51.1,30.1 -50.7,30.1 -50.2,29.6C-49.9,29.199 -49.9,28.8 -50.5,28.5C-52.9,27.199 -52.2,25 -52.2,22.699C-50.6,23.3 -49.1,23.5 -47.8,24.5C-47.1,25.1 -46.4,26.6 -45.4,25.6C-44.1,24.199 -46.5,24.199 -46.7,23.199L-46.4,22.899C-46.1,22.3 -44.7,22.499 -45.3,21.3C-46,20.199 -46.6,21.199 -47.1,21.399C-48.8,22.199 -51.9,20.999 -52.6,19.3C-54.6,14.399 -54.6,14.399 -51.9,9.7C-51.2,8.6 -50.5,7.399 -49.9,6.2C-49.5,5.399 -48.9,4.899 -47.9,4.799C-43.2,4.1 -38.6,3.1 -34,2.299C-33,2.2 -32.4,2.6 -31.9,3.1C-26.2,7.899 -20.4,12.7 -14.7,17.5C-13.7,18.3 -13.3,19.199 -13.3,20.5L-12.6,62.3L-4.1,62.3L-4.1,61.699C-4.1,47.699 -4,33.8 -4.2,19.899C-4.2,17.399 -3.8,15.199 -2.9,13.1C-0.1,5.2 2.9,-2.601 5.6,-10.5C6.3,-12.601 7.3,-14.2 8.7,-15.9C11.2,-18.9 13.8,-21.8 16.2,-24.9C19.9,-29.7 24.1,-33.7 29.6,-36.4C34,-38.5 37.9,-41.601 43,-42.101C45.7,-42.2 48.4,-43.5 50.9,-43.2C56,-42.601 61.2,-42.2 65.5,-38.8C66.1,-38.4 66.6,-37.8 67.3,-38.9C68.5,-38.7 68.4,-39.3 67.4,-39.7" style="fill:white;fill-rule:nonzero;"></path>
                </g>
                <g transform="matrix(1.23391,0,0,1.23391,-58.179,-52.7516)">
                    <text x="240px" y="186px" style="font-family:'ArnoPro-SmbdCaption', 'Arno Pro', serif;font-weight:600;font-size:25.129px;fill:white;">L<tspan x="255.303px " y="186px ">i</tspan>fe</text>
                    <text x="240px" y="207.506px" style="font-family:'ArnoPro-SmbdCaption', 'Arno Pro', serif;font-weight:600;font-size:25.129px;fill:white;">Sc<tspan x="264.677px 271.788px 283.372px 297.193px 308.275px " y="207.506px 207.506px 207.506px 207.506px 207.506px ">ience</tspan></text>
                    <text x="240px" y="229.013px" style="font-family:'ArnoPro-SmbdCaption', 'Arno Pro', serif;font-weight:600;font-size:25.129px;fill:white;">Edit<tspan x="284.679px " y="229.013px ">o</tspan>rs</text>
                </g>
            </g>
        </g>
        <g transform="matrix(0.942824,0,0,0.942824,-4.1694,19.549)">
            <text x="184.693px" y="233.82px" style="font-family:'HelveticaNeue-Medium', 'Helvetica Neue', sans-serif;font-weight:500;font-size:25.129px;fill:white;">FOUNDA<tspan x="287.57px 302.471px " y="233.82px 233.82px ">TI</tspan>ON</text>
        </g>
    </g>
</svg>
