<?xml version="1.0" encoding="utf-8"?>
<!-- Generator: Adobe Illustrator 18.0.0, SVG Export Plug-In . SVG Version: 6.00 Build 0)  -->
<!DOCTYPE svg PUBLIC "-//W3C//DTD SVG 1.1//EN" "http://www.w3.org/Graphics/SVG/1.1/DTD/svg11.dtd">
<svg version="1.1" id="Layer_1" xmlns="http://www.w3.org/2000/svg" xmlns:xlink="http://www.w3.org/1999/xlink" x="0px" y="0px"
	 width="320px" height="298.7px" viewBox="0 0 320 298.7" enable-background="new 0 0 320 298.7" xml:space="preserve">
<path fill="#02A7FC" d="M319,298.7H1c-0.6,0-1-0.4-1-1V1c0-0.6,0.4-1,1-1h318c0.5,0,1,0.4,1,1v296.7
	C320,298.3,319.5,298.7,319,298.7z"/>
<g>
	<rect x="32" y="109.2" fill-rule="evenodd" clip-rule="evenodd" fill="none" width="276.6" height="102.3"/>
	<path fill="#FFFFFF" d="M74.8,109.2c7.9,0,13.8,2,17.9,6.1c4,4,6.1,9.7,6.1,17c0,7.3-2,13-6.1,17.1c-4,4.1-10,6.1-17.9,6H50.9v31.9
		H40.5v-78.1H74.8z M71.3,146.5c5.9,0.1,10.2-1.1,13-3.6c2.7-2.5,4.1-6,4.1-10.7c0-4.7-1.4-8.2-4.1-10.7c-2.7-2.4-7.1-3.7-13-3.7
		H50.9v28.6H71.3z"/>
	<path fill="#FFFFFF" d="M141.1,183.6c-4.2,3.2-9.5,4.8-16,4.8c-4.5,0-8.4-0.7-11.8-2.2c-3.3-1.5-6.1-3.5-8.4-6.1
		c-2.3-2.6-4-5.8-5.1-9.4c-1.1-3.6-1.8-7.6-1.9-11.9c0-4.3,0.7-8.2,2-11.8c1.3-3.6,3.2-6.7,5.5-9.3c2.4-2.6,5.2-4.7,8.4-6.1
		c3.2-1.5,6.8-2.2,10.7-2.2c5,0,9.2,1,12.5,3.1c3.3,2.1,6,4.7,8,7.9c2,3.2,3.4,6.7,4.2,10.5c0.8,3.8,1.1,7.4,0.9,10.8h-42.3
		c-0.1,2.5,0.2,4.8,0.9,7.1c0.7,2.2,1.7,4.2,3.2,5.9c1.5,1.7,3.3,3.1,5.6,4.1c2.3,1,4.9,1.5,8,1.5c3.9,0,7.2-0.9,9.7-2.7
		c2.5-1.8,4.2-4.6,5-8.3h9.2C148.1,175.6,145.3,180.4,141.1,183.6z M138.9,147.3c-0.8-2-2-3.7-3.4-5.1c-1.4-1.4-3.1-2.6-5-3.4
		c-1.9-0.8-4.1-1.3-6.4-1.3c-2.4,0-4.6,0.4-6.5,1.3c-1.9,0.8-3.6,2-5,3.4c-1.4,1.5-2.5,3.2-3.3,5.1c-0.8,1.9-1.3,4-1.4,6.2h32.5
		C140.2,151.4,139.7,149.3,138.9,147.3z"/>
	<path fill="#FFFFFF" d="M196.5,183.6c-4.2,3.2-9.5,4.8-16,4.8c-4.5,0-8.4-0.7-11.8-2.2c-3.3-1.5-6.1-3.5-8.4-6.1
		c-2.3-2.6-4-5.8-5.1-9.4c-1.1-3.6-1.8-7.6-1.9-11.9c0-4.3,0.7-8.2,2-11.8c1.3-3.6,3.2-6.7,5.5-9.3c2.4-2.6,5.2-4.7,8.4-6.1
		c3.2-1.5,6.8-2.2,10.7-2.2c5,0,9.2,1,12.5,3.1c3.3,2.1,6,4.7,8,7.9c2,3.2,3.4,6.7,4.2,10.5c0.8,3.8,1.1,7.4,0.9,10.8h-42.3
		c-0.1,2.5,0.2,4.8,0.9,7.1c0.7,2.2,1.7,4.2,3.2,5.9c1.5,1.7,3.3,3.1,5.6,4.1c2.3,1,4.9,1.5,8,1.5c3.9,0,7.2-0.9,9.7-2.7
		c2.5-1.8,4.2-4.6,5-8.3h9.2C203.5,175.6,200.8,180.4,196.5,183.6z M194.3,147.3c-0.8-2-2-3.7-3.4-5.1c-1.4-1.4-3.1-2.6-5-3.4
		c-1.9-0.8-4.1-1.3-6.4-1.3c-2.4,0-4.6,0.4-6.5,1.3c-1.9,0.8-3.6,2-5,3.4c-1.4,1.5-2.5,3.2-3.3,5.1c-0.8,1.9-1.3,4-1.4,6.2h32.5
		C195.6,151.4,195.1,149.3,194.3,147.3z"/>
	<path fill="#FFFFFF" d="M218.7,130.7v11.9h0.2c2.3-4.6,5-8,8.3-10.2c3.3-2.2,7.4-3.2,12.5-3.1v9.8c-3.7,0-6.9,0.5-9.5,1.5
		c-2.6,1-4.7,2.5-6.3,4.5c-1.6,2-2.8,4.4-3.5,7.2c-0.7,2.8-1.1,6-1.1,9.7v25.1H210v-56.5H218.7z"/>
	<path fill="#FFFFFF" d="M278.4,109.2v57.7c0,3.3-0.4,6.3-1.1,9c-0.8,2.7-2,5-3.7,7c-1.7,2-3.9,3.5-6.6,4.5c-2.7,1.1-6.1,1.6-10,1.6
		c-3.7,0-6.9-0.5-9.5-1.6c-2.6-1.1-4.8-2.5-6.5-4.4c-1.7-1.9-2.9-4.1-3.7-6.7c-0.8-2.6-1.1-5.4-1.1-8.5v-4.7h2.2v4.7
		c0,6.4,1.6,11.2,4.7,14.4c3.1,3.2,7.8,4.8,13.9,4.8c3.1,0,5.9-0.4,8.3-1.1c2.4-0.7,4.4-1.9,6-3.6c1.6-1.7,2.9-3.9,3.7-6.7
		c0.8-2.8,1.3-6.2,1.3-10.3v-56.1H278.4z"/>
</g>
</svg>
