<svg xmlns="http://www.w3.org/2000/svg" width="570" height="147"><style>:root{--color-white:rgb(254 254 254);--color-black-800:rgb(24 24 24);--color-red-600:rgb(228 0 44);--color-background:var(--color-white);--color-primary:var(--color-red-600);--color-text:var(--color-black-800)}.primary{fill:var(--color-primary)}@media screen and (forced-colors:active){:root{--color-background:Canvas;--color-primary:CanvasText;--color-text:CanvasText}}</style><g style="fill:var(--color-text)"><path d="M146.132 80.149V99H136V48h21.397C166.253 48 171 54.357 171 64.075c0 9.717-4.747 16.074-13.603 16.074h-11.265Zm9.713-22.876h-9.973v13.909h9.973c2.688 0 4.386-1.318 4.386-4.759v-4.392c0-3.44-1.698-4.758-4.386-4.758Zm48.782 22.437h-6.637V99H188V48h21.098c8.732 0 13.413 6.21 13.413 15.855 0 7.453-2.794 12.86-8.034 14.906L223 99h-10.828l-7.545-19.29Zm-6.755-22.437v13.909h9.973c2.688 0 4.386-1.245 4.386-4.759v-4.392c0-3.514-1.698-4.758-4.386-4.758h-9.973ZM270 99v-9.133h-20.069v-12.13h17.013v-9.06h-17.013V57.134H270V48h-30v51h30Z" class="primary"/><path d="M303.035 77.665h-9.593V99H287V48h18.626c8.122 0 12.324 5.041 12.324 14.832 0 8.11-2.871 12.933-8.473 14.394L319 99h-7.142l-8.823-21.335Zm-9.813-24.101v17.618h11.875c3.865 0 5.903-2.069 5.903-6.491v-4.637c0-4.422-2.038-6.49-5.903-6.49h-11.875ZM363 99v-5.845h-20.711V76.13h19.002v-5.845h-19.002v-16.44H363V48h-27v51h27Zm38.497 0L416 48h-6.65l-9.126 32.587-2.264 12.495h-.778l-2.335-12.495L385.792 48H379l14.503 51h7.994ZM453 99v-5.48h-6.868V53.48H453V48h-21v5.48h6.868v40.04H432V99h21Zm44 0v-5.845h-20.711V76.13h19.002v-5.845h-19.002v-16.44H497V48h-27v51h27Zm35.195 0 7.152-32.295 1.679-12.348h.875l1.679 12.348L550.44 99h8.102L570 48h-6.714l-6.423 32.076-1.752 11.983h-.802l-1.679-11.983L545.843 48h-8.54l-6.714 32.076-1.752 11.983h-.802l-1.752-11.983L519.86 48H513l10.948 51h8.247Z"/></g><g id="mark"><path class="paper" style="fill:var(--color-background)" d="M3.5 15.5h94v116h-94z"/><path d="M90.5 12c5.799 0 10.5 4.701 10.5 10.5v102h-7v-102a3.5 3.5 0 0 0-3.5-3.5h-80A3.5 3.5 0 0 0 7 22.5v102a3.5 3.5 0 0 0 3.5 3.5H70v7H10.5C4.701 135 0 130.299 0 124.5v-102C0 16.701 4.701 12 10.5 12h80Z" class="border" style="fill:var(--color-text)"/><path d="M24 102.5h53m-53-29h53m-53-29h53" stroke-width="7" class="line" style="stroke:var(--color-text)"/><path d="m85.5 131.5-20 15v-30l20 15Z" class="primary"/></g></svg>