<?xml version="1.0" standalone="no"?>
<!DOCTYPE svg PUBLIC "-//W3C//DTD SVG 20010904//EN"
 "http://www.w3.org/TR/2001/REC-SVG-20010904/DTD/svg10.dtd">
<svg version="1.0" xmlns="http://www.w3.org/2000/svg"
 width="700.000000pt" height="700.000000pt" viewBox="0 0 700.000000 700.000000"
 preserveAspectRatio="xMidYMid meet">
<metadata>
Created by potrace 1.11, written by Peter Selinger 2001-2013
</metadata>
<g transform="translate(0.000000,700.000000) scale(0.100000,-0.100000)"
fill="#000000" stroke="none">
<path d="M3828 6783 c-44 -51 -43 -24 -45 -1309 -3 -1140 -2 -1224 15 -1272
33 -99 72 -114 192 -75 65 21 73 24 330 172 129 74 255 145 280 159 25 14 50
28 55 32 6 4 35 21 65 37 30 17 141 80 245 140 195 113 922 530 985 566 61 34
130 88 154 121 50 67 39 123 -37 193 -35 33 -212 145 -347 221 -19 10 -80 46
-135 79 -133 80 -471 281 -515 305 -19 11 -66 39 -105 63 -80 48 -251 150
-540 320 -110 65 -231 137 -270 160 -101 61 -134 77 -190 91 -70 19 -119 18
-137 -3z"/>
<path d="M3055 6783 c-79 -19 -162 -59 -333 -158 -109 -64 -204 -119 -212
-125 -8 -5 -51 -30 -95 -55 -44 -25 -87 -50 -95 -55 -36 -23 -272 -160 -276
-160 -3 0 -17 -9 -32 -19 -15 -10 -223 -133 -462 -272 -239 -138 -469 -272
-510 -297 -206 -123 -229 -225 -74 -338 30 -21 55 -43 58 -50 2 -6 33 -27 68
-46 34 -19 79 -44 98 -55 345 -199 641 -369 665 -383 62 -34 161 -91 175 -100
8 -5 150 -86 315 -181 281 -160 419 -240 490 -282 71 -42 193 -95 233 -102 62
-10 96 7 124 63 l23 47 0 1225 c0 1165 -1 1227 -18 1273 -11 26 -25 54 -34 62
-14 14 -66 18 -108 8z"/>
<path d="M491 4824 c-12 -15 -29 -52 -38 -83 -14 -50 -16 -173 -16 -1231 0
-858 3 -1190 12 -1230 15 -72 44 -120 73 -121 93 -4 170 24 348 131 80 48 604
356 1230 723 300 175 561 330 580 345 78 57 111 117 96 177 -12 47 -70 97
-210 180 -188 111 -195 115 -263 154 -32 18 -132 77 -223 131 -91 53 -257 151
-370 217 -113 66 -358 210 -545 320 -550 323 -503 299 -601 310 -47 5 -53 3
-73 -23z"/>
<path d="M6359 4831 c-30 -10 -134 -64 -230 -121 -96 -56 -226 -133 -289 -170
-63 -37 -194 -114 -290 -170 -96 -57 -188 -111 -205 -120 -102 -60 -383 -224
-450 -265 -44 -26 -98 -58 -120 -70 -284 -162 -457 -270 -497 -308 -87 -86
-74 -164 42 -249 33 -25 635 -378 750 -441 30 -16 62 -36 71 -43 8 -8 19 -14
22 -14 4 0 26 -11 48 -26 22 -14 55 -33 74 -44 18 -10 142 -82 276 -161 134
-78 258 -149 274 -159 17 -9 125 -73 240 -140 243 -142 294 -168 358 -176 52
-7 87 9 108 48 33 61 35 130 34 1318 -1 1102 -2 1189 -18 1236 -10 29 -26 59
-36 68 -26 24 -97 26 -162 7z"/>
<path d="M3834 2886 c-53 -47 -53 -31 -53 -1334 -1 -1163 0 -1205 19 -1254 26
-69 45 -88 90 -88 51 0 174 41 235 77 28 17 104 62 170 100 66 39 170 100 230
135 61 36 130 76 155 90 25 14 232 134 460 268 993 579 955 554 985 635 17 43
17 45 -4 87 -12 24 -42 59 -66 79 -25 19 -211 131 -413 248 -202 117 -379 222
-394 232 -15 10 -29 19 -32 19 -3 0 -144 81 -226 130 -122 72 -916 534 -946
549 -22 12 -73 28 -113 35 -70 13 -73 13 -97 -8z"/>
<path d="M3018 2873 c-59 -17 -132 -52 -253 -121 -93 -53 -179 -102 -190 -108
-11 -6 -63 -36 -115 -66 -370 -214 -442 -255 -495 -285 -33 -18 -67 -38 -75
-43 -49 -30 -153 -90 -156 -90 -3 0 -59 -32 -127 -71 -67 -40 -137 -80 -155
-91 -18 -10 -63 -36 -100 -57 -37 -21 -127 -72 -200 -114 -263 -150 -319 -214
-271 -308 9 -19 39 -54 66 -78 26 -23 57 -50 69 -61 22 -20 137 -90 234 -143
30 -16 62 -35 70 -41 8 -6 24 -16 35 -22 55 -30 1378 -803 1440 -841 11 -7 27
-16 35 -20 8 -4 44 -24 80 -45 121 -68 213 -81 255 -37 56 59 55 16 55 1319 0
1112 -1 1200 -18 1246 -36 103 -59 113 -184 77z"/>
</g>
</svg>
