<svg width="140" height="25" viewBox="0 0 140 25" fill="none" xmlns="http://www.w3.org/2000/svg">
<path d="M15.181 0.53299H14.079L0.867981 23.067L1.42298 24.007H27.698L28.246 23.067L15.181 0.53299ZM19.389 13.379V18.726L17.302 20.786V18.543L17.071 18.061L15.267 16.567V13.679L19.131 9.87099L22.493 15.666L20.664 17.473V13.379H19.389ZM13.55 20.772L5.62298 17.454L8.47798 12.59L16.021 18.835V22.747H13.933V21.351L13.55 20.772V20.772ZM15.267 3.20799L18.478 8.73599L15.267 11.905V3.20799ZM13.993 15.51L12.605 14.363V9.79899H11.331V13.28L9.13098 11.455L13.993 3.15499V15.51V15.51ZM4.98298 18.549L12.665 21.77V22.747H2.52698L4.98298 18.549ZM17.302 22.747V22.564L23.147 16.796L26.595 22.747H17.302V22.747Z" fill="#2E2B2C"/>
<path d="M52.19 20.388L45.465 4.14001H43.391L36.621 20.388H38.319L40.155 15.908H48.603L50.445 20.388H52.189H52.19ZM44.382 5.62701L47.982 14.436H40.769L44.382 5.62701V5.62701ZM66.74 8.48301C66.74 5.97901 64.593 4.14101 61.686 4.14101H54.818V20.389H56.468V13.543H63.787C64.067 13.546 64.334 13.657 64.533 13.851C64.731 14.047 64.845 14.309 64.85 14.586V20.389H66.475V13.543L65.227 12.239C65.7437 11.7638 66.1478 11.1792 66.41 10.528C66.672 9.87973 66.7848 9.1808 66.74 8.48301V8.48301ZM61.456 12.037H56.468V5.65301H61.449C63.714 5.65301 65.089 6.78801 65.089 8.71801C65.0765 9.1754 64.9719 9.62556 64.7813 10.0416C64.5908 10.4576 64.3182 10.8308 63.98 11.139C63.6391 11.4496 63.2397 11.689 62.8051 11.8432C62.3704 11.9974 61.9094 12.0633 61.449 12.037H61.456V12.037ZM77.164 20.623C80.823 20.623 82.843 18.563 83.405 15.818H81.668C81.291 17.494 80.222 19.117 77.276 19.117H77.044C73.266 19.117 71.266 16.008 71.266 12.265C71.266 8.52201 73.246 5.41901 77.044 5.41901H77.282C80.228 5.41901 81.648 7.20501 81.906 9.13601H83.557C83.372 6.11601 80.849 3.91901 77.189 3.91901C72.493 3.91901 69.641 7.51901 69.641 12.271C69.641 17.024 72.468 20.623 77.164 20.623ZM100.353 20.388L93.629 4.14001H91.575L84.779 20.388H86.476L88.319 15.908H96.767L98.609 20.388H100.353V20.388ZM92.546 5.62701L96.152 14.436H88.933L92.546 5.62701V5.62701ZM108.517 20.388C113.002 20.388 115.954 17.422 115.954 12.31C115.954 7.19901 113.002 4.14001 108.517 4.14001H102.857V20.388H108.517V20.388ZM104.508 5.65301H108.286C112.13 5.65301 114.303 8.02001 114.303 12.264C114.303 16.509 112.13 18.882 108.286 18.882H104.508V5.65301ZM120.954 4.14001H119.316V20.388H120.954V4.14001ZM139.131 20.388L132.407 4.14001H130.327L123.557 20.388H125.261L127.104 15.908H135.551L137.388 20.388H139.131V20.388ZM131.318 5.62701L134.93 14.436H127.711L131.318 5.62701V5.62701Z" fill="#2E2B2C"/>
</svg>
