<svg fill="#e9ebf0" version="1.1" id="Layer_1" xmlns="http://www.w3.org/2000/svg" xmlns:xlink="http://www.w3.org/1999/xlink" viewBox="0 0 496 496" xml:space="preserve" width="800px" height="800px" stroke="#e9ebf0"><g id="SVGRepo_bgCarrier" stroke-width="0"></g><g id="SVGRepo_tracerCarrier" stroke-linecap="round" stroke-linejoin="round"></g><g id="SVGRepo_iconCarrier"><g><g><g><path d="M440,328h-63.856c18.336-0.024,35.616-6.832,49.088-19.464C439.704,294.976,448,275.824,448,256v-32.28 C448,193,423,168,392.28,168h-32.56c-29.624,0-53.848,23.256-55.552,52.456c-3.44-2.032-7.264-3.48-11.368-4.096 c-6.808-10.192-18.192-16.36-30.688-16.36h-34.224c-14.296,0-27.256,5.808-36.648,15.192C186.992,188.496,163.872,168,136,168 h-32c-30.88,0-56,25.12-56,56v29.808c0,39.072,29.528,71.6,67.224,74.04c1.576,0.104,3.152,0.152,4.712,0.152H56 c-30.88,0-56,25.12-56,56v80h128v32h240v-32h128v-80C496,353.12,470.88,328,440,328z M391.36,344L376,363.192L360.64,344H391.36z M359.72,184h32.56c21.32,0,38.632,16.912,39.544,38.008c-36.688-7.8-74.968-7.8-111.656,0C321.088,200.92,338.4,184,359.72,184z M320,248v-9.584c36.712-8.368,75.264-8.368,112,0V256c0,15.648-6.288,30.16-17.712,40.864 c-11.408,10.696-26.36,16.032-42.032,15.016C342.952,309.984,320,284.472,320,253.808V248z M319.032,299.16 c12.232,16.328,30.904,27.312,52.2,28.688c1.568,0.104,3.144,0.152,4.704,0.152H312c-1.504,0-2.968,0.232-4.448,0.352 C313.464,319.6,317.368,309.616,319.032,299.16z M192,256v-4.12c0-19.784,16.096-35.88,35.88-35.88h34.224 c7.984,0,15.168,4.44,18.736,11.576l2.216,4.424H288c8.824,0,16,7.176,16,16v5.808v16.888c-7.408-2.464-13.432-8.288-16-16 L285.768,248h-17.08l-9.544,9.544c-4.16,4.16-9.704,6.456-15.592,6.456H192V256z M192,280h51.552 c10.168,0,19.712-3.96,26.904-11.144l4.304-4.304c5.64,11.792,16.528,20.064,29.24,22.568V288 c0,15.648-6.288,30.16-17.712,40.864c-11.408,10.696-26.368,16.008-42.032,15.016C214.952,341.984,192,316.472,192,285.808V280z M261.752,376l-4,16h-19.504l-4-16H261.752z M233.712,358.488c3.104,0.64,6.264,1.152,9.512,1.36 c1.576,0.104,3.152,0.152,4.712,0.152h-13.552C234.144,359.504,233.96,358.976,233.712,358.488z M261.616,360h-13.472 c4.792-0.008,9.504-0.496,14.104-1.416C262.016,359.04,261.84,359.536,261.616,360z M177.256,299.496 c1.928,10.592,6.072,20.384,11.888,28.912c-1.712-0.16-3.4-0.408-5.144-0.408h-63.856c18.336-0.024,35.616-6.832,49.088-19.464 C172.192,305.76,174.824,302.696,177.256,299.496z M64,224c0-22.056,17.944-40,40-40h32c22.056,0,40,17.944,40,40v14.696 c-7.408-2.464-13.432-8.288-16-16L157.768,216h-17.08l-9.544,9.544c-4.16,4.16-9.704,6.456-15.592,6.456H64V224z M116.256,311.88 C86.952,309.984,64,284.472,64,253.808V248h51.552c10.168,0,19.712-3.96,26.904-11.144l4.304-4.304 c5.64,11.792,16.528,20.064,29.24,22.568V256c0,15.648-6.288,30.16-17.712,40.864C146.88,307.56,131.92,312.896,116.256,311.88z M142.528,344c-3.312,9.288-12.112,16-22.528,16s-19.216-6.712-22.528-16H142.528z M128,448H64v-56H48v56H16v-64 c0-22.056,17.944-40,40-40h24.808c3.72,18.232,19.872,32,39.192,32s35.472-13.768,39.192-32H184c12.752,0,24.496,6.128,31.92,16 H184c-30.88,0-56,25.12-56,56V448z M192,480v-56h-16v56h-32v-64c0-22.056,17.944-40,40-40h33.752l6.104,24.424l-8.488,59.432 L245.584,480H192z M232.632,452.136L238.936,408h18.128l6.304,44.144L248,462.384L232.632,452.136z M352,480h-32v-56h-16v56 h-53.584l30.216-20.144l-8.488-59.432L278.248,376H312c22.056,0,40,17.944,40,40V480z M480,448h-32v-56h-16v56h-64v-32 c0-30.88-25.12-56-56-56h-31.92c7.424-9.872,19.168-16,31.92-16h28.16L376,388.808L411.84,344H440c22.056,0,40,17.944,40,40V448z "></path><rect x="216" y="32" width="144" height="16"></rect><rect x="136" y="32" width="64" height="16"></rect><rect x="136" y="64" width="224" height="16"></rect><rect x="344" y="96" width="16" height="16"></rect><rect x="136" y="96" width="192" height="16"></rect><path d="M128,144h90.584l16,40h26.832l16-40H368c13.232,0,24-10.768,24-24V24c0-13.232-10.768-24-24-24H128 c-13.232,0-24,10.768-24,24v96C104,133.232,114.768,144,128,144z M120,24c0-4.408,3.592-8,8-8h240c4.408,0,8,3.592,8,8v96 c0,4.408-3.592,8-8,8H266.584l-16,40h-5.168l-16-40H128c-4.408,0-8-3.592-8-8V24z"></path></g></g></g></g></svg>