<svg xmlns="http://www.w3.org/2000/svg" width="550" height="169" viewBox="0 0 550 169"><g fill="none" fill-rule="evenodd"><path fill="#151515" d="M162.837 71.828c2.579 2.138 6.483 3.207 11.717 3.207 2.357 0 4.458-.46 6.301-1.383 1.84-.922 3.408-2.138 4.698-3.65a15.764 15.764 0 0 0 2.928-5.14c.664-1.918.997-3.908.997-5.972 0-2.212-.241-4.273-.72-6.19-.48-1.919-1.253-3.597-2.32-5.034-1.07-1.437-2.453-2.578-4.146-3.427-1.696-.843-3.797-1.27-6.301-1.27-1.989 0-3.796.427-5.416 1.27-1.621.85-3.003 1.936-4.145 3.264a15.158 15.158 0 0 0-2.654 4.368c-.626 1.585-.94 3.114-.94 4.587v15.37zm-12.933-39.143h12.602l.33 5.861c.664-.736 1.494-1.508 2.488-2.321.995-.811 2.174-1.55 3.538-2.212 1.363-.662 2.91-1.215 4.643-1.66 1.73-.44 3.665-.662 5.801-.662 3.98 0 7.424.774 10.336 2.322 2.91 1.547 5.323 3.593 7.24 6.135 1.917 2.544 3.353 5.437 4.31 8.68a35.364 35.364 0 0 1 1.439 10.062c0 4.054-.59 7.52-1.769 10.394-1.18 2.874-2.653 5.382-4.422 7.518-2.948 3.537-6.173 6.007-9.672 7.409-3.5 1.399-7.093 2.102-10.777 2.102-1.696 0-3.15-.077-4.366-.223a26.038 26.038 0 0 1-3.316-.608 24.167 24.167 0 0 1-2.763-.885l-2.71-1.051v23.108h-12.932V32.685zm58.031 0h12.49l.333 6.524c.59-.734 1.344-1.547 2.265-2.432.922-.885 2.007-1.695 3.26-2.432 1.254-.736 2.71-1.363 4.368-1.88 1.657-.516 3.553-.774 5.692-.774 1.253 0 2.376.074 3.37.222a16.09 16.09 0 0 1 3.041.772l-2.653 12.275a12.126 12.126 0 0 0-2.707-.777c-.923-.143-2.01-.22-3.26-.22-1.77 0-3.467.297-5.086.885-1.623.59-3.022 1.437-4.2 2.542-1.18 1.107-2.12 2.435-2.82 3.982-.7 1.547-1.049 3.281-1.049 5.196v27.975h-13.044V32.685m72.182 20.454c0-1.325-.26-2.652-.775-3.98a11.261 11.261 0 0 0-2.265-3.592c-.996-1.067-2.267-1.951-3.815-2.653-1.546-.7-3.316-1.053-5.305-1.053-2.138 0-4.034.353-5.692 1.053-1.658.702-3.04 1.586-4.145 2.653-1.106 1.071-1.954 2.268-2.543 3.593-.59 1.327-.885 2.654-.885 3.979h25.425zm12.712 23.885c-.222.22-.83.829-1.824 1.824-.995.995-2.432 2.043-4.311 3.15-1.88 1.108-4.275 2.1-7.185 2.985-2.913.885-6.395 1.33-10.446 1.33-4.13 0-7.887-.703-11.275-2.102-3.391-1.402-6.284-3.336-8.677-5.806-2.395-2.47-4.239-5.437-5.527-8.9-1.29-3.464-1.935-7.298-1.935-11.5 0-3.833.645-7.388 1.935-10.668 1.288-3.282 3.094-6.136 5.416-8.57 2.321-2.433 5.085-4.348 8.29-5.75 3.206-1.4 6.761-2.102 10.667-2.102 4.715 0 8.713.87 11.994 2.599 3.277 1.734 5.913 4 7.902 6.802 1.99 2.8 3.428 5.97 4.312 9.509a44.505 44.505 0 0 1 1.326 10.832v1.883h-38.688c0 1.918.424 3.646 1.271 5.196a13.266 13.266 0 0 0 3.316 3.98 14.931 14.931 0 0 0 4.643 2.541c1.73.593 3.444.885 5.14.885 2.504 0 4.698-.235 6.577-.716 1.88-.48 3.482-1.033 4.808-1.66 1.327-.626 2.413-1.288 3.26-1.992.847-.698 1.494-1.268 1.936-1.713l7.075 7.963zm8.621-66.23h5.305v68.773h41.784v4.976H301.45V10.794m52.945 73.749h4.976v-50.86h-4.976v50.86zm-.994-61.476h6.964V15.77h-6.964v7.296zM409 39.319a24.178 24.178 0 0 0-3.648-1.105c-1.178-.294-2.598-.57-4.256-.828-1.658-.258-3.556-.39-5.692-.39-3.095 0-6.006.5-8.732 1.494-2.727.996-5.14 2.45-7.24 4.368-2.1 1.918-3.759 4.297-4.974 7.13-1.216 2.84-1.825 6.066-1.825 9.677 0 2.875.333 5.6.995 8.18.664 2.581 1.714 4.868 3.151 6.857 1.437 1.99 3.297 3.576 5.582 4.752 2.284 1.181 5.085 1.77 8.4 1.77 3.242 0 6.006-.609 8.291-1.823 2.284-1.216 4.162-2.69 5.638-4.423 1.473-1.73 2.56-3.538 3.26-5.418.7-1.88 1.05-3.445 1.05-4.699V39.32zm-34.598 59.044c1.178.957 3.021 2.007 5.527 3.15 2.504 1.141 5.82 1.714 9.949 1.714 3.683 0 6.742-.496 9.174-1.493 2.432-.993 4.384-2.358 5.86-4.09 1.472-1.731 2.503-3.777 3.094-6.134.588-2.364.883-4.942.883-7.742v-7.741a18.15 18.15 0 0 1-4.531 4.976c-1.547 1.254-3.482 2.379-5.804 3.371-2.32.998-5.103 1.494-8.345 1.494-3.907 0-7.296-.68-10.17-2.046-2.874-1.36-5.25-3.223-7.13-5.583-1.879-2.358-3.278-5.143-4.199-8.347-.923-3.207-1.381-6.651-1.381-10.34 0-4.126.718-7.865 2.154-11.22 1.437-3.354 3.427-6.21 5.969-8.568 2.543-2.36 5.527-4.184 8.953-5.475 3.427-1.29 7.13-1.936 11.11-1.936 3.683 0 7.165.37 10.446 1.107 3.277.74 5.913 1.547 7.903 2.432v47.544c0 3.76-.442 7.168-1.326 10.227-.885 3.058-2.304 5.641-4.256 7.74-1.953 2.1-4.46 3.721-7.516 4.865-3.06 1.143-6.763 1.716-11.109 1.716-2.433 0-4.643-.205-6.634-.61-1.988-.406-3.721-.922-5.195-1.55-1.474-.625-2.746-1.27-3.812-1.932-1.07-.665-1.9-1.256-2.487-1.77l2.873-3.759zm49.52-87.569h4.976v33.059c.588-1.107 1.417-2.34 2.486-3.705 1.067-1.36 2.413-2.614 4.035-3.76 1.62-1.14 3.5-2.099 5.637-2.874 2.137-.773 4.604-1.16 7.407-1.16 3.61 0 6.65.515 9.119 1.549 2.467 1.033 4.477 2.526 6.023 4.477 1.548 1.954 2.654 4.312 3.316 7.077.664 2.764.996 5.84.996 9.231v29.855h-4.975V56.346c0-3.76-.331-6.89-.995-9.396-.663-2.506-1.64-4.496-2.928-5.971a10.315 10.315 0 0 0-4.753-3.097c-1.88-.588-4.036-.885-6.467-.885-3.243 0-6.043.665-8.401 1.99-2.359 1.33-4.31 3.025-5.859 5.089a22.265 22.265 0 0 0-3.481 6.853c-.774 2.507-1.16 4.977-1.16 7.41v26.204h-4.976V10.794m58.364 27.53h-10.17v-4.641h10.17V16.876h4.975v16.807h16.8v4.641h-16.8v29.412c0 3.023.22 5.437.663 7.242.443 1.806 1.087 3.172 1.934 4.092.847.92 1.824 1.53 2.929 1.821 1.106.297 2.321.445 3.648.445 1.841 0 3.426-.333 4.753-.997 1.327-.662 2.653-1.806 3.98-3.427l3.094 2.987c-1.475 1.918-3.15 3.39-5.029 4.421-1.878 1.031-4.33 1.548-7.35 1.548-1.99 0-3.834-.24-5.528-.716a9.073 9.073 0 0 1-4.31-2.655c-1.18-1.289-2.1-3.022-2.764-5.196-.663-2.174-.995-4.957-.995-8.348V38.324m29.735 36.266a22.357 22.357 0 0 0 7.35 4.92c2.763 1.146 6.025 1.714 9.783 1.714 2.062 0 4.015-.2 5.858-.609 1.842-.404 3.464-.992 4.863-1.767 1.4-.775 2.506-1.752 3.318-2.931.808-1.179 1.215-2.58 1.215-4.201 0-1.842-.37-3.353-1.105-4.532-.738-1.18-1.824-2.159-3.262-2.93-1.436-.775-3.243-1.438-5.415-1.99a504.73 504.73 0 0 0-7.462-1.827c-2.359-.513-4.514-1.122-6.466-1.823-1.953-.698-3.63-1.565-5.03-2.598a11.037 11.037 0 0 1-3.316-3.926c-.812-1.585-1.216-3.555-1.216-5.915 0-2.283.515-4.293 1.548-6.027 1.03-1.729 2.412-3.187 4.145-4.366 1.73-1.179 3.72-2.046 5.97-2.598a29.199 29.199 0 0 1 7.018-.83c3.98 0 7.497.738 10.557 2.211 3.057 1.476 5.544 3.355 7.46 5.639l-3.426 3.097a21.648 21.648 0 0 0-6.134-4.645c-2.322-1.178-5.105-1.769-8.347-1.769-1.622 0-3.243.13-4.863.386-1.622.26-3.096.74-4.421 1.437-1.327.704-2.396 1.66-3.206 2.875-.812 1.217-1.216 2.82-1.216 4.813 0 1.621.459 2.982 1.382 4.09.92 1.106 2.117 2.027 3.592 2.764 1.473.736 3.168 1.344 5.086 1.825 1.914.479 3.829.939 5.747 1.381 2.062.44 4.146.995 6.246 1.658 2.1.664 4.015 1.532 5.747 2.597 1.731 1.07 3.132 2.435 4.2 4.092 1.068 1.658 1.603 3.744 1.603 6.248 0 2.58-.59 4.793-1.768 6.634-1.18 1.844-2.727 3.373-4.643 4.588-1.917 1.217-4.09 2.12-6.521 2.708-2.433.59-4.864.885-7.295.885-4.792 0-8.863-.7-12.215-2.1-3.354-1.399-6.209-3.28-8.568-5.639l3.207-3.539"/><path fill="#1CAE90" d="M113.862 33.112l6.16-10.675c-10.561-6.112-22.823-9.612-35.903-9.612v12.324c10.835 0 20.993 2.9 29.743 7.963"/><path fill="#0B984E" d="M107.7 43.787l6.162-10.675c-8.75-5.064-18.908-7.963-29.743-7.963v12.324c8.59 0 16.644 2.3 23.581 6.314"/><path fill="#98A539" d="M113.862 33.112L107.7 43.787a47.393 47.393 0 0 1 17.262 17.267l10.672-6.163a59.774 59.774 0 0 0-21.772-21.779"/><path fill="#177645" d="M84.12 49.797a34.668 34.668 0 0 1 17.419 4.665l6.161-10.675a46.932 46.932 0 0 0-23.58-6.314v12.324"/><path fill="#A0872F" d="M114.29 67.217l10.672-6.163A47.393 47.393 0 0 0 107.7 43.787l-6.161 10.675a35.012 35.012 0 0 1 12.752 12.755"/><path fill="#F2AF40" d="M118.953 84.642h12.322a46.955 46.955 0 0 0-6.313-23.588l-10.671 6.163a34.687 34.687 0 0 1 4.662 17.425"/><path fill="#156A44" d="M95.377 65.136l6.162-10.674a34.668 34.668 0 0 0-17.42-4.665v12.325c4.101 0 7.946 1.098 11.258 3.014"/><path fill="#915C2D" d="M103.619 73.38l10.672-6.163a35.012 35.012 0 0 0-12.752-12.755l-6.162 10.674a22.626 22.626 0 0 1 8.242 8.245"/><path fill="#E49133" d="M103.619 95.903l10.672 6.163a34.691 34.691 0 0 0 4.662-17.424h-12.321c0 4.102-1.097 7.948-3.013 11.26"/><path fill="#E5712C" d="M106.632 84.642h12.321a34.687 34.687 0 0 0-4.662-17.425l-10.672 6.164a22.42 22.42 0 0 1 3.013 11.26"/><path fill="#DD7D2D" d="M89.214 93.47l6.163 10.676a22.619 22.619 0 0 0 8.242-8.243l-10.675-6.165a10.243 10.243 0 0 1-3.73 3.731"/><path fill="#4B3228" d="M89.214 75.813l6.163-10.677a22.408 22.408 0 0 0-11.258-3.014v12.324c1.856 0 3.596.5 5.095 1.367"/><path fill="#DB4F31" d="M94.311 84.642h12.32a22.42 22.42 0 0 0-3.012-11.261l-10.675 6.163c.868 1.5 1.367 3.24 1.367 5.098"/><path fill="#834F32" d="M92.944 79.544l10.675-6.163a22.626 22.626 0 0 0-8.242-8.245l-6.163 10.677a10.243 10.243 0 0 1 3.73 3.731"/><path fill="#DF562B" d="M92.944 89.738l10.675 6.165a22.424 22.424 0 0 0 3.013-11.261H94.31a10.14 10.14 0 0 1-1.367 5.096"/><path fill="#168045" d="M60.538 43.787a46.93 46.93 0 0 1 23.581-6.314V25.15c-10.835 0-20.993 2.9-29.742 7.963a59.764 59.764 0 0 0-21.773 21.78c-5.063 8.75-7.962 18.911-7.962 29.75 0 10.838 2.899 20.998 7.962 29.75l51.515-29.75H36.964a46.955 46.955 0 0 1 6.311-23.588 47.395 47.395 0 0 1 17.263-17.267"/><path fill="#18A08F" d="M54.377 33.112c8.749-5.064 18.907-7.963 29.742-7.963V12.825c-13.08 0-25.342 3.5-35.904 9.612a72.157 72.157 0 0 0-26.283 26.291c-6.111 10.564-9.61 22.83-9.61 35.914 0 13.083 3.499 25.348 9.61 35.913a72.155 72.155 0 0 0 26.283 26.29L84.12 84.642l-51.515 29.75c-5.063-8.752-7.962-18.912-7.962-29.75 0-10.839 2.899-21 7.962-29.75a59.764 59.764 0 0 1 21.773-21.78"/><path fill="#0EB1D1" d="M42.054 11.762A84.54 84.54 0 0 0 11.26 42.565C4.1 54.942 0 69.313 0 84.642c0 15.328 4.1 29.698 11.26 42.076a84.544 84.544 0 0 0 30.794 30.802c12.374 7.162 26.74 11.263 42.065 11.263V84.642l-35.904 62.203a72.155 72.155 0 0 1-26.283-26.29c-6.111-10.565-9.61-22.83-9.61-35.913 0-13.084 3.499-25.35 9.61-35.914a72.157 72.157 0 0 1 26.283-26.29c10.562-6.113 22.824-9.613 35.904-9.613V.5C68.795.5 54.428 4.6 42.054 11.762"/><path fill="#245438" d="M84.12 49.797a34.664 34.664 0 0 0-17.42 4.665 35.002 35.002 0 0 0-12.753 12.755L84.12 84.642 72.861 65.136a22.404 22.404 0 0 1 11.258-3.014V49.797"/><path fill="#392C24" d="M89.214 75.813a10.146 10.146 0 0 0-5.095-1.367v10.196l5.095-8.829"/><path fill="#1B2D25" d="M72.861 65.136l11.258 19.506v-22.52a22.404 22.404 0 0 0-11.258 3.014"/><path fill="#DB4F31" d="M84.12 84.642v10.194c1.855 0 3.595-.499 5.094-1.367l-5.095-8.827"/><path fill="#156A44" d="M66.7 54.462a34.664 34.664 0 0 1 17.42-4.665V37.473a46.93 46.93 0 0 0-23.582 6.314 47.395 47.395 0 0 0-17.263 17.267 46.955 46.955 0 0 0-6.311 23.588h47.155L53.947 67.217A35.002 35.002 0 0 1 66.7 54.462"/><path fill="#882C32" d="M84.12 84.642l8.824-5.098a10.243 10.243 0 0 0-3.73-3.73l-5.095 8.828"/><path fill="#B7243B" d="M84.12 84.642l8.824 5.096c.868-1.5 1.367-3.24 1.367-5.096H84.119"/><path fill="#D8322C" d="M89.214 93.47a10.243 10.243 0 0 0 3.73-3.732l-8.825-5.096 5.095 8.827"/><path fill="#B7243B" d="M94.311 84.642c0-1.858-.499-3.598-1.367-5.098l-8.825 5.098h10.192"/></g></svg>
