<svg xmlns="http://www.w3.org/2000/svg" viewBox="71.8 56.6 259.9 61.9" width="519.8" height="123.8"><style>:root{--color-black-800:rgb(24 24 24);--color-red-600:rgb(228 0 44);--color-primary:var(--color-red-600);--color-text:var(--color-black-800)}.primary{fill:var(--color-primary);stroke-width:0}@media screen and (forced-colors:active){:root{--color-primary:CanvasText;--color-text:CanvasText}}</style><g style="fill:var(--color-text)"><path d="M156.7 83c.1 2-.7 4-2.2 5.3-1.8 1.3-4 2-6.2 1.8h-2v7.7h-4.6V76.2h6.9c2.1-.2 4.3.4 6 1.7 1.4 1.3 2.2 3.1 2.1 5.1zm-10.4 3.4h1.5c1.1.1 2.2-.2 3.2-.8.7-.6 1.1-1.5 1.1-2.4.1-.9-.2-1.8-.9-2.4-.8-.6-1.8-.9-2.8-.8h-2.1v6.4zm23.3 3.1v8.3h-4.5V76.2h6.3c2.9 0 5.1.5 6.5 1.6 2.4 2.1 2.8 5.6 1.1 8.3-.8 1-1.8 1.8-3 2.3 3.3 4.9 5.4 8 6.4 9.4h-5.1l-5.2-8.3h-2.5zm0-3.7h1.5c1.1.1 2.2-.2 3.2-.7.7-.5 1.1-1.4 1-2.3.1-.9-.3-1.7-1.1-2.2-1-.5-2.1-.7-3.3-.7h-1.4l.1 5.9zm32.1 12h-12.5V76.2h12.5V80h-7.9v4.8h7.3v3.8h-7.3v5.6h7.9v3.6z" class="primary"/><path d="M212.3 88.4v9.4h-1.5V76.2h5.1c2.7 0 4.6.5 5.9 1.5 1.3 1.1 2 2.8 1.9 4.5 0 1.3-.4 2.6-1.1 3.7-.9 1.1-2.1 1.8-3.5 2.2l5.9 9.8h-1.8l-5.6-9.4-5.3-.1zm0-1.3h4.1c1.5.1 3-.3 4.2-1.2 1-.9 1.6-2.2 1.5-3.6.1-1.4-.4-2.7-1.5-3.6-1-.7-2.6-1.1-4.8-1.1h-3.6l.1 9.5zm32.6 10.7h-11.8V76.2h11.8v1.4h-10.3v8.2h9.7v1.4h-9.7v9.3h10.3v1.3zm21.9-21.6h1.6l-8 21.6h-1.3L251 76.2h1.6l5.5 14.7c.8 2.2 1.4 3.9 1.7 5 .2-.7.6-1.9 1.2-3.4l5.8-16.3zm9 21.6V76.2h1.5v21.6h-1.5zm23.6 0h-11.8V76.2h11.8v1.4h-10.3v8.2h9.7v1.4h-9.7v9.3h10.3v1.3zm26.4 0h-1.2l-4.8-16.7c-.4-1.4-.7-2.5-.9-3.4-.2.9-.4 1.9-.7 3-.3 1.1-1.9 6.8-4.8 17.1h-1.3l-6-21.6h1.6l3.8 13.9.4 1.6c.1.5.2.9.4 1.3s.2.8.3 1.2.2.8.2 1.2c.2-1.3.7-3.4 1.5-6.1l3.7-13.1h1.7l4.3 15c.5 1.7.9 3.1 1.1 4.2.1-.7.3-1.5.5-2.3s1.7-6.5 4.6-17h1.5l-5.9 21.7z"/></g><g style="fill:none;stroke:var(--color-text)"><path d="M109.9 114.7H74c-.9 0-1.7-.8-1.7-1.7V58.8c0-.9.8-1.7 1.7-1.7h44.6c.9 0 1.7.8 1.7 1.7V113"/><path class="primary" d="m105.9 118.5 6.5-3.8-6.5-3.8"/><path d="M83 72h26.9M83 86.1h26.9M83 100.3h26.9"/></g></svg>