<?xml version="1.0" encoding="UTF-8" standalone="no"?>
<svg
   width="401.99539"
   height="705"
   viewBox="0 0 401.99539 705"
   version="1.1"
   id="svg13"
   sodipodi:docname="sciety-pattern-right.svg"
   inkscape:version="1.3 (0e150ed6c4, 2023-07-21)"
   xmlns:inkscape="http://www.inkscape.org/namespaces/inkscape"
   xmlns:sodipodi="http://sodipodi.sourceforge.net/DTD/sodipodi-0.dtd"
   xmlns:xlink="http://www.w3.org/1999/xlink"
   xmlns="http://www.w3.org/2000/svg"
   xmlns:svg="http://www.w3.org/2000/svg">
  <sodipodi:namedview
     id="namedview13"
     pagecolor="#ffffff"
     bordercolor="#666666"
     borderopacity="1.0"
     inkscape:showpageshadow="2"
     inkscape:pageopacity="0.0"
     inkscape:pagecheckerboard="true"
     inkscape:deskcolor="#d1d1d1"
     showgrid="false"
     inkscape:zoom="0.88503086"
     inkscape:cx="-83.047951"
     inkscape:cy="358.74455"
     inkscape:window-width="2538"
     inkscape:window-height="1387"
     inkscape:window-x="8"
     inkscape:window-y="8"
     inkscape:window-maximized="1"
     inkscape:current-layer="svg13" />
  <title
     id="title1" />
  <defs
     id="defs1">
    <rect
       id="path-1"
       x="0"
       y="0"
       width="372"
       height="648" />
  </defs>
  <g
     id="sciety-pattern-right"
     stroke="none"
     stroke-width="0.919149"
     fill="none"
     fill-rule="evenodd"
     transform="matrix(1.087963,0,0,1.087963,-2.7268519,0)">
    <mask
       id="mask-2"
       fill="#ffffff">
      <use
         xlink:href="#path-1"
         id="use1" />
    </mask>
    <g
       id="Rectangle"
       style="stroke-width:0.919149" />
    <g
       id="Group"
       mask="url(#mask-2)"
       style="stroke-width:0.919149">
      <g
         transform="translate(31)"
         id="g13"
         style="stroke-width:0.919149">
        <polygon
           id="Fill-2"
           fill="#fefefe"
           points="338.931,461.322 345.069,461.322 341.969,456.678 "
           style="stroke-width:0.919149" />
        <polygon
           id="Fill-6"
           fill="#b44126"
           points="155,108.1852 185.99533,162 217,108.1723 216.89948,108 155.10403,108 "
           style="stroke-width:0.919149" />
        <polygon
           id="Fill-7"
           fill="#f69a71"
           points="310,54 372,54 340.99883,0 "
           style="stroke-width:0.919149" />
        <polygon
           id="Fill-8"
           fill="#b44126"
           points="248.0076,162 217,215.89319 217.06082,216 278.9228,216 279,215.86737 "
           style="stroke-width:0.919149" />
        <polygon
           id="Fill-10"
           fill="#f3783c"
           points="341,108 310,54 279,108 "
           style="stroke-width:0.919149" />
        <polygon
           id="Fill-11"
           fill="#f3783c"
           points="186.01871,54 186,54.035349 216.92401,108 217.05612,108 248,54.009426 247.99299,54 "
           style="stroke-width:0.919149" />
        <polygon
           id="Fill-12"
           fill="#f69a71"
           points="248.01987,54 248,54.031814 278.92577,108 279.06137,108 310,54.012961 309.99415,54 "
           style="stroke-width:0.919149" />
        <polygon
           id="polygon1"
           fill="#f69a71"
           points="310.01987,54 310,54.031814 340.92577,108 341.06137,108 372,54.012961 371.99415,54 "
           style="stroke-width:0.919149" />
        <polygon
           id="Fill-14"
           fill="#b44126"
           points="310,162 372,162 341.00117,108 "
           style="stroke-width:0.919149" />
        <polygon
           id="Fill-15"
           fill="#f69a71"
           points="217.11576,108 217,108.20046 247.99065,162 279,108.17819 278.8971,108 "
           style="stroke-width:0.919149" />
        <polygon
           id="polygon2"
           fill="#f69a71"
           points="155.11576,0 155,0.20046023 185.99065,54 217,0.17818687 216.8971,0 "
           style="stroke-width:0.919149" />
        <polygon
           id="Fill-16"
           fill="#f3783c"
           points="279,108 248,162 310,162 "
           style="stroke-width:0.919149" />
        <polygon
           id="Fill-18"
           fill="#f69a71"
           points="228.08183,196.68632 248,162.01999 247.98713,162 186.02573,162 186,162.04585 216.99357,216 "
           style="stroke-width:0.919149" />
        <polygon
           id="Fill-19"
           fill="#f69a71"
           points="371.98363,162 310.02573,162 310,162.04586 340.99532,216 372,162.02822 "
           style="stroke-width:0.919149" />
        <polygon
           id="Fill-21"
           fill="#f3783c"
           points="310.00585,162 279,215.88967 279.06082,216 340.92514,216 341,215.86971 "
           style="stroke-width:0.919149" />
        <polygon
           id="Fill-22"
           fill="#f69a71"
           points="323.92925,245.72983 341,216 279,216 310.00352,270 "
           style="stroke-width:0.919149" />
        <polygon
           id="Fill-23"
           fill="#f69a71"
           points="168.92925,191.72983 186,162 124,162 155.00352,216 "
           style="stroke-width:0.919149" />
        <polygon
           id="Fill-26"
           fill="#eb5e2a"
           points="124.01172,270 155,216 93,216 "
           style="stroke-width:0.919149" />
        <polygon
           id="Fill-27"
           fill="#f3783c"
           points="248,270 310,270 279.01581,216 278.98419,216 "
           style="stroke-width:0.919149" />
        <polygon
           id="Fill-28"
           fill="#f3783c"
           points="154.98068,216 124,270 186,270 155.01932,216 "
           style="stroke-width:0.919149" />
        <polygon
           id="Fill-29"
           fill="#f69a71"
           points="216.98244,216 186,270 248,270 217.01756,216 "
           style="stroke-width:0.919149" />
        <polygon
           id="Fill-30"
           fill="#eb5e2a"
           points="279.07979,0 279.04693,0 248,54 310,54 310,53.778481 "
           style="stroke-width:0.919149" />
        <polygon
           id="Fill-31"
           fill="#f69a71"
           points="247.95088,486 248,485.91544 216.99941,432 186,485.91544 186.05146,486 "
           style="stroke-width:0.919149" />
        <polygon
           id="Fill-32"
           fill="#f69a71"
           points="216.95088,540 217,539.91544 185.99941,486 155,539.91544 155.05146,540 "
           style="stroke-width:0.919149" />
        <polygon
           id="Fill-34"
           fill="#b44126"
           points="279,323.90604 279.05498,324 340.94853,324 341,323.90957 309.99824,270 "
           style="stroke-width:0.919149" />
        <polygon
           id="Fill-35"
           fill="#b44126"
           points="217.00702,324 248,270.04818 247.97076,270 186.03977,270 186,270.06815 "
           style="stroke-width:0.919149" />
        <polygon
           id="polygon3"
           fill="#b44126"
           points="62.007018,594 93,540.04818 92.970759,540 31.039768,540 31,540.06815 "
           style="stroke-width:0.919149" />
        <polygon
           id="Fill-36"
           fill="#f69a71"
           points="217,323.91309 217.05263,324 278.94503,324 279,323.90957 248,270 217,323.90957 "
           style="stroke-width:0.919149" />
        <polygon
           id="Fill-38"
           fill="#f69a71"
           points="124.13567,378 185.87134,378 186,377.77396 154.99532,324 124,377.76342 "
           style="stroke-width:0.919149" />
        <polygon
           id="Fill-39"
           fill="#f69a71"
           points="107.21699,564.75133 124.00177,594 155,540 93,540 "
           style="stroke-width:0.919149" />
        <polygon
           id="polygon4"
           fill="#f69a71"
           points="14.216988,510.75133 31.001765,540 62,486 0,486 "
           style="stroke-width:0.919149" />
        <polygon
           id="Fill-41"
           fill="#b44126"
           points="248,594 279,540 217,540 "
           style="stroke-width:0.919149" />
        <polygon
           id="polygon5"
           fill="#b44126"
           points="341,540 372,486 310,486 "
           style="stroke-width:0.919149" />
        <polygon
           id="Fill-45"
           fill="#f69a71"
           points="279.99474,324 249,377.75755 249.13919,378 310.86782,378 311,377.77044 "
           style="stroke-width:0.919149" />
        <polygon
           id="Fill-46"
           fill="#f69a71"
           points="310,594 341,540 279,540 "
           style="stroke-width:0.919149" />
        <polygon
           id="Fill-47"
           fill="#f3783c"
           points="371.96958,594 372,593.9458 341.17141,540 340.87071,540 310,593.84682 310.08541,594 "
           style="stroke-width:0.919149" />
        <polygon
           id="Fill-49"
           fill="#f3783c"
           points="247.86783,378 248,377.77044 216.99649,324 186,377.76107 186.13919,378 "
           style="stroke-width:0.919149" />
        <polygon
           id="polygon6"
           fill="#f3783c"
           points="123.86783,486 124,485.77044 92.996491,432 62,485.76107 62.139187,486 "
           style="stroke-width:0.919149" />
        <polygon
           id="polygon7"
           fill="#f3783c"
           points="92.867831,648 93,647.77044 61.996491,594 31,647.76107 31.139187,648 "
           style="stroke-width:0.919149" />
        <polygon
           id="Fill-50"
           fill="#f69a71"
           points="310.00937,378 341,324 279,324 "
           style="stroke-width:0.919149" />
        <polygon
           id="Fill-51"
           fill="#f3783c"
           points="279.00881,432 310,378 248,378 270.74379,417.60236 "
           style="stroke-width:0.919149" />
        <polygon
           id="Fill-52"
           fill="#f3783c"
           points="247.99883,486 279,432 217,432 222.81243,442.12051 "
           style="stroke-width:0.919149" />
        <polygon
           id="Fill-53"
           fill="#f3783c"
           points="155,540 185.99882,594 217,540 "
           style="stroke-width:0.919149" />
        <polygon
           id="Fill-54"
           fill="#b44126"
           points="155,431.93166 155.0386,432 216.97427,432 217,431.95758 186.07602,378 185.9076,378 "
           style="stroke-width:0.919149" />
        <polygon
           id="polygon8"
           fill="#b44126"
           points="31,431.93166 31.038597,432 92.974269,432 93,431.95758 62.076023,378 61.907602,378 "
           style="stroke-width:0.919149" />
        <polygon
           id="Fill-55"
           fill="#f69a71"
           points="124.12982,486 185.89942,486 186,485.82187 154.98889,432 124,485.77968 "
           style="stroke-width:0.919149" />
        <polygon
           id="Fill-56"
           fill="#f69a71"
           points="186,378 217.0094,432 248,378 "
           style="stroke-width:0.919149" />
        <polygon
           id="Fill-57"
           fill="#f3783c"
           points="93,647.69665 93.177674,648 154.84454,648 155,647.73179 124.03916,594 123.94214,594 93,647.69313 "
           style="stroke-width:0.919149" />
        <polygon
           id="Fill-58"
           fill="#f69a71"
           points="341.02927,432 310,485.79492 310.11942,486 371.95785,486 372,485.92734 "
           style="stroke-width:0.919149" />
        <polygon
           id="Fill-59"
           fill="#f69a71"
           points="318.55865,392.90063 341.00411,432 372,378 310,378 "
           style="stroke-width:0.919149" />
        <polygon
           id="Fill-60"
           fill="#f3783c"
           points="309.92692,486 279,539.65683 279.19645,540 340.8129,540 341,539.67674 310.05905,486 "
           style="stroke-width:0.919149" />
        <polygon
           id="polygon9"
           fill="#f3783c"
           points="247.92692,486 217,539.65683 217.19645,540 278.8129,540 279,539.67674 248.05905,486 "
           style="stroke-width:0.919149" />
        <polygon
           id="Fill-61"
           fill="#f69a71"
           points="186,594 216.99824,648 248,594 "
           style="stroke-width:0.919149" />
        <polygon
           id="polygon10"
           fill="#f69a71"
           points="124,594 154.99824,648 186,594 "
           style="stroke-width:0.919149" />
        <polygon
           id="Fill-64"
           fill="#f3783c"
           points="248,594 278.9959,648 310,594 "
           style="stroke-width:0.919149" />
        <polygon
           id="Fill-68"
           fill="#f69a71"
           points="279,540 310,486 248,486 "
           style="stroke-width:0.919149" />
        <polygon
           id="Fill-69"
           fill="#b44126"
           points="278.84454,648 279,647.72827 248.04208,594 247.94506,594 217,647.7025 217.17183,648 "
           style="stroke-width:0.919149" />
        <polygon
           id="Fill-70"
           fill="#eb5e2a"
           points="310,270 340.99941,324 372,270 "
           style="stroke-width:0.919149" />
        <polygon
           id="Fill-71"
           fill="#f69a71"
           points="340.8422,648 341,647.72242 310.04559,594 309.94857,594 279,647.70953 279.16716,648 "
           style="stroke-width:0.919149" />
        <polygon
           id="Fill-73"
           fill="#eb5e2a"
           points="340.99591,324 310,377.74818 310.14506,378 371.8643,378 372,377.7681 "
           style="stroke-width:0.919149" />
        <polygon
           id="Fill-74"
           fill="#b44126"
           points="340.94151,432.0991 341,432 340.88654,432 279,432.17372 279.04211,432.24484 289.87705,451.15272 289.88758,451.17137 309.84735,486 309.9538,485.81695 340.85847,432.24484 "
           style="stroke-width:0.919149" />
        <polygon
           id="Fill-76"
           fill="#f3783c"
           points="93,107.83033 123.83866,54 124.13913,54 155,107.86921 154.92517,108 93.097039,108 "
           style="stroke-width:0.919149" />
        <polygon
           id="polygon11"
           fill="#f69a71"
           points="93,323.83033 123.83866,270 124.13913,270 155,323.86921 154.92517,324 93.097039,324 "
           style="stroke-width:0.919149" />
        <polygon
           id="polygon12"
           fill="#eb5e2a"
           points="310,594 340.99941,648 372,594 "
           style="stroke-width:0.919149" />
        <polygon
           id="Fill-40"
           fill="#f3783c"
           points="93.126301,432 154.89709,432 155,431.82188 123.98947,378 93,431.78321 "
           style="stroke-width:0.919149" />
        <polygon
           id="polygon13"
           fill="#eb5e2a"
           points="340.99591,216 310,269.74818 310.14506,270 371.8643,270 372,269.7681 "
           style="stroke-width:0.919149" />
      </g>
    </g>
  </g>
</svg>
