<svg fill="#e9ebf0" height="800px" width="800px" version="1.1" id="Capa_1" xmlns="http://www.w3.org/2000/svg" xmlns:xlink="http://www.w3.org/1999/xlink" viewBox="0 0 490 490" xml:space="preserve"><g id="SVGRepo_bgCarrier" stroke-width="0"></g><g id="SVGRepo_tracerCarrier" stroke-linecap="round" stroke-linejoin="round"></g><g id="SVGRepo_iconCarrier"><g><path d="M329.679,307.94c0.718,0,1.45-0.116,2.188-0.349l94.525-30.905c3.675-1.2,5.688-5.175,4.49-8.86 c-0.94-2.895-3.624-4.841-6.678-4.841c-0.74,0-1.476,0.117-2.186,0.349L327.5,294.237c-1.787,0.581-3.238,1.822-4.087,3.495 c-0.85,1.673-0.995,3.578-0.411,5.359C323.938,305.992,326.62,307.94,329.679,307.94z"></path><path d="M329.679,332.246c0.722,0,1.454-0.117,2.186-0.35l47.282-15.45c3.671-1.207,5.686-5.181,4.492-8.862 c-0.948-2.897-3.632-4.842-6.676-4.842c-0.741,0-1.477,0.118-2.187,0.35l-47.274,15.45c-1.788,0.582-3.24,1.823-4.089,3.495 c-0.85,1.673-0.995,3.578-0.411,5.359C323.938,330.296,326.62,332.246,329.679,332.246z"></path><path d="M460.859,277.978v-53.06c0-2.247-1.085-4.374-2.904-5.691c-1.817-1.311-4.196-1.682-6.315-0.986l-17.978,5.877 c-19.365-22.194-45.978-35.464-75.25-37.569c7.601-6.253,14.26-13.556,19.823-21.743c1.532,0.292,3.095,0.439,4.653,0.439 c13.557,0,24.585-11.032,24.585-24.593c0-8.725-4.637-16.792-12.146-21.217c0.524-4.169,0.791-8.422,0.791-12.653 c0-56.813-46.219-103.032-103.028-103.032c-56.802,0-103.013,46.22-103.013,103.032c0,4.175,0.265,8.428,0.786,12.649 c-7.511,4.425-12.148,12.493-12.148,21.221c0,13.561,11.033,24.593,24.595,24.593c1.546,0,3.1-0.148,4.634-0.439 c5.669,8.325,12.444,15.72,20.17,22.019c-29.425,1.892-56.232,15.041-75.794,37.231l-17.785-5.814 c-2.12-0.698-4.492-0.328-6.312,0.988c-1.813,1.32-2.896,3.447-2.896,5.688v53.06c-16.42,1.225-29.146,14.851-29.146,31.431v13.794 c0,16.589,12.725,30.221,29.146,31.441v72.028c0,3.044,1.943,5.728,4.838,6.68L290.9,485.905l0.086,0.025 c0.317,0.1,0.614,0.171,0.934,0.223l0.184,0.026c0.326,0.041,0.648,0.071,0.986,0.071c0.334,0,0.645-0.03,0.974-0.07l0.208-0.029 c0.309-0.053,0.603-0.123,0.92-0.221l160.816-52.579c2.902-0.951,4.852-3.636,4.852-6.679v-72.029 c16.418-1.229,29.141-14.859,29.141-31.44v-13.794C490,292.835,477.277,279.208,460.859,277.978z M139.376,354.643 c16.421-1.23,29.146-14.86,29.146-31.44v-13.794c0-16.572-12.726-30.199-29.146-31.431v-43.375l146.678,47.965v186.972 l-146.678-47.963V354.643z M154.468,309.409v13.794c0,9.645-7.845,17.491-17.488,17.491h-9.27c-9.641,0-17.484-7.847-17.484-17.491 v-13.794c0-9.634,7.844-17.471,17.484-17.471h9.27C146.623,291.938,154.468,299.775,154.468,309.409z M285.278,18.135 c0.353,3.23,0.531,6.493,0.531,9.714c0,45.874-35.559,84.618-81.13,88.631c-0.37-3.338-0.558-6.596-0.558-9.698 C204.122,60.869,239.691,22.117,285.278,18.135z M256.852,222.473l-5.191-21.259c7.751,3.389,15.915,5.803,24.328,7.194 L256.852,222.473z M310.182,208.41c8.405-1.39,16.575-3.803,24.342-7.189l-5.207,21.253L310.182,208.41z M235.366,200.629h1.686 l8.653,35.409c0.562,2.283,2.216,4.127,4.43,4.932c2.249,0.807,4.678,0.433,6.555-0.939l36.402-26.755l36.396,26.755 c1.864,1.368,4.354,1.739,6.553,0.938c2.214-0.806,3.866-2.649,4.421-4.931l8.745-35.741h1.097 c26.085,0,50.405,10.152,68.667,28.626L293.09,270.085L167.056,228.87C185.275,210.645,209.47,200.629,235.366,200.629z M382.888,151.198c-1.629,0-3.17-0.349-4.579-1.036c-0.969-0.472-2.004-0.711-3.075-0.711c-2.476,0-4.723,1.266-6.012,3.387 c-16.273,26.877-44.733,42.923-76.132,42.923c-31.371,0-59.837-16.047-76.143-42.925c-1.283-2.119-3.529-3.385-6.01-3.385 c-1.081,0-2.117,0.242-3.077,0.716c-1.383,0.675-2.956,1.031-4.55,1.031c-5.814,0-10.545-4.731-10.545-10.546 c0-4.297,2.669-8.225,6.652-9.811c41.546-1.032,78.838-27.538,93.677-66.286c14.83,38.756,52.125,65.255,93.689,66.286 c3.973,1.594,6.631,5.516,6.631,9.811C393.413,146.466,388.691,151.198,382.888,151.198z M381.509,116.481 c-45.576-4.004-81.139-42.75-81.139-88.632c0-3.149,0.176-6.412,0.524-9.713c45.603,3.986,81.183,42.737,81.183,88.646 C382.077,109.862,381.886,113.12,381.509,116.481z M475.953,309.409v13.794c0,9.645-7.846,17.491-17.49,17.491h-9.272 c-9.632,0-17.469-7.847-17.469-17.491v-13.794c0-9.634,7.837-17.471,17.469-17.471h9.272 C468.107,291.938,475.953,299.775,475.953,309.409z M446.804,277.978c-16.417,1.225-29.139,14.851-29.139,31.431v13.794 c0,16.588,12.722,30.219,29.139,31.441v66.933l-146.686,47.963V282.569l146.686-47.966V277.978z"></path><path d="M293.096,237.04c3.892,0,7.058-3.163,7.058-7.051c0-3.891-3.166-7.056-7.058-7.056c-3.898,0-7.067,3.165-7.067,7.056 C286.028,233.877,289.198,237.04,293.096,237.04z"></path><path d="M300.153,255.043c0-3.891-3.166-7.057-7.058-7.057c-3.898,0-7.067,3.166-7.067,7.057c0,3.892,3.17,7.058,7.067,7.058 C296.987,262.101,300.153,258.935,300.153,255.043z"></path><path d="M135.845,174.833c12.675,0,22.029-2.732,22.421-2.849c2.962-0.878,5.027-3.648,5.023-6.737 c-0.002-3.089-2.073-5.857-5.037-6.732c-8.461-2.497-15.885-7.428-22.082-14.663c17.251-11.407,27.119-27.723,27.119-44.917 c0-16.548-8.809-31.939-24.803-43.342c-15.275-10.89-35.463-16.887-56.846-16.887c-21.377,0-41.562,5.997-56.838,16.887 C8.808,66.996,0,82.388,0,98.935c0,16.547,8.808,31.939,24.802,43.343c15.275,10.891,35.461,16.888,56.838,16.888 c2.627,0,5.326-0.102,8.03-0.302c15.293,13.188,33.527,15.969,46.17,15.97H135.845z M122.57,135.582 c-1.76,0.932-3.048,2.564-3.536,4.48c-0.489,1.925-0.139,3.976,0.96,5.628c3.865,5.82,8.362,10.872,13.395,15.053 c-10.729-0.367-24.989-3.289-36.417-14.219c-1.32-1.257-3.046-1.949-4.861-1.949c-0.232,0-0.471,0.015-0.71,0.039 c-3.293,0.333-6.577,0.501-9.761,0.501c-37.269,0-67.59-20.717-67.59-46.181c0-25.463,30.32-46.18,67.59-46.18 c37.272,0,67.596,20.717,67.596,46.18C149.235,113.116,139.268,126.815,122.57,135.582z"></path><path d="M319.855,37.601c-0.795-2.789-3.369-4.736-6.262-4.736c-0.604,0-1.208,0.085-1.792,0.252 c-1.677,0.476-3.066,1.576-3.914,3.101c-0.847,1.523-1.048,3.284-0.567,4.956c7.851,27.611,27.017,50.952,52.585,64.038 c0.933,0.474,1.93,0.714,2.963,0.714c2.47,0,4.699-1.36,5.82-3.552c1.634-3.202,0.361-7.139-2.837-8.775 C343.509,82.17,326.743,61.76,319.855,37.601z"></path><path d="M223.31,105.925c1.036,0,2.034-0.24,2.968-0.716c25.561-13.091,44.727-36.432,52.584-64.033 c0.48-1.672,0.279-3.432-0.567-4.954c-0.85-1.527-2.242-2.63-3.919-3.105c-0.585-0.168-1.189-0.253-1.794-0.253 c-2.893,0-5.47,1.948-6.266,4.737c-6.876,24.142-23.638,44.553-45.986,55.998c-3.2,1.636-4.472,5.573-2.833,8.778 C218.618,104.566,220.846,105.925,223.31,105.925z"></path><path d="M339.739,125.42c-3.6,0-6.529,2.926-6.529,6.521c0,2.27-1.856,4.117-4.139,4.117c-2.28,0-4.135-1.847-4.135-4.117 c0-3.596-2.929-6.521-6.528-6.521c-3.601,0-6.53,2.926-6.53,6.521c0,9.465,7.713,17.165,17.193,17.165 c9.477,0,17.186-7.7,17.186-17.165C346.257,128.346,343.333,125.42,339.739,125.42z"></path><path d="M267.729,125.42c-3.597,0-6.523,2.926-6.523,6.521c0,2.27-1.848,4.117-4.119,4.117c-2.272,0-4.122-1.847-4.122-4.117 c0-3.596-2.926-6.521-6.522-6.521c-3.595,0-6.52,2.926-6.52,6.521c0,9.465,7.7,17.165,17.164,17.165 c9.466,0,17.166-7.7,17.166-17.165C274.253,128.346,271.326,125.42,267.729,125.42z"></path></g></g></svg>