<!DOCTYPE svg PUBLIC "-//W3C//DTD SVG 1.1//EN" "http://www.w3.org/Graphics/SVG/1.1/DTD/svg11.dtd">
<!-- Uploaded to: SVG Repo, www.svgrepo.com, Transformed by: SVG Repo Mixer Tools -->
<svg width="800px" height="800px" viewBox="0 0 1024 1024" fill="#e9ebf0" class="icon" version="1.1" xmlns="http://www.w3.org/2000/svg" stroke="#e9ebf0" stroke-width="12.288">

<g id="SVGRepo_bgCarrier" stroke-width="0"/>

<g id="SVGRepo_tracerCarrier" stroke-linecap="round" stroke-linejoin="round"/>

<g id="SVGRepo_iconCarrier">

<path d="M775.942 959.906H56.09a7.994 7.994 0 0 1-7.998-7.998V72.09a7.994 7.994 0 0 1 7.998-7.998H104.08c4.42 0 7.998 3.578 7.998 7.998s-3.578 8-7.998 8H64.09v863.82h703.854V80.09h-39.992c-4.42 0-7.998-3.578-7.998-8s3.578-7.998 7.998-7.998h47.99a7.994 7.994 0 0 1 7.998 7.998v879.818a7.992 7.992 0 0 1-7.998 7.998z" fill=""/>

<path d="M663.964 80.09h-47.99c-4.422 0-7.998-3.578-7.998-8s3.576-7.998 7.998-7.998h47.99c4.42 0 7.998 3.578 7.998 7.998s-3.578 8-7.998 8zM551.988 80.09h-47.99c-4.42 0-7.998-3.578-7.998-8s3.578-7.998 7.998-7.998h47.99c4.42 0 7.998 3.578 7.998 7.998s-3.578 8-7.998 8zM440.012 80.09h-47.99c-4.422 0-7.998-3.578-7.998-8s3.576-7.998 7.998-7.998h47.99c4.42 0 7.998 3.578 7.998 7.998s-3.578 8-7.998 8zM328.036 80.09h-47.99c-4.422 0-8-3.578-8-8s3.578-7.998 8-7.998h47.99c4.42 0 7.998 3.578 7.998 7.998s-3.578 8-7.998 8zM216.058 80.09H168.068c-4.422 0-8-3.578-8-8s3.578-7.998 8-7.998h47.99a7.998 7.998 0 1 1 0 15.998zM767.944 991.9H56.09a7.994 7.994 0 0 1-7.998-7.998 7.994 7.994 0 0 1 7.998-7.998h711.852a7.992 7.992 0 0 1 7.998 7.998 7.99 7.99 0 0 1-7.996 7.998zM767.944 1023.894H56.09a7.994 7.994 0 0 1-7.998-8 7.994 7.994 0 0 1 7.998-7.998h711.852a7.994 7.994 0 0 1 7.998 7.998 7.99 7.99 0 0 1-7.996 8z" fill=""/>

<path d="M136.074 144.076c-13.232 0-23.996-10.764-23.996-23.996V24.1c0-13.232 10.764-23.996 23.996-23.996S160.07 10.868 160.07 24.1v95.98c0 13.232-10.764 23.996-23.996 23.996z m0-127.974a8.008 8.008 0 0 0-7.998 8v95.98c0 4.414 3.592 8 7.998 8a8 8 0 0 0 7.998-8v-95.98a8 8 0 0 0-7.998-8zM248.05 144.076c-13.232 0-23.994-10.764-23.994-23.996V24.1c0-13.232 10.762-23.996 23.994-23.996s23.996 10.764 23.996 23.996v95.98c0 13.232-10.762 23.996-23.996 23.996z m0-127.974a8.008 8.008 0 0 0-7.998 8v95.98c0 4.414 3.594 8 7.998 8a8 8 0 0 0 7.998-8v-95.98a8 8 0 0 0-7.998-8zM360.028 144.076c-13.23 0-23.994-10.764-23.994-23.996V24.1c0-13.232 10.764-23.996 23.994-23.996 13.232 0 23.996 10.764 23.996 23.996v95.98c0 13.232-10.764 23.996-23.996 23.996z m0-127.974a8.008 8.008 0 0 0-7.998 8v95.98c0 4.414 3.594 8 7.998 8a8 8 0 0 0 8-8v-95.98a8 8 0 0 0-8-8zM472.004 144.076c-13.232 0-23.996-10.764-23.996-23.996V24.1c0-13.232 10.764-23.996 23.996-23.996S496 10.87 496 24.102v95.98c0 13.23-10.764 23.994-23.996 23.994z m0-127.974c-4.406 0-8 3.584-8 8v95.98c0 4.414 3.594 8 8 8a8 8 0 0 0 7.998-8v-95.98a8 8 0 0 0-7.998-8zM583.982 144.076c-13.232 0-23.996-10.764-23.996-23.996V24.1c0-13.232 10.764-23.996 23.996-23.996 13.23 0 23.994 10.764 23.994 23.996v95.98c0 13.232-10.764 23.996-23.994 23.996z m0-127.974c-4.406 0-8 3.584-8 8v95.98c0 4.414 3.594 8 8 8a8 8 0 0 0 7.998-8v-95.98a8 8 0 0 0-7.998-8zM695.958 144.076c-13.232 0-23.996-10.764-23.996-23.996V24.1c0-13.232 10.764-23.996 23.996-23.996 13.23 0 23.994 10.764 23.994 23.996v95.98c0.002 13.232-10.762 23.996-23.994 23.996z m0-127.974c-4.406 0-8 3.584-8 8v95.98c0 4.414 3.594 8 8 8a8 8 0 0 0 7.998-8v-95.98a8 8 0 0 0-7.998-8zM919.928 911.918a8.004 8.004 0 0 1-6.672-3.562l-31.992-47.99a8.024 8.024 0 0 1-0.922-6.966l15.574-46.756v-14.702a7.994 7.994 0 0 1 8-7.998 7.994 7.994 0 0 1 7.998 7.998v15.996c0 0.86-0.14 1.718-0.406 2.532l-14.764 44.274 29.822 44.74a7.986 7.986 0 0 1-2.216 11.092 7.988 7.988 0 0 1-4.422 1.342z" fill=""/>

<path d="M919.912 911.918a8 8 0 0 1-6.656-12.436l29.824-44.74-14.748-44.274a7.732 7.732 0 0 1-0.422-2.532v-15.996a7.994 7.994 0 0 1 7.998-7.998 7.994 7.994 0 0 1 7.998 7.998v14.702l15.592 46.756a7.976 7.976 0 0 1-0.938 6.966l-31.994 47.99a7.966 7.966 0 0 1-6.654 3.564zM951.904 671.966h-63.986a7.994 7.994 0 0 1-7.998-7.998c0-4.422 3.578-8 7.998-8h63.986c4.422 0 8 3.578 8 8a7.994 7.994 0 0 1-8 7.998z" fill=""/>

<path d="M887.918 671.966a8 8 0 0 1-7.982-7.686l-15.996-399.926a7.98 7.98 0 0 1 7.67-8.31c4.374-0.554 8.124 3.258 8.31 7.67l15.996 399.942a8.016 8.016 0 0 1-7.67 8.31h-0.328zM951.92 671.966h-0.328c-4.42-0.188-7.858-3.906-7.67-8.31l15.998-399.942c0.172-4.412 3.874-8.216 8.31-7.67a8.002 8.002 0 0 1 7.67 8.31l-15.996 399.926a8 8 0 0 1-7.984 7.686z" fill=""/>

<path d="M967.902 272.034a7.992 7.992 0 0 1-7.998-7.998c0-37.148-13.452-55.988-39.992-55.988-26.526 0-39.992 18.84-39.992 55.988 0 4.422-3.578 7.998-7.998 7.998s-7.998-3.576-7.998-7.998c0-45.748 20.418-71.984 55.988-71.984 35.586 0 55.988 26.236 55.988 71.984a7.994 7.994 0 0 1-7.998 7.998z" fill=""/>

<path d="M935.908 208.046h-31.992c-4.422 0-8-3.578-8-7.998s3.578-7.998 8-7.998h31.992c4.422 0 7.998 3.578 7.998 7.998s-3.576 7.998-7.998 7.998zM919.912 479.99a7.992 7.992 0 0 1-7.998-7.998V232.042c0-4.42 3.576-7.998 7.998-7.998s7.998 3.578 7.998 7.998v239.95a7.992 7.992 0 0 1-7.998 7.998zM951.904 703.96h-63.986a7.994 7.994 0 0 1-7.998-8 7.994 7.994 0 0 1 7.998-7.998h63.986c4.422 0 8 3.578 8 7.998 0 4.422-3.578 8-8 8z" fill=""/>

<path d="M951.904 703.96a7.994 7.994 0 0 1-7.998-8v-31.992c0-4.422 3.578-8 7.998-8 4.422 0 8 3.578 8 8v31.992c0 4.422-3.578 8-8 8zM887.918 703.96a7.994 7.994 0 0 1-7.998-8v-31.992c0-4.422 3.578-8 7.998-8a7.994 7.994 0 0 1 7.998 8v31.992c0 4.422-3.576 8-7.998 8zM951.904 799.94h-63.986a7.994 7.994 0 0 1-7.998-7.998 7.994 7.994 0 0 1 7.998-7.998h63.986c4.422 0 8 3.578 8 7.998a7.994 7.994 0 0 1-8 7.998z" fill=""/>

<path d="M951.904 799.94a7.994 7.994 0 0 1-7.998-7.998v-95.98a7.994 7.994 0 0 1 7.998-7.998c4.422 0 8 3.578 8 7.998v95.98a7.994 7.994 0 0 1-8 7.998zM887.918 799.94a7.994 7.994 0 0 1-7.998-7.998v-95.98a7.994 7.994 0 0 1 7.998-7.998 7.994 7.994 0 0 1 7.998 7.998v95.98a7.992 7.992 0 0 1-7.998 7.998zM200.06 368.03a7.98 7.98 0 0 1-5.654-2.342l-31.994-31.994a7.996 7.996 0 1 1 11.31-11.31l31.994 31.994a7.996 7.996 0 0 1-5.656 13.652z" fill=""/>

<path d="M200.06 368.03a7.996 7.996 0 0 1-5.654-13.652l63.986-63.988a7.996 7.996 0 1 1 11.31 11.31l-63.986 63.988a7.98 7.98 0 0 1-5.656 2.342z" fill=""/>

<path d="M200.06 575.986a7.972 7.972 0 0 1-5.654-2.344l-31.994-31.992a7.996 7.996 0 1 1 11.31-11.31l31.994 31.992a7.996 7.996 0 0 1-5.656 13.654z" fill=""/>

<path d="M200.06 575.986a7.996 7.996 0 0 1-5.654-13.654l63.986-63.97a7.996 7.996 0 1 1 11.31 11.31l-63.986 63.97a7.964 7.964 0 0 1-5.656 2.344z" fill=""/>

<path d="M663.964 288.046H344.032c-4.42 0-7.998-3.578-7.998-8s3.578-8 7.998-8h319.934c4.42 0 7.998 3.578 7.998 8s-3.58 8-8 8z" fill=""/>

<path d="M663.964 336.036H344.032c-4.42 0-7.998-3.578-7.998-7.998s3.578-8 7.998-8h319.934c4.42 0 7.998 3.578 7.998 8s-3.58 7.998-8 7.998z" fill=""/>

<path d="M503.998 384.026h-159.966a7.994 7.994 0 0 1-7.998-8 7.994 7.994 0 0 1 7.998-7.998h159.966a7.994 7.994 0 0 1 7.998 7.998c0 4.424-3.578 8-7.998 8z" fill=""/>

<path d="M663.964 496.002H344.032c-4.42 0-7.998-3.578-7.998-7.998s3.578-8 7.998-8h319.934c4.42 0 7.998 3.578 7.998 8s-3.58 7.998-8 7.998z" fill=""/>

<path d="M663.964 543.992H344.032a7.994 7.994 0 0 1-7.998-7.998 7.994 7.994 0 0 1 7.998-7.998h319.934a7.994 7.994 0 0 1 7.998 7.998 7.996 7.996 0 0 1-8 7.998z" fill=""/>

<path d="M503.998 591.984h-159.966a7.994 7.994 0 0 1-7.998-8 7.994 7.994 0 0 1 7.998-7.998h159.966a7.994 7.994 0 0 1 7.998 7.998c0 4.422-3.578 8-7.998 8z" fill=""/>

<path d="M200.06 783.944a7.972 7.972 0 0 1-5.654-2.344l-31.994-31.992a7.996 7.996 0 1 1 11.31-11.31l31.994 31.992a7.996 7.996 0 0 1-5.656 13.654z" fill=""/>

<path d="M200.06 783.944a7.996 7.996 0 0 1-5.654-13.654l63.986-63.986a7.996 7.996 0 1 1 11.31 11.31L205.716 781.6a7.974 7.974 0 0 1-5.656 2.344z" fill=""/>

<path d="M663.964 703.96H344.032a7.994 7.994 0 0 1-7.998-8 7.994 7.994 0 0 1 7.998-7.998h319.934a7.994 7.994 0 0 1 7.998 7.998 7.998 7.998 0 0 1-8 8z" fill=""/>

<path d="M663.964 751.95H344.032a7.994 7.994 0 0 1-7.998-7.998 7.994 7.994 0 0 1 7.998-7.998h319.934a7.994 7.994 0 0 1 7.998 7.998 7.996 7.996 0 0 1-8 7.998z" fill=""/>

<path d="M503.998 799.94h-159.966a7.994 7.994 0 0 1-7.998-7.998 7.994 7.994 0 0 1 7.998-7.998h159.966a7.994 7.994 0 0 1 7.998 7.998 7.994 7.994 0 0 1-7.998 7.998z" fill=""/>

</g>

</svg>