<svg width="187" height="59" viewBox="0 0 187 59" version="1.1" xmlns="http://www.w3.org/2000/svg" xmlns:xlink="http://www.w3.org/1999/xlink">
<title>Vector</title>
<desc>Created using Figma</desc>
<g id="Canvas" transform="translate(-3642 1080)">
<g id="Vector">
<use xlink:href="#path0_fill" transform="translate(3642 -1080)" fill="#231F20"/>
</g>
</g>
<defs>
<path id="path0_fill" d="M 185.791 8.72448C 181.184 2.78946 173.27 0 165.755 0C 148.143 0 135.948 12.5288 135.948 29.9718C 135.948 44.0853 147.176 58.9941 165.35 58.9941C 178.433 58.9941 185.301 51.4625 187 49.1597L 180.458 44.3227C 178.803 46.7004 176.569 48.6346 173.959 49.9498C 171.349 51.2651 168.446 51.9197 165.513 51.8542C 152.212 51.8542 144.189 41.7647 144.189 29.9659C 144.189 17.1997 152.653 7.12796 165.513 7.12796C 170.761 7.12796 176.093 9.4248 179.328 13.5496L 185.791 8.72448ZM 101.541 38.7794C 101.493 42.7415 102.646 46.6281 104.854 49.9454C 107.061 53.2627 110.223 55.8609 113.938 57.4098C 117.654 58.9588 121.754 59.3886 125.719 58.6445C 129.683 57.9005 133.333 56.0162 136.204 53.2312C 139.075 50.4462 141.038 46.8862 141.844 43.0035C 142.649 39.1208 142.26 35.0907 140.727 31.4254C 139.193 27.7601 136.585 24.625 133.232 22.4186C 129.879 20.2121 125.934 19.0339 121.898 19.0336C 119.236 19.003 116.595 19.4911 114.127 20.4696C 111.659 21.4481 109.413 22.8976 107.52 24.7342C 105.626 26.5707 104.123 28.7578 103.097 31.1687C 102.07 33.5796 101.542 36.1665 101.541 38.7794ZM 109.298 38.7794C 109.298 31.1648 114.135 25.7224 121.898 25.7224C 129.661 25.7224 134.497 31.1944 134.497 38.7794C 134.497 46.3643 129.661 51.8364 121.898 51.8364C 114.135 51.8364 109.298 46.3643 109.298 38.7794ZM 73.4336 31.4022L 84.9208 31.4022C 92.4359 31.4022 97.2001 34.7317 97.2001 41.3908C 97.2001 49.32 89.5278 50.8868 84.8422 50.8868L 73.4276 50.8868L 73.4336 31.4022ZM 73.4336 8.08943L 85.6282 8.08943C 91.8495 8.08943 94.6971 11.8938 94.6971 16.3391C 94.6971 22.4462 89.9329 24.7431 84.0321 24.7431L 73.4518 24.7431L 73.4336 8.08943ZM 65.6767 57.5697L 85.3078 57.5697C 96.4565 57.5697 105.423 52.0204 105.423 41.9487C 105.423 34.4172 99.9328 28.4703 93.0647 27.9955L 93.0647 27.8352C 98.8809 25.9301 102.92 21.9002 102.92 15.4666C 102.92 5.97062 95.4891 1.43034 85.5496 1.43034L 65.6767 1.43034L 65.6767 57.5697ZM 0 57.5697L 7.7569 57.5697L 7.7569 11.419L 7.92015 11.419L 27.2066 57.5697L 32.3758 57.5697L 51.6804 11.419L 51.8437 11.419L 51.8437 57.5697L 59.6006 57.5697L 59.6006 1.4244L 48.065 1.4244L 30.0482 43.931L 29.7217 43.931L 11.5477 1.4244L 0 1.4244L 0 57.5697Z"/>
</defs>
</svg>
