<svg id="fcb688a8-368b-4e53-a583-0768af481d0a" data-name="Layer 1" xmlns="http://www.w3.org/2000/svg" width="16" height="16" viewBox="0 0 16 16">
  <defs>
    <style>
      .f9dc2f6c-48d4-4d8c-b95a-cf0e21b56e2e {
        fill: none;
      }

      .ac5d794d-54cd-4fdf-aa0e-4b3df39235ee {
        fill: #b53818;
      }

      .bb1e4e28-3139-45fb-8f4c-e3c1bc8c56ef {
        fill: #e8531e;
      }

      .b8171c66-f92b-4fee-a7e2-275f0b5290be {
        fill: #ee7231;
      }

      .a626a69c-c647-430c-bdc9-af80d6f381e2 {
        fill: #f49d71;
      }
    </style>
  </defs>
  <g>
    <rect class="f9dc2f6c-48d4-4d8c-b95a-cf0e21b56e2e" width="16" height="16"/>
    <g>
      <path class="ac5d794d-54cd-4fdf-aa0e-4b3df39235ee" d="M1.28,4.92l-.12,0C1.09,5,1,5.15,1,5.45v5.1c0,.3.09.47.16.51s.26,0,.53-.12L6,8.41c.27-.15.36-.31.36-.41S6.3,7.74,6,7.59L1.69,5.06A.81.81,0,0,0,1.28,4.92Z"/>
      <path class="bb1e4e28-3139-45fb-8f4c-e3c1bc8c56ef" d="M14.72,4.92a.81.81,0,0,0-.41.14L10,7.59c-.27.15-.36.31-.36.41s.09.26.36.41l4.34,2.53c.27.16.45.16.53.12s.16-.21.16-.51V5.45c0-.3-.09-.47-.16-.51Z"/>
      <path class="b8171c66-f92b-4fee-a7e2-275f0b5290be" d="M2.33,4,6.67,6.49c.27.15.45.16.53.11s.16-.2.16-.51V1c0-.31-.09-.47-.16-.51s-.26,0-.53.11L2.33,3.13c-.27.16-.36.32-.36.42s.09.25.36.41Z"/>
      <path class="bb1e4e28-3139-45fb-8f4c-e3c1bc8c56ef" d="M2.33,12.87,6.67,15.4c.27.15.45.16.53.11s.16-.2.16-.51V9.91c0-.31-.09-.47-.16-.51s-.26,0-.53.11L2.33,12c-.27.16-.36.32-.36.41s.09.26.36.42Z"/>
      <path class="b8171c66-f92b-4fee-a7e2-275f0b5290be" d="M8.91,9.37a.18.18,0,0,0-.11,0c-.07,0-.16.2-.16.51V15c0,.31.09.47.16.51s.26,0,.53-.11l4.34-2.53c.27-.16.36-.32.36-.42s-.09-.25-.36-.41L9.33,9.51A.92.92,0,0,0,8.91,9.37Z"/>
      <path class="a626a69c-c647-430c-bdc9-af80d6f381e2" d="M8.91.46a.18.18,0,0,0-.11,0c-.07,0-.16.2-.16.51V6.09c0,.31.09.47.16.51s.26,0,.53-.11L13.67,4c.27-.16.36-.32.36-.41s-.09-.26-.36-.42L9.33.6A.92.92,0,0,0,8.91.46Z"/>
    </g>
  </g>
</svg>
