<?xml version="1.0" encoding="utf-8"?>
<!-- Generator: Adobe Illustrator 25.0.0, SVG Export Plug-In . SVG Version: 6.00 Build 0)  -->
<svg version="1.1" id="Layer_1" xmlns="http://www.w3.org/2000/svg" xmlns:xlink="http://www.w3.org/1999/xlink" x="0px" y="0px"
	 viewBox="0 0 1280 384" style="enable-background:new 0 0 1280 384;" xml:space="preserve">
<style type="text/css">
	.st0{fill:#455A64;}
	.st1{fill:#B53818;}
	.st2{fill:#E8521E;}
	.st3{fill:#ED7231;}
	.st4{fill:#F39C71;}
</style>
<g>
	<g>
		<g>
			<path class="st0" d="M486.1,236c8.1,0,13.9-0.8,17.3-2.4c3.4-1.6,5.1-4.7,5.1-9.2c0-3.6-2.2-6.7-6.5-9.4
				c-4.4-2.7-11-5.7-19.9-9.1c-6.9-2.6-13.2-5.3-18.9-8c-5.7-2.8-10.5-6.1-14.4-10c-4-3.9-7-8.5-9.2-13.8
				c-2.2-5.4-3.3-11.8-3.3-19.3c0-14.7,5.5-26.3,16.4-34.8c10.9-8.5,25.9-12.8,44.9-12.8c9.5,0,18.6,0.8,27.4,2.5
				c8.7,1.7,15.7,3.5,20.8,5.5l-7.7,34.5c-5.2-1.8-10.8-3.4-16.8-4.8c-6-1.4-12.8-2.1-20.4-2.1c-13.9,0-20.8,3.9-20.8,11.6
				c0,1.8,0.3,3.4,0.9,4.8c0.6,1.4,1.8,2.7,3.6,4c1.8,1.3,4.2,2.7,7.3,4.2c3.1,1.5,7,3.1,11.7,4.9c9.7,3.6,17.7,7.2,24.1,10.7
				c6.3,3.5,11.4,7.3,15,11.3c3.7,4.1,6.2,8.6,7.7,13.5c1.5,4.9,2.2,10.7,2.2,17.2c0,15.4-5.8,27.1-17.4,35
				c-11.6,7.9-28,11.9-49.2,11.9c-13.9,0-25.4-1.2-34.7-3.6c-9.2-2.4-15.6-4.4-19.2-6l7.4-36c7.5,3,15.3,5.3,23.2,7
				C470.6,235.2,478.4,236,486.1,236z"/>
			<path class="st0" d="M578.1,189.6c0-11.3,1.8-22,5.5-32c3.7-10,9-18.7,15.9-26.2s15.4-13.3,25.3-17.7c9.9-4.4,21.2-6.5,33.9-6.5
				c8.3,0,16,0.7,22.9,2.2c6.9,1.5,13.7,3.6,20.2,6.4l-9.2,35.4c-4.2-1.6-8.7-3-13.7-4.2c-5-1.2-10.5-1.8-16.7-1.8
				c-13.1,0-22.9,4.1-29.3,12.2c-6.4,8.1-9.7,18.8-9.7,32.1c0,14.1,3,25,9.1,32.7c6,7.7,16.6,11.6,31.7,11.6
				c5.4,0,11.1-0.5,17.3-1.5c6.1-1,11.8-2.6,17-4.8l6.2,36.3c-5.2,2.2-11.6,4.1-19.3,5.7c-7.7,1.6-16.3,2.4-25.6,2.4
				c-14.3,0-26.6-2.1-36.9-6.4c-10.3-4.3-18.8-10.1-25.4-17.4c-6.6-7.3-11.5-16-14.6-26C579.6,212.2,578.1,201.3,578.1,189.6z"/>
			<path class="st0" d="M782.7,66.2c0,8.1-2.6,14.5-7.9,19.2c-5.3,4.7-11.5,7-18.6,7s-13.3-2.3-18.6-7c-5.3-4.7-7.9-11.1-7.9-19.2
				c0-8.1,2.6-14.5,7.9-19.2c5.3-4.7,11.5-7,18.6-7s13.3,2.3,18.6,7C780.1,51.7,782.7,58,782.7,66.2z M778.6,267.9h-44.3V111.4h44.3
				V267.9z"/>
			<path class="st0" d="M812.8,190.8c0-13.9,2.1-26,6.4-36.4c4.3-10.4,9.9-19.1,16.8-26c6.9-6.9,14.9-12.2,23.9-15.8
				c9-3.6,18.3-5.4,27.8-5.4c22.2,0,39.8,6.8,52.7,20.4c12.9,13.6,19.3,33.6,19.3,59.9c0,2.6-0.1,5.4-0.3,8.5
				c-0.2,3.1-0.4,5.8-0.6,8.2H858.3c1,9.1,5.3,16.4,12.8,21.7c7.5,5.4,17.6,8,30.3,8c8.1,0,16.1-0.7,23.9-2.2
				c7.8-1.5,14.2-3.3,19.2-5.5l6,36c-2.4,1.2-5.6,2.4-9.5,3.6c-4,1.2-8.4,2.2-13.2,3.1c-4.9,0.9-10.1,1.6-15.6,2.2
				c-5.6,0.6-11.1,0.9-16.7,0.9c-14.1,0-26.3-2.1-36.7-6.2c-10.4-4.2-19-9.9-25.9-17.1c-6.8-7.2-11.9-15.8-15.2-25.7
				C814.4,213,812.8,202.3,812.8,190.8z M916.9,173.9c-0.2-3.8-0.8-7.4-1.9-11c-1.1-3.6-2.8-6.7-5.1-9.5c-2.3-2.8-5.2-5.1-8.6-6.8
				c-3.5-1.8-7.8-2.7-12.9-2.7c-5,0-9.2,0.8-12.8,2.5c-3.6,1.7-6.5,3.9-8.9,6.7c-2.4,2.8-4.2,6-5.5,9.7c-1.3,3.7-2.2,7.4-2.8,11.2
				H916.9z"/>
			<path class="st0" d="M992.5,72.4l44.3-7.1v46.1h53.3v36.9h-53.3v55c0,9.3,1.6,16.8,4.9,22.3c3.3,5.6,9.9,8.3,19.8,8.3
				c4.8,0,9.7-0.4,14.7-1.3c5.1-0.9,9.7-2.1,13.8-3.7l6.2,34.5c-5.4,2.2-11.3,4.1-17.8,5.7c-6.5,1.6-14.6,2.4-24.1,2.4
				c-12.1,0-22.1-1.6-30-4.9c-7.9-3.3-14.3-7.8-19-13.7c-4.8-5.8-8.1-12.9-10-21.3c-1.9-8.3-2.8-17.6-2.8-27.7V72.4z"/>
			<path class="st0" d="M1268.2,111.4c-8.9,30.1-18.3,58.4-28,84.8c-9.7,26.4-20.4,52-31.9,76.7c-4.2,8.9-8.3,16.5-12.5,22.8
				c-4.2,6.2-8.7,11.4-13.7,15.5c-5,4.1-10.6,7-16.8,8.9c-6.3,1.9-13.6,2.8-21.9,2.8c-7,0-13.4-0.6-19.2-1.9
				c-5.9-1.3-10.7-2.7-14.4-4.3l7.7-35.4c4.6,1.6,8.6,2.7,12.2,3.3c3.6,0.6,7.3,0.9,11.3,0.9c7.9,0,14-2.1,18.3-6.4
				c4.3-4.3,7.9-10.2,10.9-17.7c-10.1-19.8-20.2-42.1-30.4-66.8c-10.1-24.7-19.6-52.4-28.6-83.1h47c2,7.7,4.3,16.1,7,25.1
				c2.7,9,5.5,18.1,8.5,27.4c3,9.2,6,18.2,9.1,26.9c3.1,8.7,6,16.7,8.8,23.8c2.6-7.1,5.3-15.1,8.1-23.8c2.8-8.7,5.5-17.7,8.2-26.9
				c2.7-9.2,5.3-18.3,7.8-27.4c2.5-9,4.7-17.4,6.7-25.1H1268.2z"/>
		</g>
	</g>
	<g>
		<g>
			<path class="st1" d="M7,114.5c-1.2,0-2.2,0.2-2.8,0.6C2.2,116.2,0,120.2,0,128v128c0,7.8,2.2,11.8,4.1,12.9
				c1.9,1.1,6.5,1,13.3-2.9l109.1-63.6c6.8-3.9,9.2-7.9,9.2-10.4s-2.4-6.4-9.2-10.4L17.4,118C12.9,115.4,9.4,114.5,7,114.5z"/>
		</g>
	</g>
	<g>
		<g>
			<path class="st2" d="M345,114.5c-2.4,0-6,0.9-10.4,3.5l-109.1,63.6c-6.8,3.9-9.2,7.9-9.2,10.4s2.4,6.4,9.2,10.4L334.6,266
				c6.7,3.9,11.3,4,13.3,2.9c1.9-1.1,4.1-5.1,4.1-12.9V128c0-7.8-2.2-11.8-4.1-12.9C347.2,114.7,346.3,114.5,345,114.5z"/>
		</g>
	</g>
	<g>
		<g>
			<path class="st3" d="M33.5,90.4L142.6,154c6.7,3.9,11.3,4,13.3,2.9c1.9-1.1,4.1-5.1,4.1-12.9V16c0-7.8-2.2-11.8-4.1-12.9
				c-1.9-1.1-6.5-1-13.3,2.9L33.5,69.6c-6.8,3.9-9.2,7.9-9.2,10.4S26.8,86.4,33.5,90.4L33.5,90.4z"/>
		</g>
	</g>
	<g>
		<g>
			<path class="st2" d="M33.5,314.4L142.6,378c6.7,3.9,11.3,4,13.3,2.9c1.9-1.1,4.1-5.1,4.1-12.9V240c0-7.8-2.2-11.8-4.1-12.9
				c-1.9-1.1-6.5-1-13.3,2.9L33.5,293.6c-6.8,3.9-9.2,7.9-9.2,10.4S26.8,310.4,33.5,314.4L33.5,314.4z"/>
		</g>
	</g>
	<g>
		<g>
			<path class="st3" d="M199,226.5c-1.2,0-2.2,0.2-2.8,0.6c-1.9,1.1-4.1,5.1-4.1,12.9v128c0,7.8,2.2,11.8,4.1,12.9
				c1.9,1.1,6.5,1,13.3-2.9l109.1-63.6c6.8-3.9,9.2-7.9,9.2-10.4s-2.4-6.4-9.2-10.4L209.4,230C204.9,227.4,201.4,226.5,199,226.5z"
				/>
		</g>
	</g>
	<g>
		<g>
			<path class="st4" d="M199,2.5c-1.2,0-2.2,0.2-2.8,0.6C194.2,4.2,192,8.2,192,16v128c0,7.8,2.2,11.8,4.1,12.9
				c1.9,1.1,6.5,1,13.3-2.9l109.1-63.6c6.8-3.9,9.2-7.9,9.2-10.4s-2.4-6.4-9.2-10.4L209.4,6C204.9,3.4,201.4,2.5,199,2.5z"/>
		</g>
	</g>
</g>
</svg>
