<?xml version="1.0" encoding="UTF-8"?>
<svg width="119px" height="36px" viewBox="0 0 119 36" version="1.1" xmlns="http://www.w3.org/2000/svg" xmlns:xlink="http://www.w3.org/1999/xlink">
    <g id="Landing-page" stroke="none" stroke-width="1" fill="none" fill-rule="evenodd">
        <g id="landing-page---draft-1" transform="translate(-40.000000, -26.000000)" fill-rule="nonzero">
            <g id="sciety-logo-full-colour" transform="translate(40.000000, 26.046233)">
                <g id="Group" transform="translate(40.256191, 4.736189)" fill="#4B606A">
                    <path d="M5.03085937,18.2601563 C5.78548828,18.2601563 6.32583984,18.185625 6.64259766,18.0365625 C6.95935547,17.8875 7.11773437,17.5986914 7.11773437,17.1794531 C7.11773437,16.8440625 6.91277344,16.5552539 6.51216797,16.3037109 C6.10224609,16.052168 5.48736328,15.7726758 4.65820312,15.455918 C4.01537109,15.2136914 3.4284375,14.9621484 2.89740234,14.7106055 C2.36636719,14.4497461 1.91917969,14.1423047 1.55583984,13.7789648 C1.18318359,13.415625 0.903691406,12.9870703 0.698730469,12.4933008 C0.493769531,11.9902148 0.391289062,11.3939648 0.391289062,10.6952344 C0.391289062,9.32572266 0.903691406,8.24501953 1.91917969,7.453125 C2.93466797,6.66123047 4.33212891,6.260625 6.10224609,6.260625 C6.98730469,6.260625 7.83509766,6.33515625 8.65494141,6.49353516 C9.46546875,6.65191406 10.1176172,6.81960938 10.5927539,7.0059375 L9.87539062,10.2200977 C9.3909375,10.0524023 8.86921875,9.90333984 8.31023437,9.77291016 C7.75125,9.64248047 7.11773437,9.57726563 6.4096875,9.57726563 C5.11470703,9.57726563 4.471875,9.94060547 4.471875,10.6579688 C4.471875,10.8256641 4.49982422,10.9747266 4.55572266,11.1051563 C4.61162109,11.2355859 4.72341797,11.3566992 4.89111328,11.4778125 C5.05880859,11.5989258 5.28240234,11.7293555 5.57121094,11.8691016 C5.86001953,12.0088477 6.22335937,12.1579102 6.66123047,12.3256055 C7.56492187,12.6609961 8.31023437,12.9963867 8.90648437,13.3224609 C9.49341797,13.6485352 9.96855469,14.0025586 10.3039453,14.3752148 C10.6486523,14.7571875 10.8815625,15.1764258 11.0213086,15.6329297 C11.1610547,16.0894336 11.2262695,16.6297852 11.2262695,17.2353516 C11.2262695,18.6700781 10.685918,19.7600977 9.60521484,20.4960938 C8.52451172,21.2320898 6.99662109,21.6047461 5.02154297,21.6047461 C3.7265625,21.6047461 2.65517578,21.4929492 1.78875,21.2693555 C0.931640625,21.0457617 0.335390625,20.8594336 0,20.7103711 L0.689414062,17.3564648 C1.38814453,17.635957 2.11482422,17.8502344 2.85082031,18.0086133 C3.58681641,18.185625 4.31349609,18.2601563 5.03085937,18.2601563 Z" id="Path"></path>
                    <path d="M13.6019531,13.9373438 C13.6019531,12.8845898 13.7696484,11.8877344 14.1143555,10.9560938 C14.4590625,10.0244531 14.952832,9.21392578 15.5956641,8.51519531 C16.2384961,7.81646484 17.0303906,7.27611328 17.9527148,6.86619141 C18.8750391,6.45626953 19.927793,6.260625 21.1109766,6.260625 C21.8842383,6.260625 22.6016016,6.32583984 23.2444336,6.46558594 C23.8872656,6.60533203 24.5207812,6.80097656 25.1263477,7.06183594 L24.2692383,10.3598438 C23.8779492,10.2107813 23.4587109,10.0803516 22.9928906,9.96855469 C22.5270703,9.85675781 22.014668,9.80085938 21.4370508,9.80085938 C20.2166016,9.80085938 19.3035937,10.182832 18.7073437,10.9374609 C18.1110937,11.6920898 17.8036523,12.6889453 17.8036523,13.9280273 C17.8036523,15.2416406 18.0831445,16.2571289 18.6514453,16.9744922 C19.2104297,17.6918555 20.1979687,18.0551953 21.6047461,18.0551953 C22.107832,18.0551953 22.6388672,18.0086133 23.2164844,17.9154492 C23.7847852,17.8222852 24.3158203,17.6732227 24.8002734,17.4682617 L25.3778906,20.8501172 C24.8934375,21.0550781 24.2971875,21.2320898 23.5798242,21.3811523 C22.8624609,21.5302148 22.06125,21.6047461 21.1948242,21.6047461 C19.8625781,21.6047461 18.7166602,21.4091016 17.7570703,21.0084961 C16.7974805,20.6078906 16.0055859,20.0675391 15.3907031,19.3874414 C14.7758203,18.7073437 14.3193164,17.8968164 14.0305078,16.9651758 C13.7416992,16.0428516 13.6019531,15.0273633 13.6019531,13.9373438 Z" id="Path"></path>
                    <path d="M32.6633203,2.44089844 C32.6633203,3.19552734 32.4210938,3.79177734 31.9273242,4.22964844 C31.4335547,4.66751953 30.8559375,4.88179688 30.1944727,4.88179688 C29.5330078,4.88179688 28.9553906,4.66751953 28.4616211,4.22964844 C27.9678516,3.79177734 27.725625,3.19552734 27.725625,2.44089844 C27.725625,1.68626953 27.9678516,1.09001953 28.4616211,0.652148438 C28.9553906,0.214277344 29.5330078,0 30.1944727,0 C30.8559375,0 31.4335547,0.214277344 31.9273242,0.652148438 C32.4210938,1.09001953 32.6633203,1.67695313 32.6633203,2.44089844 Z M32.2813477,21.2320898 L28.1541797,21.2320898 L28.1541797,6.65191406 L32.2813477,6.65191406 L32.2813477,21.2320898 Z" id="Shape"></path>
                    <path d="M35.4675586,14.0491406 C35.4675586,12.7541602 35.6632031,11.626875 36.0638086,10.6579688 C36.4644141,9.6890625 36.9861328,8.87853516 37.6289648,8.23570313 C38.2717969,7.59287109 39.0171094,7.09910156 39.8555859,6.76371094 C40.6940625,6.42832031 41.5604883,6.260625 42.4455469,6.260625 C44.5137891,6.260625 46.1534766,6.89414063 47.355293,8.16117188 C48.5571094,9.42820313 49.1533594,11.2914844 49.1533594,13.7416992 C49.1533594,13.9839258 49.144043,14.2447852 49.1254102,14.5335938 C49.1067773,14.8224023 49.0881445,15.0739453 49.0695117,15.2975391 L39.7065234,15.2975391 C39.7996875,16.145332 40.200293,16.8254297 40.8990234,17.3191992 C41.5977539,17.8222852 42.5387109,18.0645117 43.7218945,18.0645117 C44.4765234,18.0645117 45.2218359,17.9992969 45.9485156,17.8595508 C46.6751953,17.7198047 47.2714453,17.5521094 47.7372656,17.3471484 L48.29625,20.7010547 C48.0726563,20.8128516 47.7745313,20.9246484 47.4111914,21.0364453 C47.0385352,21.1482422 46.6286133,21.2414063 46.1814258,21.3252539 C45.7249219,21.4091016 45.2404688,21.4743164 44.7280664,21.5302148 C44.2063477,21.5861133 43.6939453,21.6140625 43.1722266,21.6140625 C41.8586133,21.6140625 40.7220117,21.418418 39.7531055,21.0364453 C38.7841992,20.6451563 37.9829883,20.1141211 37.3401563,19.4433398 C36.7066406,18.7725586 36.2315039,17.9713477 35.9240625,17.0490234 C35.6166211,16.1173828 35.4675586,15.1205273 35.4675586,14.0491406 Z M45.1659375,12.474668 C45.1473047,12.1206445 45.0914063,11.7852539 44.9889258,11.4498633 C44.8864453,11.1144727 44.7280664,10.8256641 44.5137891,10.5648047 C44.2995117,10.3039453 44.0293359,10.089668 43.7125781,9.93128906 C43.3865039,9.76359375 42.9858984,9.67974609 42.5107617,9.67974609 C42.0449414,9.67974609 41.6536523,9.75427734 41.3182617,9.91265625 C40.9828711,10.0710352 40.7126953,10.2759961 40.4891016,10.5368555 C40.2655078,10.7977148 40.0978125,11.0958398 39.9766992,11.4405469 C39.8555859,11.7852539 39.7717383,12.1299609 39.7158398,12.4839844 L45.1659375,12.4839844 L45.1659375,12.474668 Z" id="Shape"></path>
                    <path d="M52.2091406,3.01851562 L56.3363086,2.35705078 L56.3363086,6.65191406 L61.3019531,6.65191406 L61.3019531,10.089668 L56.3363086,10.089668 L56.3363086,15.2136914 C56.3363086,16.0801172 56.4853711,16.7788477 56.7928125,17.29125 C57.1002539,17.8129687 57.7151367,18.0645117 58.6374609,18.0645117 C59.0846484,18.0645117 59.5411523,18.0272461 60.0069727,17.9433984 C60.4821094,17.8595508 60.9106641,17.7477539 61.2926367,17.5986914 L61.8702539,20.8128516 C61.367168,21.0178125 60.8175,21.1948242 60.2119336,21.3438867 C59.6063672,21.4929492 58.8517383,21.5674805 57.9666797,21.5674805 C56.8393945,21.5674805 55.9077539,21.418418 55.1717578,21.1109766 C54.4357617,20.8035352 53.8395117,20.3842969 53.4016406,19.8346289 C52.9544531,19.2942773 52.6470117,18.6328125 52.47,17.8502344 C52.2929883,17.0769727 52.2091406,16.2105469 52.2091406,15.2695898 L52.2091406,3.01851562 L52.2091406,3.01851562 Z" id="Path"></path>
                    <path d="M77.8944727,6.65191406 C77.0653125,9.45615234 76.1895703,12.0926953 75.2858789,14.5522266 C74.3821875,17.0117578 73.385332,19.3967578 72.3139453,21.6979102 C71.9226562,22.5270703 71.5406836,23.2351172 71.1493945,23.8220508 C70.7581055,24.399668 70.3388672,24.8841211 69.8730469,25.2660938 C69.4072266,25.6480664 68.8855078,25.9182422 68.3078906,26.0952539 C67.720957,26.2722656 67.0408594,26.3561133 66.2675977,26.3561133 C65.6154492,26.3561133 65.0191992,26.3002148 64.4788477,26.1791016 C63.9291797,26.0579883 63.4819922,25.9275586 63.1372852,25.7784961 L63.8546484,22.4804883 C64.2832031,22.6295508 64.6558594,22.7320313 64.99125,22.7879297 C65.3266406,22.8438281 65.6713477,22.8717773 66.0440039,22.8717773 C66.78,22.8717773 67.3483008,22.6761328 67.7489062,22.2755273 C68.1495117,21.8749219 68.4849023,21.3252539 68.7643945,20.6265234 C67.8234375,18.781875 66.8824805,16.7043164 65.932207,14.4031641 C64.99125,12.1020117 64.1061914,9.52136719 63.2677148,6.66123047 L67.6464258,6.66123047 C67.8327539,7.37859375 68.0470312,8.16117188 68.2985742,8.99964844 C68.5501172,9.838125 68.8109766,10.685918 69.0904687,11.5523438 C69.3699609,12.4094531 69.6494531,13.2479297 69.9382617,14.058457 C70.2270703,14.8689844 70.4972461,15.6142969 70.7581055,16.2757617 C71.000332,15.6142969 71.251875,14.8689844 71.5127344,14.058457 C71.7735937,13.2479297 72.0251367,12.4094531 72.2766797,11.5523438 C72.5282227,10.6952344 72.7704492,9.84744141 73.0033594,8.99964844 C73.2362695,8.16117188 73.4412305,7.37859375 73.6275586,6.66123047 L77.8944727,6.66123047 L77.8944727,6.65191406 Z" id="Path"></path>
                </g>
                <path d="M0.652148438,10.4347242 C0.540351563,10.4347242 0.4471875,10.453357 0.391289063,10.4906227 C0.204960938,10.5931031 0,10.9657594 0,11.6924391 L0,23.6174391 C0,24.3441188 0.204960938,24.716775 0.381972656,24.8192555 C0.558984375,24.9217359 0.987539063,24.9124195 1.62105469,24.5490797 L11.7852539,18.6238453 C12.4187695,18.2605055 12.6423633,17.8878492 12.6423633,17.6549391 C12.6423633,17.4220289 12.4187695,17.0586891 11.7852539,16.6860328 L1.62105469,10.7607984 C1.20181641,10.5185719 0.875742188,10.4347242 0.652148438,10.4347242 Z" id="Path" fill="#B53818"></path>
                <path d="M32.1416016,10.4347242 C31.9180078,10.4347242 31.5826172,10.5185719 31.1726953,10.7607984 L21.0084961,16.6860328 C20.3749805,17.0493727 20.1513867,17.4220289 20.1513867,17.6549391 C20.1513867,17.8878492 20.3749805,18.2511891 21.0084961,18.6238453 L31.1726953,24.5490797 C31.7968945,24.9124195 32.2254492,24.9217359 32.4117773,24.8192555 C32.5887891,24.716775 32.79375,24.3441188 32.79375,23.6174391 L32.79375,11.6924391 C32.79375,10.9657594 32.5887891,10.5931031 32.4117773,10.4906227 C32.3465625,10.453357 32.2627148,10.4347242 32.1416016,10.4347242 Z" id="Path" fill="#E8521E"></path>
                <path d="M3.12099609,8.18947032 L13.2851953,14.1147047 C13.9093945,14.4780445 14.3379492,14.4873609 14.5242773,14.3848805 C14.7012891,14.2824 14.90625,13.9097438 14.90625,13.1830641 L14.90625,1.25806407 C14.90625,0.531384378 14.7012891,0.158728128 14.5242773,0.0562476589 C14.3472656,-0.0462328098 13.9187109,-0.0369164036 13.2851953,0.32642344 L3.12099609,6.25165782 C2.48748047,6.61499766 2.26388672,6.98765391 2.26388672,7.22056407 C2.26388672,7.45347422 2.49679687,7.81681407 3.12099609,8.18947032 L3.12099609,8.18947032 Z" id="Path" fill="#ED7231"></path>
                <path d="M3.12099609,29.0582203 L13.2851953,34.9834547 C13.9093945,35.3467945 14.3379492,35.3561109 14.5242773,35.2536305 C14.7012891,35.15115 14.90625,34.7784938 14.90625,34.0518141 L14.90625,22.1268141 C14.90625,21.4001344 14.7012891,21.0274781 14.5242773,20.9249977 C14.3472656,20.8225172 13.9187109,20.8318336 13.2851953,21.1951734 L3.12099609,27.1204078 C2.48748047,27.4837477 2.26388672,27.8564039 2.26388672,28.0893141 C2.26388672,28.3222242 2.49679687,28.6855641 3.12099609,29.0582203 L3.12099609,29.0582203 Z" id="Path" fill="#E8521E"></path>
                <path d="M18.5396484,20.8690992 C18.4278516,20.8690992 18.3346875,20.887732 18.2787891,20.9249977 C18.1017773,21.0274781 17.8968164,21.4001344 17.8968164,22.1268141 L17.8968164,34.0518141 C17.8968164,34.7784938 18.1017773,35.15115 18.2787891,35.2536305 C18.4558008,35.3561109 18.8843555,35.3467945 19.5178711,34.9834547 L29.6820703,29.0582203 C30.3155859,28.6948805 30.5391797,28.3222242 30.5391797,28.0893141 C30.5391797,27.8564039 30.3155859,27.4930641 29.6820703,27.1204078 L19.5085547,21.1951734 C19.0893164,20.9529469 18.7632422,20.8690992 18.5396484,20.8690992 Z" id="Path" fill="#ED7231"></path>
                <path d="M18.5396484,0.000349221407 C18.4278516,0.000349221407 18.3346875,0.0189820339 18.2787891,0.0562476589 C18.0924609,0.158728128 17.8875,0.531384378 17.8875,1.25806407 L17.8875,13.1830641 C17.8875,13.9097438 18.0924609,14.2824 18.2694727,14.3848805 C18.4464844,14.4873609 18.8750391,14.4780445 19.5085547,14.1147047 L29.6727539,8.18947032 C30.3062695,7.82613047 30.5298633,7.45347422 30.5298633,7.22056407 C30.5298633,6.98765391 30.3062695,6.62431407 29.6727539,6.25165782 L19.5085547,0.32642344 C19.0893164,0.0841968777 18.7632422,0.000349221407 18.5396484,0.000349221407 Z" id="Path" fill="#F39C71"></path>
            </g>
        </g>
    </g>
</svg>
