<?xml version="1.0" encoding="UTF-8"?>
<svg width="30px" height="32px" viewBox="0 0 30 32" version="1.1" xmlns="http://www.w3.org/2000/svg" xmlns:xlink="http://www.w3.org/1999/xlink">
    <g id="Page-1" stroke="none" stroke-width="1" fill="none" fill-rule="evenodd">
        <g id="sciety-logo-white-text" transform="translate(0.000000, 0.041096)" fill="#FFFFFF" fill-rule="nonzero">
            <path d="M0.5796875,9.27531042 C0.4803125,9.27531042 0.3975,9.29187292 0.3478125,9.32499792 C0.1821875,9.41609167 0,9.74734167 0,10.3932792 L0,20.9932792 C0,21.6392167 0.1821875,21.9704667 0.33953125,22.0615605 C0.496875,22.1526542 0.8778125,22.144373 1.4409375,21.8214042 L10.4757813,16.5545292 C11.0389063,16.2315605 11.2376563,15.9003105 11.2376563,15.6932792 C11.2376563,15.486248 11.0389063,15.1632792 10.4757813,14.8320292 L1.4409375,9.56515417 C1.06828125,9.34984167 0.7784375,9.27531042 0.5796875,9.27531042 Z" id="Path"></path>
            <path d="M28.5703125,9.27531042 C28.3715625,9.27531042 28.0734375,9.34984167 27.7090625,9.56515417 L18.6742188,14.8320292 C18.1110937,15.154998 17.9123438,15.486248 17.9123438,15.6932792 C17.9123438,15.9003105 18.1110938,16.2232792 18.6742188,16.5545292 L27.7090625,21.8214042 C28.2639062,22.144373 28.6448437,22.1526542 28.8104687,22.0615605 C28.9678125,21.9704667 29.15,21.6392167 29.15,20.9932792 L29.15,10.3932792 C29.15,9.74734167 28.9678125,9.41609167 28.8104687,9.32499792 C28.7525,9.29187292 28.6779687,9.27531042 28.5703125,9.27531042 Z" id="Path"></path>
            <path d="M2.77421875,7.27952917 L11.8090625,12.5464042 C12.3639062,12.869373 12.7448438,12.8776542 12.9104687,12.7865605 C13.0678125,12.6954667 13.25,12.3642167 13.25,11.7182792 L13.25,1.11827917 C13.25,0.472341669 13.0678125,0.141091669 12.9104687,0.049997919 C12.753125,-0.041095831 12.3721875,-0.032814581 11.8090625,0.290154169 L2.77421875,5.55702917 C2.21109375,5.87999792 2.01234375,6.21124792 2.01234375,6.41827917 C2.01234375,6.62531042 2.219375,6.94827917 2.77421875,7.27952917 L2.77421875,7.27952917 Z" id="Path"></path>
            <path d="M2.77421875,25.8295292 L11.8090625,31.0964042 C12.3639062,31.419373 12.7448438,31.4276542 12.9104687,31.3365605 C13.0678125,31.2454667 13.25,30.9142167 13.25,30.2682792 L13.25,19.6682792 C13.25,19.0223417 13.0678125,18.6910917 12.9104687,18.599998 C12.753125,18.5089042 12.3721875,18.5171855 11.8090625,18.8401542 L2.77421875,24.1070292 C2.21109375,24.429998 2.01234375,24.761248 2.01234375,24.9682792 C2.01234375,25.1753105 2.219375,25.4982792 2.77421875,25.8295292 L2.77421875,25.8295292 Z" id="Path"></path>
            <path d="M16.4796875,18.5503105 C16.3803125,18.5503105 16.2975,18.566873 16.2478125,18.599998 C16.0904687,18.6910917 15.9082812,19.0223417 15.9082812,19.6682792 L15.9082812,30.2682792 C15.9082812,30.9142167 16.0904687,31.2454667 16.2478125,31.3365605 C16.4051563,31.4276542 16.7860937,31.4193729 17.3492187,31.0964042 L26.3840625,25.8295292 C26.9471875,25.5065605 27.1459375,25.1753105 27.1459375,24.9682792 C27.1459375,24.761248 26.9471875,24.4382792 26.3840625,24.1070292 L17.3409375,18.8401542 C16.9682813,18.6248417 16.6784375,18.5503105 16.4796875,18.5503105 Z" id="Path"></path>
            <path d="M16.4796875,0.000310419028 C16.3803125,0.000310419028 16.2975,0.016872919 16.2478125,0.049997919 C16.0821875,0.141091669 15.9,0.472341669 15.9,1.11827917 L15.9,11.7182792 C15.9,12.3642167 16.0821875,12.6954667 16.2395312,12.7865605 C16.396875,12.8776542 16.7778125,12.869373 17.3409375,12.5464042 L26.3757813,7.27952917 C26.9389063,6.95656042 27.1376562,6.62531042 27.1376562,6.41827917 C27.1376562,6.21124792 26.9389063,5.88827917 26.3757813,5.55702917 L17.3409375,0.290154169 C16.9682813,0.074841669 16.6784375,0.000310419028 16.4796875,0.000310419028 Z" id="Path"></path>
        </g>
    </g>
</svg>
