<?xml version="1.0" encoding="UTF-8"?>
<svg width="30px" height="32px" viewBox="0 0 30 32" version="1.1" xmlns="http://www.w3.org/2000/svg" xmlns:xlink="http://www.w3.org/1999/xlink">
    <title>Untitled 6</title>
    <g id="Page-1" stroke="none" stroke-width="1" fill="none" fill-rule="evenodd">
        <g id="sciety-logo-white-text" transform="translate(0.000000, 0.041096)" fill-rule="nonzero" stroke="#FFFFFF">
            <path d="M0.477272727,7.09244535 C0.395454545,7.09244535 0.327272727,7.10511001 0.286363636,7.13043933 C0.15,7.20009494 0,7.45338808 0,7.94730971 L0,16.0526903 C0,16.5466119 0.15,16.799905 0.279545455,16.8695607 C0.409090909,16.9392163 0.722727273,16.932884 1.18636364,16.6859231 L8.62500004,12.6585622 C9.0886364,12.4116014 9.25227277,12.1583082 9.25227277,12 C9.25227277,11.8416918 9.0886364,11.594731 8.62500004,11.3414378 L1.18636364,7.31407685 C0.879545455,7.14943631 0.640909091,7.09244535 0.477272727,7.09244535 Z" id="Path"></path>
            <path d="M23.5227273,7.09244535 C23.3590909,7.09244535 23.1136364,7.14943631 22.8136364,7.31407685 L15.375,11.3414378 C14.9113636,11.5883987 14.7477273,11.8416918 14.7477273,12 C14.7477273,12.1583082 14.9113637,12.405269 15.375,12.6585622 L22.8136364,16.6859231 C23.2704545,16.932884 23.5840909,16.9392163 23.7204545,16.8695607 C23.85,16.799905 24,16.5466119 24,16.0526903 L24,7.94730971 C24,7.45338808 23.85,7.20009494 23.7204545,7.13043933 C23.6727273,7.10511001 23.6113636,7.09244535 23.5227273,7.09244535 Z" id="Path"></path>
            <path d="M2.28409091,5.56635417 L9.72272727,9.59371514 C10.1795454,9.84067599 10.4931819,9.84700828 10.6295454,9.7773527 C10.7590909,9.70769705 10.9090909,9.45440391 10.9090909,8.96048228 L10.9090909,0.85510172 C10.9090909,0.361180093 10.7590909,0.10788695 10.6295454,0.0382313359 C10.5,-0.0314242782 10.1863636,-0.0250919497 9.72272727,0.221868864 L2.28409091,4.24922983 C1.82045455,4.49619064 1.65681818,4.74948379 1.65681818,4.907792 C1.65681818,5.06610021 1.82727273,5.31306103 2.28409091,5.56635417 L2.28409091,5.56635417 Z" id="Path"></path>
            <path d="M2.28409091,19.7507702 L9.72272727,23.7781311 C10.1795454,24.025092 10.4931819,24.0314243 10.6295454,23.9617687 C10.7590909,23.892113 10.9090909,23.6388199 10.9090909,23.1448983 L10.9090909,15.0395177 C10.9090909,14.5455961 10.7590909,14.2923029 10.6295454,14.2226474 C10.5,14.1529917 10.1863636,14.1593241 9.72272727,14.4062848 L2.28409091,18.4336458 C1.82045455,18.6806067 1.65681818,18.9338998 1.65681818,19.092208 C1.65681818,19.2505162 1.82727273,19.497477 2.28409091,19.7507702 L2.28409091,19.7507702 Z" id="Path"></path>
            <path d="M13.5681818,14.1846534 C13.4863636,14.1846534 13.4181818,14.197318 13.3772727,14.2226474 C13.2477272,14.2923029 13.0977272,14.5455961 13.0977272,15.0395177 L13.0977272,23.1448983 C13.0977272,23.6388199 13.2477272,23.892113 13.3772727,23.9617687 C13.5068182,24.0314243 13.8204545,24.0250919 14.2840909,23.7781311 L21.7227273,19.7507702 C22.1863636,19.5038094 22.35,19.2505162 22.35,19.092208 C22.35,18.9338998 22.1863636,18.686939 21.7227273,18.4336458 L14.2772727,14.4062848 C13.9704546,14.2416443 13.7318182,14.1846534 13.5681818,14.1846534 Z" id="Path"></path>
            <path d="M13.5681818,0.000237364562 C13.4863636,0.000237364562 13.4181818,0.0129020217 13.3772727,0.0382313359 C13.2409091,0.10788695 13.0909091,0.361180093 13.0909091,0.85510172 L13.0909091,8.96048228 C13.0909091,9.45440391 13.2409091,9.70769705 13.3704545,9.7773527 C13.5,9.84700828 13.8136364,9.84067599 14.2772727,9.59371514 L21.7159091,5.56635417 C22.1795455,5.31939336 22.3431818,5.06610021 22.3431818,4.907792 C22.3431818,4.74948379 22.1795455,4.50252297 21.7159091,4.24922983 L14.2772727,0.221868864 C13.9704546,0.0572283216 13.7318182,0.000237364562 13.5681818,0.000237364562 Z" id="Path"></path>
        </g>
    </g>
</svg>