<?xml version="1.0" encoding="UTF-8"?>
<svg width="106px" height="32px" viewBox="0 0 106 32" version="1.1" xmlns="http://www.w3.org/2000/svg" xmlns:xlink="http://www.w3.org/1999/xlink">
    <g id="Designs" stroke="none" stroke-width="1" fill="none" fill-rule="evenodd">
        <g id="review-desktop-broken-down-kitchen-sink" transform="translate(-27.000000, -19.000000)" fill-rule="nonzero">
            <g id="sciety-logo-full-colour" transform="translate(27.000000, 19.000000)">
                <g id="Group" transform="translate(35.775000, 4.251042)" fill="#FFFFFF">
                    <path d="M4.48015625,16.23125 C5.1509375,16.23125 5.63125,16.165 5.9128125,16.0325 C6.194375,15.9 6.33515625,15.6432813 6.33515625,15.270625 C6.33515625,14.9725 6.15296875,14.7157813 5.796875,14.4921875 C5.4325,14.2685938 4.8859375,14.0201563 4.14890625,13.7385938 C3.5775,13.5232813 3.05578125,13.2996875 2.58375,13.0760938 C2.11171875,12.8442188 1.71421875,12.5709375 1.39125,12.2479688 C1.06,11.925 0.8115625,11.5440625 0.629375,11.1051563 C0.4471875,10.6579688 0.35609375,10.1279688 0.35609375,9.506875 C0.35609375,8.28953125 0.8115625,7.32890625 1.71421875,6.625 C2.616875,5.92109375 3.8590625,5.565 5.4325,5.565 C6.21921875,5.565 6.9728125,5.63125 7.7015625,5.77203125 C8.42203125,5.9128125 9.00171875,6.061875 9.4240625,6.2275 L8.78640625,9.08453125 C8.35578125,8.93546875 7.89203125,8.80296875 7.39515625,8.68703125 C6.89828125,8.57109375 6.33515625,8.513125 5.70578125,8.513125 C4.5546875,8.513125 3.98328125,8.83609375 3.98328125,9.47375 C3.98328125,9.6228125 4.008125,9.7553125 4.0578125,9.87125 C4.1075,9.9871875 4.206875,10.0948437 4.3559375,10.2025 C4.505,10.3101563 4.70375,10.4260937 4.96046875,10.5503125 C5.2171875,10.6745312 5.54015625,10.8070312 5.929375,10.9560938 C6.73265625,11.2542187 7.39515625,11.5523437 7.92515625,11.8421875 C8.446875,12.1320312 8.86921875,12.4467188 9.16734375,12.7779687 C9.47375,13.1175 9.68078125,13.4901563 9.805,13.8959375 C9.92921875,14.3017187 9.9871875,14.7820312 9.9871875,15.3203125 C9.9871875,16.595625 9.506875,17.5645312 8.54625,18.21875 C7.585625,18.8729687 6.2275,19.2042187 4.471875,19.2042187 C3.32078125,19.2042187 2.3684375,19.1048438 1.59828125,18.9060937 C0.83640625,18.7073437 0.30640625,18.5417188 0.00828125,18.4092187 L0.62109375,15.4279687 C1.2421875,15.6764062 1.888125,15.866875 2.54234375,16.0076563 C3.1965625,16.165 3.8425,16.23125 4.48015625,16.23125 Z" id="Path"></path>
                    <path d="M12.0989063,12.38875 C12.0989063,11.4529688 12.2479687,10.566875 12.554375,9.73875 C12.8607813,8.910625 13.2996875,8.19015625 13.8710938,7.5690625 C14.4425,6.94796875 15.1464062,6.46765625 15.96625,6.10328125 C16.7860937,5.73890625 17.721875,5.565 18.7735937,5.565 C19.4609375,5.565 20.0985937,5.62296875 20.67,5.7471875 C21.2414062,5.87140625 21.8045312,6.0453125 22.3428125,6.2771875 L21.5809375,9.20875 C21.233125,9.07625 20.8604687,8.9603125 20.4464062,8.8609375 C20.0323437,8.7615625 19.576875,8.711875 19.0634375,8.711875 C17.9785937,8.711875 17.1670312,9.05140625 16.6370312,9.7221875 C16.1070312,10.3929688 15.83375,11.2790625 15.83375,12.3804688 C15.83375,13.548125 16.0821875,14.4507813 16.5873437,15.0884375 C17.0842187,15.7260938 17.9620312,16.0490625 19.2125,16.0490625 C19.6596875,16.0490625 20.1317187,16.0076563 20.6451562,15.9248438 C21.1503125,15.8420313 21.6223437,15.7095313 22.0529687,15.5273438 L22.5664062,18.5334375 C22.1357812,18.715625 21.6057812,18.8729688 20.968125,19.0054688 C20.3304687,19.1379688 19.6182812,19.2042188 18.848125,19.2042188 C17.6639062,19.2042188 16.6453125,19.0303125 15.7923437,18.6742188 C14.939375,18.318125 14.2354687,17.8378125 13.6889062,17.2332813 C13.1423437,16.62875 12.7365625,15.9082813 12.4798437,15.0801562 C12.223125,14.2603125 12.0989063,13.3576563 12.0989063,12.38875 Z" id="Path"></path>
                    <path d="M29.0423437,2.1696875 C29.0423437,2.84046875 28.8270312,3.37046875 28.388125,3.7596875 C27.9492187,4.14890625 27.4357812,4.339375 26.8478125,4.339375 C26.2598437,4.339375 25.7464062,4.14890625 25.3075,3.7596875 C24.8685937,3.37046875 24.6532812,2.84046875 24.6532812,2.1696875 C24.6532812,1.49890625 24.8685937,0.96890625 25.3075,0.5796875 C25.7464062,0.19046875 26.2598437,0 26.8478125,0 C27.4357812,0 27.9492187,0.19046875 28.388125,0.5796875 C28.8270312,0.96890625 29.0423437,1.490625 29.0423437,2.1696875 Z M28.7028125,18.8729688 L25.0342187,18.8729688 L25.0342187,5.9128125 L28.7028125,5.9128125 L28.7028125,18.8729688 Z" id="Shape"></path>
                    <path d="M31.535,12.488125 C31.535,11.3370313 31.7089063,10.335 32.065,9.47375 C32.4210937,8.6125 32.8848437,7.89203125 33.45625,7.320625 C34.0276562,6.74921875 34.6901562,6.3103125 35.4354687,6.0121875 C36.1807812,5.7140625 36.9509375,5.565 37.7376562,5.565 C39.5760937,5.565 41.0335937,6.128125 42.101875,7.254375 C43.1701562,8.380625 43.7001562,10.036875 43.7001562,12.2148438 C43.7001562,12.4301562 43.691875,12.6620313 43.6753125,12.91875 C43.65875,13.1754688 43.6421875,13.3990625 43.625625,13.5978125 L35.3029687,13.5978125 C35.3857813,14.3514063 35.741875,14.9559375 36.3629687,15.3948437 C36.9840625,15.8420313 37.8204687,16.0573438 38.8721875,16.0573438 C39.5429687,16.0573438 40.2054687,15.999375 40.8514062,15.8751562 C41.4973437,15.7509375 42.0273438,15.601875 42.4414062,15.4196875 L42.9382812,18.4009375 C42.7395312,18.5003125 42.4745312,18.5996875 42.1515625,18.6990625 C41.8203125,18.7984375 41.4559375,18.88125 41.0584375,18.9557813 C40.6526562,19.0303125 40.2220312,19.0882813 39.7665625,19.1379688 C39.3028125,19.1876563 38.8473437,19.2125 38.3835937,19.2125 C37.2159375,19.2125 36.205625,19.0385938 35.344375,18.6990625 C34.483125,18.35125 33.7709375,17.8792187 33.1995312,17.2829688 C32.6364062,16.6867188 32.2140625,15.9745313 31.9407812,15.1546875 C31.6675,14.3265625 31.535,13.4404688 31.535,12.488125 Z M40.1557813,11.0885938 C40.1392187,10.7739063 40.0895313,10.4757813 39.9984375,10.1776563 C39.9073438,9.87953125 39.7665625,9.6228125 39.5760938,9.3909375 C39.385625,9.1590625 39.1454687,8.96859375 38.8639062,8.8278125 C38.5740625,8.67875 38.2179688,8.60421875 37.795625,8.60421875 C37.3815625,8.60421875 37.03375,8.67046875 36.735625,8.81125 C36.4375,8.95203125 36.1973438,9.13421875 35.9985938,9.36609375 C35.7998438,9.59796875 35.6507813,9.86296875 35.543125,10.169375 C35.4354688,10.4757813 35.3609375,10.7821875 35.31125,11.096875 L40.1557813,11.096875 L40.1557813,11.0885938 Z" id="Shape"></path>
                    <path d="M46.4164063,2.683125 L50.085,2.09515625 L50.085,5.9128125 L54.4989062,5.9128125 L54.4989062,8.96859375 L50.085,8.96859375 L50.085,13.5232813 C50.085,14.2934375 50.2175,14.9145313 50.4907813,15.37 C50.7640625,15.83375 51.310625,16.0573438 52.1304687,16.0573438 C52.5279687,16.0573438 52.93375,16.0242188 53.3478125,15.9496875 C53.7701562,15.8751563 54.1510938,15.7757813 54.490625,15.6432813 L55.0040625,18.5003125 C54.556875,18.6825 54.0682813,18.8398438 53.53,18.9723438 C52.9917188,19.1048438 52.3209375,19.1710938 51.5342188,19.1710938 C50.5321875,19.1710938 49.7040625,19.0385937 49.0498438,18.7653125 C48.395625,18.4920313 47.865625,18.119375 47.4764063,17.6307813 C47.0789063,17.1504688 46.805625,16.5625 46.6482813,15.866875 C46.4909375,15.1795313 46.4164063,14.409375 46.4164063,13.5729688 L46.4164063,2.683125 L46.4164063,2.683125 Z" id="Path"></path>
                    <path d="M69.2478125,5.9128125 C68.5107812,8.40546875 67.7323437,10.7490625 66.9290625,12.9353125 C66.1257812,15.1215625 65.2396875,17.2415625 64.2873437,19.2870313 C63.9395312,20.0240625 63.6,20.6534375 63.2521875,21.1751563 C62.904375,21.6885938 62.5317187,22.1192187 62.1176562,22.45875 C61.7035937,22.7982813 61.2398437,23.0384375 60.7264062,23.1957813 C60.2046875,23.353125 59.6001562,23.4276563 58.9128125,23.4276563 C58.333125,23.4276563 57.803125,23.3779688 57.3228125,23.2703125 C56.8342187,23.1626563 56.4367187,23.0467188 56.1303125,22.9142188 L56.7679687,19.9826563 C57.1489062,20.1151563 57.4801562,20.20625 57.7782812,20.2559375 C58.0764062,20.305625 58.3828125,20.3304688 58.7140625,20.3304688 C59.3682812,20.3304688 59.8734375,20.1565625 60.2295312,19.8004688 C60.585625,19.444375 60.88375,18.9557813 61.1321875,18.3346875 C60.2957812,16.695 59.459375,14.8482813 58.6146875,12.8028125 C57.7782812,10.7573438 56.9915625,8.4634375 56.24625,5.92109375 L60.1384375,5.92109375 C60.3040625,6.55875 60.4945312,7.254375 60.718125,7.9996875 C60.9417187,8.745 61.1735937,9.49859375 61.4220312,10.26875 C61.6704687,11.030625 61.9189062,11.7759375 62.175625,12.4964063 C62.4323437,13.216875 62.6725,13.879375 62.904375,14.4673438 C63.1196875,13.879375 63.3432812,13.216875 63.5751562,12.4964063 C63.8070312,11.7759375 64.030625,11.030625 64.2542187,10.26875 C64.4778125,9.506875 64.693125,8.75328125 64.9001562,7.9996875 C65.1071875,7.254375 65.289375,6.55875 65.455,5.92109375 L69.2478125,5.92109375 L69.2478125,5.9128125 Z" id="Path"></path>
                </g>
                <path d="M0.5796875,9.31640625 C0.4803125,9.31640625 0.3975,9.33296875 0.3478125,9.36609375 C0.1821875,9.4571875 0,9.7884375 0,10.434375 L0,21.034375 C0,21.6803125 0.1821875,22.0115625 0.33953125,22.1026563 C0.496875,22.19375 0.8778125,22.1854688 1.4409375,21.8625 L10.4757813,16.595625 C11.0389063,16.2726563 11.2376563,15.9414063 11.2376563,15.734375 C11.2376563,15.5273438 11.0389063,15.204375 10.4757813,14.873125 L1.4409375,9.60625 C1.06828125,9.3909375 0.7784375,9.31640625 0.5796875,9.31640625 Z" id="Path" fill="#B53818"></path>
                <path d="M28.5703125,9.31640625 C28.3715625,9.31640625 28.0734375,9.3909375 27.7090625,9.60625 L18.6742188,14.873125 C18.1110937,15.1960938 17.9123438,15.5273438 17.9123438,15.734375 C17.9123438,15.9414063 18.1110938,16.264375 18.6742188,16.595625 L27.7090625,21.8625 C28.2639062,22.1854688 28.6448437,22.19375 28.8104687,22.1026563 C28.9678125,22.0115625 29.15,21.6803125 29.15,21.034375 L29.15,10.434375 C29.15,9.7884375 28.9678125,9.4571875 28.8104687,9.36609375 C28.7525,9.33296875 28.6779687,9.31640625 28.5703125,9.31640625 Z" id="Path" fill="#E8521E"></path>
                <path d="M2.77421875,7.320625 L11.8090625,12.5875 C12.3639062,12.9104688 12.7448438,12.91875 12.9104687,12.8276563 C13.0678125,12.7365625 13.25,12.4053125 13.25,11.759375 L13.25,1.159375 C13.25,0.5134375 13.0678125,0.1821875 12.9104687,0.09109375 C12.753125,-1.87350135e-16 12.3721875,0.00828125 11.8090625,0.33125 L2.77421875,5.598125 C2.21109375,5.92109375 2.01234375,6.25234375 2.01234375,6.459375 C2.01234375,6.66640625 2.219375,6.989375 2.77421875,7.320625 L2.77421875,7.320625 Z" id="Path" fill="#ED7231"></path>
                <path d="M2.77421875,25.870625 L11.8090625,31.1375 C12.3639062,31.4604688 12.7448438,31.46875 12.9104687,31.3776563 C13.0678125,31.2865625 13.25,30.9553125 13.25,30.309375 L13.25,19.709375 C13.25,19.0634375 13.0678125,18.7321875 12.9104687,18.6410938 C12.753125,18.55 12.3721875,18.5582813 11.8090625,18.88125 L2.77421875,24.148125 C2.21109375,24.4710938 2.01234375,24.8023438 2.01234375,25.009375 C2.01234375,25.2164063 2.219375,25.539375 2.77421875,25.870625 L2.77421875,25.870625 Z" id="Path" fill="#E8521E"></path>
                <path d="M16.4796875,18.5914063 C16.3803125,18.5914063 16.2975,18.6079688 16.2478125,18.6410938 C16.0904687,18.7321875 15.9082812,19.0634375 15.9082812,19.709375 L15.9082812,30.309375 C15.9082812,30.9553125 16.0904687,31.2865625 16.2478125,31.3776563 C16.4051563,31.46875 16.7860937,31.4604687 17.3492187,31.1375 L26.3840625,25.870625 C26.9471875,25.5476563 27.1459375,25.2164063 27.1459375,25.009375 C27.1459375,24.8023438 26.9471875,24.479375 26.3840625,24.148125 L17.3409375,18.88125 C16.9682813,18.6659375 16.6784375,18.5914063 16.4796875,18.5914063 Z" id="Path" fill="#ED7231"></path>
                <path d="M16.4796875,0.04140625 C16.3803125,0.04140625 16.2975,0.05796875 16.2478125,0.09109375 C16.0821875,0.1821875 15.9,0.5134375 15.9,1.159375 L15.9,11.759375 C15.9,12.4053125 16.0821875,12.7365625 16.2395312,12.8276563 C16.396875,12.91875 16.7778125,12.9104688 17.3409375,12.5875 L26.3757813,7.320625 C26.9389063,6.99765625 27.1376562,6.66640625 27.1376562,6.459375 C27.1376562,6.25234375 26.9389063,5.929375 26.3757813,5.598125 L17.3409375,0.33125 C16.9682813,0.1159375 16.6784375,0.04140625 16.4796875,0.04140625 Z" id="Path" fill="#F39C71"></path>
            </g>
        </g>
    </g>
</svg>
