<svg id="ed03ac3d-4409-4eff-b2eb-a36f91dd958a" data-name="Layer 1" xmlns="http://www.w3.org/2000/svg" width="400" height="400" viewBox="0 0 400 400">
  <defs>
    <style>
      .a54f3fc0-2293-4cf4-a692-a4986655f08a {
        fill: none;
      }

      .f630371c-1328-4ff4-9c7b-074777b3e05b {
        fill: #b53818;
      }

      .bbdecd86-d73f-493e-9d42-a90e92a5a992 {
        fill: #e8531e;
      }

      .eeb3d21b-33a4-49ce-b9f9-2b555650e9ea {
        fill: #ee7231;
      }

      .ffab418a-08bd-44da-8f75-aa8587024938 {
        fill: #f49d71;
      }
    </style>
  </defs>
  <rect class="a54f3fc0-2293-4cf4-a692-a4986655f08a" width="400" height="400"/>
  <g>
    <path class="f630371c-1328-4ff4-9c7b-074777b3e05b" d="M84.05,146.82a3.84,3.84,0,0,0-1.93.42c-1.31.75-2.84,3.52-2.84,8.86v87.8c0,5.33,1.53,8.11,2.84,8.86s4.48.68,9.09-2L166,207.11c4.64-2.7,6.29-5.45,6.29-7.11s-1.65-4.41-6.29-7.11L91.21,149.24A15.12,15.12,0,0,0,84.05,146.82Z"/>
    <path class="bbdecd86-d73f-493e-9d42-a90e92a5a992" d="M316,146.82a15.12,15.12,0,0,0-7.16,2.42L234,192.89c-4.64,2.7-6.29,5.45-6.29,7.11s1.65,4.41,6.29,7.11l74.82,43.64c4.61,2.69,7.78,2.77,9.09,2s2.84-3.53,2.84-8.86V156.1c0-5.34-1.53-8.11-2.84-8.86A3.84,3.84,0,0,0,316,146.82Z"/>
    <path class="eeb3d21b-33a4-49ce-b9f9-2b555650e9ea" d="M102.27,130.29l74.82,43.64c4.61,2.69,7.78,2.76,9.09,2s2.85-3.53,2.85-8.87V79.27c0-5.33-1.54-8.1-2.85-8.86s-4.48-.68-9.09,2l-74.82,43.64c-4.64,2.71-6.29,5.45-6.29,7.11s1.65,4.41,6.29,7.12Z"/>
    <path class="bbdecd86-d73f-493e-9d42-a90e92a5a992" d="M102.27,283.93l74.82,43.65c4.61,2.69,7.78,2.76,9.09,2s2.85-3.53,2.85-8.87v-87.8c0-5.33-1.54-8.1-2.85-8.86s-4.48-.68-9.09,2l-74.82,43.64c-4.64,2.71-6.29,5.45-6.29,7.11s1.65,4.41,6.29,7.11Z"/>
    <path class="eeb3d21b-33a4-49ce-b9f9-2b555650e9ea" d="M215.75,223.65a4,4,0,0,0-1.93.41c-1.31.76-2.85,3.53-2.85,8.86v87.8c0,5.34,1.54,8.11,2.85,8.87s4.48.68,9.09-2l74.82-43.65c4.64-2.7,6.29-5.44,6.29-7.11s-1.65-4.4-6.29-7.11l-74.82-43.64A15,15,0,0,0,215.75,223.65Z"/>
    <path class="ffab418a-08bd-44da-8f75-aa8587024938" d="M215.75,70a4,4,0,0,0-1.93.41c-1.31.76-2.85,3.53-2.85,8.86v87.8c0,5.34,1.54,8.11,2.85,8.87s4.48.68,9.09-2l74.82-43.64c4.64-2.71,6.29-5.45,6.29-7.12s-1.65-4.4-6.29-7.11L222.91,72.42A15,15,0,0,0,215.75,70Z"/>
  </g>
</svg>
