<?xml version="1.0" encoding="UTF-8"?>
<svg width="202px" height="75px" viewBox="0 0 202 75" version="1.1" xmlns="http://www.w3.org/2000/svg" xmlns:xlink="http://www.w3.org/1999/xlink">
    <!-- Generator: Sketch 63.1 (92452) - https://sketch.com -->
    <title>elife-logo-sm</title>
    <desc>Created with Sketch.</desc>
    <g id="elife-logo-sm" stroke="none" stroke-width="1" fill="none" fill-rule="evenodd">
        <rect id="Rectangle" x="0" y="0" width="202" height="75"></rect>
        <g id="logo" transform="translate(4.250000, 5.250000)">
            <g id="symbol">
                <circle id="Oval" stroke="#BEC3C5" stroke-width="3" fill="#FFFFFF" cx="32.25" cy="32.25" r="30.75"></circle>
                <path d="M27.68115,27.681525 C29.32215,29.322525 32.00715,29.322525 33.6474,27.681525 L49.0869,12.242775 C46.88115,10.364025 44.3619,8.847525 41.6184,7.778775 L27.68115,21.715275 C26.04015,23.356275 26.04015,26.040525 27.68115,27.681525" id="Fill-2" fill="#7CB13F"></path>
                <path d="M36.6306,36.630975 C38.2716,38.271975 38.2716,40.956225 36.6306,42.597225 L24.6981,54.529725 C23.0571,56.169975 20.37285,56.169975 18.73185,54.529725 C17.09085,52.888725 17.09085,50.204475 18.73185,48.563475 L30.66435,36.630975 C32.3046,34.989975 34.9896,34.989975 36.6306,36.630975" id="Fill-4" fill="#D71D62"></path>
                <path d="M24.698025,30.66465 C26.339025,32.30565 26.339025,34.99065 24.698025,36.6309 C23.057025,38.2719 20.372775,38.2719 18.731775,36.6309 C17.090775,34.99065 17.090775,32.30565 18.731775,30.66465 C20.372775,29.02365 23.057025,29.02365 24.698025,30.66465" id="Fill-6" fill="#336A2D"></path>
                <path d="M39.6138,15.74925 C41.2548,17.39025 41.2548,20.0745 39.6138,21.7155 C37.9728,23.3565 35.2878,23.3565 33.64755,21.7155 C32.00655,20.0745 32.00655,17.39025 33.64755,15.74925 C35.2878,14.10825 37.9728,14.10825 39.6138,15.74925" id="Fill-8" fill="#336A2D"></path>
                <path d="M27.68115,45.58005 C29.32215,47.22105 29.32215,49.90605 27.68115,51.5463 C26.04015,53.1873 23.35515,53.1873 21.7149,51.5463 C20.0739,49.90605 20.0739,47.22105 21.7149,45.58005 C23.35515,43.93905 26.04015,43.93905 27.68115,45.58005" id="Fill-10" fill="#861450"></path>
                <path d="M54.529575,18.73245 C56.170575,20.37345 56.170575,23.0577 54.529575,24.6987 C52.888575,26.3397 50.203575,26.3397 48.563325,24.6987 C46.922325,23.0577 46.922325,20.37345 48.563325,18.73245 C50.203575,17.09145 52.888575,17.09145 54.529575,18.73245" id="Fill-12" fill="#861450"></path>
                <path d="M45.580125,27.681525 C47.221125,29.322525 47.221125,32.007525 45.580125,33.647775 C43.939125,35.288775 41.254125,35.288775 39.613875,33.647775 C37.972875,32.007525 37.972875,29.322525 39.613875,27.681525 C41.254125,26.040525 43.939125,26.040525 45.580125,27.681525" id="Fill-14" fill="#D71D62"></path>
                <path d="M48.56325,42.5973 C50.20425,44.2383 50.20425,46.92255 48.56325,48.56355 C46.92225,50.20455 44.23725,50.20455 42.597,48.56355 C40.956,46.92255 40.956,44.2383 42.597,42.5973 C44.23725,40.9563 46.92225,40.9563 48.56325,42.5973" id="Fill-16" fill="#2994D2"></path>
                <path d="M24.698025,12.766125 C26.339025,14.407125 26.339025,17.091375 24.698025,18.732375 C23.057025,20.373375 20.372775,20.373375 18.731775,18.732375 C17.090775,17.091375 17.090775,14.407125 18.731775,12.766125 C20.372775,11.125125 23.057025,11.125125 24.698025,12.766125" id="Fill-18" fill="#08589B"></path>
                <path d="M15.74925,39.6141 C14.10825,37.9731 11.42325,37.9731 9.783,39.6141 L7.77825,41.6181 C8.847,44.36235 10.3635,46.88085 12.24225,49.0866 L15.74925,45.58035 C17.39025,43.93935 17.39025,41.2551 15.74925,39.6141" id="Fill-20" fill="#861450"></path>
                <path d="M27.68115,9.782925 C29.32215,11.423925 32.00715,11.423925 33.6474,9.782925 L36.6309,6.799425 C36.74115,6.689175 36.8259,6.563175 36.92115,6.443175 C35.3754,6.157425 33.7839,5.999925 32.1564,5.999925 C30.2019,5.999925 28.2999,6.221925 26.4669,6.630675 C26.42115,7.767675 26.8179,8.919675 27.68115,9.782925" id="Fill-22" fill="#D71D62"></path>
                <path d="M15.74925,27.681525 C17.39025,26.040525 17.39025,23.356275 15.74925,21.715275 C14.10825,20.074275 11.42325,20.074275 9.783,21.715275 L7.21125,24.286275 C6.426,26.771775 6,29.414775 6,32.156025 C6,33.542775 6.11025,34.904025 6.3195,36.233025 C7.0425,36.056025 7.7295,35.701275 8.29125,35.139525 L15.74925,27.681525 Z" id="Fill-24" fill="#2994D2"></path>
                <path d="M51.546375,33.64785 C49.905375,35.28885 49.905375,37.9731 51.546375,39.6141 C53.069625,41.13735 55.483125,41.22735 57.135375,39.9216 C57.900375,37.46685 58.312125,34.8591 58.312125,32.1561 C58.312125,30.52785 58.155375,28.9371 57.869625,27.3906 C57.749625,27.4866 57.623625,27.5706 57.512625,27.6816 L51.546375,33.64785 Z" id="Fill-26" fill="#08589B"></path>
                <path d="M39.6138,51.546375 C37.9728,49.905375 35.2878,49.905375 33.64755,51.546375 L27.6813,57.512625 C27.5703,57.623625 27.4863,57.749625 27.3903,57.869625 C28.9368,58.155375 30.5283,58.312125 32.15655,58.312125 C34.8588,58.312125 37.4673,57.900375 39.9213,57.136125 C41.22705,55.483875 41.13705,53.070375 39.6138,51.546375" id="Fill-28" fill="#7CB13F"></path>
            </g>
            <g id="letters" transform="translate(72.000000, 10.307700)" fill="#666B6E">
                <path d="M14.001,16.41405 C12.29625,16.41405 10.95975,16.9548 9.993,18.03555 C9.02625,19.11705 8.47275,20.65005 8.33175,22.6368 L19.617,22.6368 C19.58175,20.65005 19.0635,19.11705 18.0615,18.03555 C17.0595,16.9548 15.70575,16.41405 14.001,16.41405 M15.135,41.2518 C10.389,41.2518 6.6795,39.9423 4.008,37.3233 C1.33575,34.7043 0,30.9948 0,26.1963 C0,21.2568 1.23525,17.4378 3.70425,14.74005 C6.174,12.04155 9.58875,10.6923 13.9485,10.6923 C18.114,10.6923 21.35775,11.8788 23.6775,14.2518 C25.998,16.6248 27.15825,19.90305 27.15825,24.08655 L27.15825,27.98955 L8.14725,27.98955 C8.23575,30.27405 8.91225,32.0583 10.1775,33.34155 C11.4435,34.6248 13.21875,35.2668 15.504,35.2668 C17.27925,35.2668 18.95775,35.0823 20.54025,34.71255 C22.122,34.34355 23.77425,33.7548 25.497,32.9463 L25.497,39.16905 C24.09075,39.8718 22.58775,40.3953 20.988,40.73805 C19.389,41.0808 17.4375,41.2518 15.135,41.2518" id="Fill-32"></path>
                <polygon id="Fill-34" points="31.5 40.6923 31.5 3.1923 39 3.1923 39 34.6923 54 34.6923 54 40.6923"></polygon>
                <path d="M58.5,40.6923 L66,40.6923 L66,12.1923 L58.5,12.1923 L58.5,40.6923 Z M58.5,5.430171 C58.5,2.93801918 59.7504284,1.6923 62.25,1.6923 C64.7502142,1.6923 66,2.93801918 66,5.430171 C66,6.61738562 65.6877142,7.54132968 65.0625,8.20128973 C64.4379284,8.86196324 63.5004284,9.1923 62.25,9.1923 C59.7504284,9.1923 58.5,7.93801918 58.5,5.430171 L58.5,5.430171 Z" id="Fill-36"></path>
                <path d="M90,18.1923 L82.5,18.1923 L82.5,40.6923 L75,40.6923 L75,18.1923 L70.5,18.1923 L70.5,13.6923 L75,12.1923 L75,10.6923 C75,7.3353 75.91125,4.0593 77.5635,2.5128 C79.21575,0.96555 81.861,0.1923 85.5,0.1923 C88.27725,0.1923 90.747,0.60555 92.90925,1.4313 L90.73275,6.95655 C89.115,6.4473 86.871,6.1923 85.5,6.1923 C84.35775,6.1923 83.53125,6.53055 83.02125,7.20705 C82.512,7.8843 82.5,9.6378 82.5,10.6923 L82.5,12.1923 L90,12.1923 L90,18.1923 Z" id="Fill-38"></path>
                <path d="M107.001,16.41405 C105.29625,16.41405 103.95975,16.9548 102.993,18.03555 C102.02625,19.11705 101.47275,20.65005 101.33175,22.6368 L112.617,22.6368 C112.58175,20.65005 112.0635,19.11705 111.0615,18.03555 C110.0595,16.9548 108.70575,16.41405 107.001,16.41405 M108.135,41.2518 C103.389,41.2518 99.6795,39.9423 97.008,37.3233 C94.33575,34.7043 93,30.9948 93,26.1963 C93,21.2568 94.23525,17.4378 96.70425,14.74005 C99.174,12.04155 102.58875,10.6923 106.9485,10.6923 C111.114,10.6923 114.35775,11.8788 116.6775,14.2518 C118.998,16.6248 120.15825,19.90305 120.15825,24.08655 L120.15825,27.98955 L101.14725,27.98955 C101.23575,30.27405 101.91225,32.0583 103.1775,33.34155 C104.4435,34.6248 106.21875,35.2668 108.504,35.2668 C110.27925,35.2668 111.95775,35.0823 113.54025,34.71255 C115.122,34.34355 116.77425,33.7548 118.497,32.9463 L118.497,39.16905 C117.09075,39.8718 115.58775,40.3953 113.988,40.73805 C112.389,41.0808 110.4375,41.2518 108.135,41.2518" id="Fill-39"></path>
            </g>
        </g>
    </g>
</svg>